%TF.GenerationSoftware,KiCad,Pcbnew,9.0.4*%
%TF.CreationDate,2025-12-07T12:20:53+01:00*%
%TF.ProjectId,ChristmasLight,43687269-7374-46d6-9173-4c696768742e,rev?*%
%TF.SameCoordinates,Original*%
%TF.FileFunction,Paste,Top*%
%TF.FilePolarity,Positive*%
%FSLAX46Y46*%
G04 Gerber Fmt 4.6, Leading zero omitted, Abs format (unit mm)*
G04 Created by KiCad (PCBNEW 9.0.4) date 2025-12-07 12:20:53*
%MOMM*%
%LPD*%
G01*
G04 APERTURE LIST*
G04 Aperture macros list*
%AMRoundRect*
0 Rectangle with rounded corners*
0 $1 Rounding radius*
0 $2 $3 $4 $5 $6 $7 $8 $9 X,Y pos of 4 corners*
0 Add a 4 corners polygon primitive as box body*
4,1,4,$2,$3,$4,$5,$6,$7,$8,$9,$2,$3,0*
0 Add four circle primitives for the rounded corners*
1,1,$1+$1,$2,$3*
1,1,$1+$1,$4,$5*
1,1,$1+$1,$6,$7*
1,1,$1+$1,$8,$9*
0 Add four rect primitives between the rounded corners*
20,1,$1+$1,$2,$3,$4,$5,0*
20,1,$1+$1,$4,$5,$6,$7,0*
20,1,$1+$1,$6,$7,$8,$9,0*
20,1,$1+$1,$8,$9,$2,$3,0*%
G04 Aperture macros list end*
%ADD10RoundRect,0.155000X-0.155000X0.212500X-0.155000X-0.212500X0.155000X-0.212500X0.155000X0.212500X0*%
%ADD11R,1.500000X1.000000*%
%ADD12RoundRect,0.135000X0.185000X-0.135000X0.185000X0.135000X-0.185000X0.135000X-0.185000X-0.135000X0*%
%ADD13R,0.900000X1.700000*%
%ADD14RoundRect,0.375000X0.375000X-0.625000X0.375000X0.625000X-0.375000X0.625000X-0.375000X-0.625000X0*%
%ADD15RoundRect,0.500000X1.400000X-0.500000X1.400000X0.500000X-1.400000X0.500000X-1.400000X-0.500000X0*%
%ADD16RoundRect,0.250000X-0.475000X0.250000X-0.475000X-0.250000X0.475000X-0.250000X0.475000X0.250000X0*%
%ADD17RoundRect,0.135000X-0.185000X0.135000X-0.185000X-0.135000X0.185000X-0.135000X0.185000X0.135000X0*%
%ADD18RoundRect,0.225000X-0.225000X-0.250000X0.225000X-0.250000X0.225000X0.250000X-0.225000X0.250000X0*%
%ADD19RoundRect,0.225000X0.250000X-0.225000X0.250000X0.225000X-0.250000X0.225000X-0.250000X-0.225000X0*%
%ADD20RoundRect,0.135000X-0.135000X-0.185000X0.135000X-0.185000X0.135000X0.185000X-0.135000X0.185000X0*%
%ADD21RoundRect,0.225000X0.375000X-0.225000X0.375000X0.225000X-0.375000X0.225000X-0.375000X-0.225000X0*%
%ADD22RoundRect,0.200000X-0.300000X-0.200000X0.300000X-0.200000X0.300000X0.200000X-0.300000X0.200000X0*%
%ADD23RoundRect,0.062500X-0.062500X0.117500X-0.062500X-0.117500X0.062500X-0.117500X0.062500X0.117500X0*%
%ADD24RoundRect,0.218750X-0.218750X-0.256250X0.218750X-0.256250X0.218750X0.256250X-0.218750X0.256250X0*%
%ADD25RoundRect,0.135000X0.135000X0.185000X-0.135000X0.185000X-0.135000X-0.185000X0.135000X-0.185000X0*%
%ADD26RoundRect,0.150000X-0.825000X-0.150000X0.825000X-0.150000X0.825000X0.150000X-0.825000X0.150000X0*%
%ADD27RoundRect,0.150000X0.150000X-0.512500X0.150000X0.512500X-0.150000X0.512500X-0.150000X-0.512500X0*%
%ADD28R,0.600000X1.450000*%
%ADD29R,0.300000X1.450000*%
%ADD30RoundRect,0.150000X-0.150000X-0.335000X0.150000X-0.335000X0.150000X0.335000X-0.150000X0.335000X0*%
%ADD31RoundRect,0.100000X-0.300000X-0.100000X0.300000X-0.100000X0.300000X0.100000X-0.300000X0.100000X0*%
%ADD32RoundRect,0.225000X-0.250000X0.225000X-0.250000X-0.225000X0.250000X-0.225000X0.250000X0.225000X0*%
%ADD33RoundRect,0.155000X-0.212500X-0.155000X0.212500X-0.155000X0.212500X0.155000X-0.212500X0.155000X0*%
%ADD34RoundRect,0.250000X0.625000X-0.375000X0.625000X0.375000X-0.625000X0.375000X-0.625000X-0.375000X0*%
%ADD35RoundRect,0.155000X0.155000X-0.212500X0.155000X0.212500X-0.155000X0.212500X-0.155000X-0.212500X0*%
%ADD36R,0.900000X0.900000*%
%ADD37R,1.500000X0.900000*%
%ADD38R,0.900000X1.500000*%
%ADD39RoundRect,0.218750X-0.381250X0.218750X-0.381250X-0.218750X0.381250X-0.218750X0.381250X0.218750X0*%
G04 APERTURE END LIST*
D10*
%TO.C,C9x*%
X189510000Y-124747500D03*
X189510000Y-123612500D03*
%TD*%
D11*
%TO.C,D8*%
X211980000Y-109950000D03*
X211980000Y-113150000D03*
X207080000Y-113150000D03*
X207080000Y-109950000D03*
%TD*%
D12*
%TO.C,R9x*%
X194670000Y-109630000D03*
X194670000Y-110650000D03*
%TD*%
D11*
%TO.C,D7*%
X202130000Y-110330000D03*
X202130000Y-113530000D03*
X197230000Y-113530000D03*
X197230000Y-110330000D03*
%TD*%
%TO.C,D5x*%
X186630000Y-113940000D03*
X186630000Y-110740000D03*
X191530000Y-110740000D03*
X191530000Y-113940000D03*
%TD*%
D13*
%TO.C,SW1*%
X160700000Y-117200000D03*
X157300000Y-117200000D03*
%TD*%
D14*
%TO.C,U3*%
X123375000Y-130725000D03*
X125675000Y-130725000D03*
D15*
X125675000Y-124425000D03*
D14*
X127975000Y-130725000D03*
%TD*%
D16*
%TO.C,C5*%
X127975000Y-133200000D03*
X127975000Y-135100000D03*
%TD*%
%TO.C,C6*%
X125675000Y-133200000D03*
X125675000Y-135100000D03*
%TD*%
D17*
%TO.C,R7*%
X156080000Y-128100000D03*
X156080000Y-129120000D03*
%TD*%
D18*
%TO.C,C7*%
X152620000Y-107100000D03*
X154170000Y-107100000D03*
%TD*%
D13*
%TO.C,SW2*%
X160800000Y-123950000D03*
X157400000Y-123950000D03*
%TD*%
D19*
%TO.C,C2*%
X125150000Y-89750000D03*
X125150000Y-88200000D03*
%TD*%
D20*
%TO.C,R6*%
X117530000Y-101130000D03*
X118550000Y-101130000D03*
%TD*%
D21*
%TO.C,D1*%
X131250000Y-133200000D03*
X131250000Y-129900000D03*
%TD*%
D22*
%TO.C,D5*%
X147700000Y-122500000D03*
X147700000Y-123900000D03*
X150200000Y-123900000D03*
X150200000Y-122500000D03*
%TD*%
D20*
%TO.C,R7*%
X151790000Y-123900000D03*
X152810000Y-123900000D03*
%TD*%
D23*
%TO.C,D2*%
X155500000Y-118047500D03*
X155500000Y-117207500D03*
%TD*%
D24*
%TO.C,D3*%
X116512500Y-125590000D03*
X118087500Y-125590000D03*
%TD*%
D25*
%TO.C,R6*%
X145700000Y-123840000D03*
X144680000Y-123840000D03*
%TD*%
D12*
%TO.C,R6*%
X143160000Y-115310000D03*
X143160000Y-114290000D03*
%TD*%
D26*
%TO.C,U6*%
X148935000Y-128530000D03*
X148935000Y-129800000D03*
X148935000Y-131070000D03*
X148935000Y-132340000D03*
X148935000Y-133610000D03*
X148935000Y-134880000D03*
X148935000Y-136150000D03*
X153885000Y-136150000D03*
X153885000Y-134880000D03*
X153885000Y-133610000D03*
X153885000Y-132340000D03*
X153885000Y-131070000D03*
X153885000Y-129800000D03*
X153885000Y-128530000D03*
%TD*%
D27*
%TO.C,U1*%
X137050000Y-126637500D03*
X138000000Y-126637500D03*
X138950000Y-126637500D03*
X138950000Y-124362500D03*
X138000000Y-124362500D03*
X137050000Y-124362500D03*
%TD*%
D17*
%TO.C,R5*%
X120000000Y-124580000D03*
X120000000Y-125600000D03*
%TD*%
%TO.C,R2*%
X152700000Y-114840000D03*
X152700000Y-115860000D03*
%TD*%
D28*
%TO.C,J1*%
X134750000Y-130855000D03*
X135550000Y-130855000D03*
D29*
X136750000Y-130855000D03*
X137750000Y-130855000D03*
X138250000Y-130855000D03*
X139250000Y-130855000D03*
D28*
X140450000Y-130855000D03*
X141250000Y-130855000D03*
X141250000Y-130855000D03*
X140450000Y-130855000D03*
D29*
X139750000Y-130855000D03*
X138750000Y-130855000D03*
X137250000Y-130855000D03*
X136250000Y-130855000D03*
D28*
X135550000Y-130855000D03*
X134750000Y-130855000D03*
%TD*%
D20*
%TO.C,R8*%
X149880000Y-107100000D03*
X150900000Y-107100000D03*
%TD*%
D30*
%TO.C,U4*%
X144160000Y-111330000D03*
X144160000Y-112530000D03*
X144910000Y-111330000D03*
X144910000Y-112530000D03*
D31*
X143085000Y-110930000D03*
X143085000Y-111930000D03*
X143085000Y-112930000D03*
X145985000Y-112930000D03*
X145985000Y-111930000D03*
X145985000Y-110930000D03*
%TD*%
D20*
%TO.C,R1*%
X124540000Y-96000000D03*
X125560000Y-96000000D03*
%TD*%
D32*
%TO.C,C4*%
X152700000Y-117175000D03*
X152700000Y-118725000D03*
%TD*%
D20*
%TO.C,R3*%
X145160000Y-128050000D03*
X146180000Y-128050000D03*
%TD*%
D23*
%TO.C,D6*%
X154400000Y-109620000D03*
X154400000Y-108780000D03*
%TD*%
D17*
%TO.C,R7*%
X133840000Y-116050000D03*
X133840000Y-117070000D03*
%TD*%
D26*
%TO.C,U5*%
X135915000Y-113405000D03*
X135915000Y-114675000D03*
X135915000Y-115945000D03*
X135915000Y-117215000D03*
X140865000Y-117215000D03*
X140865000Y-115945000D03*
X140865000Y-114675000D03*
X140865000Y-113405000D03*
%TD*%
D23*
%TO.C,D4*%
X155770000Y-124790000D03*
X155770000Y-123950000D03*
%TD*%
D17*
%TO.C,R9y*%
X136065000Y-120585000D03*
X136065000Y-121605000D03*
%TD*%
D26*
%TO.C,U5*%
X115230000Y-91900000D03*
X115230000Y-93170000D03*
X115230000Y-94440000D03*
X115230000Y-95710000D03*
X115230000Y-96980000D03*
X115230000Y-98250000D03*
X115230000Y-99520000D03*
X120180000Y-99520000D03*
X120180000Y-98250000D03*
X120180000Y-96980000D03*
X120180000Y-95710000D03*
X120180000Y-94440000D03*
X120180000Y-93170000D03*
X120180000Y-91900000D03*
%TD*%
D33*
%TO.C,C9*%
X141190000Y-119835000D03*
X142325000Y-119835000D03*
%TD*%
D20*
%TO.C,R4*%
X145170000Y-129550000D03*
X146190000Y-129550000D03*
%TD*%
D10*
%TO.C,C8*%
X147585000Y-111912500D03*
X147585000Y-113047500D03*
%TD*%
D20*
%TO.C,R9*%
X151780000Y-122500000D03*
X152800000Y-122500000D03*
%TD*%
D10*
%TO.C,C1*%
X141800000Y-125507500D03*
X141800000Y-126642500D03*
%TD*%
D34*
%TO.C,F1*%
X133600000Y-128150000D03*
X133600000Y-125350000D03*
%TD*%
D35*
%TO.C,C3*%
X127050000Y-89767500D03*
X127050000Y-88632500D03*
%TD*%
D36*
%TO.C,U2*%
X135000000Y-94860000D03*
X135000000Y-96260000D03*
X135000000Y-97660000D03*
X136400000Y-94860000D03*
X136400000Y-96260000D03*
X136400000Y-97660000D03*
X137800000Y-94860000D03*
X137800000Y-96260000D03*
X137800000Y-97660000D03*
D37*
X129150000Y-88540000D03*
X129150000Y-89810000D03*
X129150000Y-91080000D03*
X129150000Y-92350000D03*
X129150000Y-93620000D03*
X129150000Y-94890000D03*
X129150000Y-96160000D03*
X129150000Y-97430000D03*
X129150000Y-98700000D03*
X129150000Y-99970000D03*
X129150000Y-101240000D03*
X129150000Y-102510000D03*
X129150000Y-103780000D03*
X129150000Y-105050000D03*
D38*
X130915000Y-106300000D03*
X132185000Y-106300000D03*
X133455000Y-106300000D03*
X134725000Y-106300000D03*
X135995000Y-106300000D03*
X137265000Y-106300000D03*
X138535000Y-106300000D03*
X139805000Y-106300000D03*
X141075000Y-106300000D03*
X142345000Y-106300000D03*
X143615000Y-106300000D03*
X144885000Y-106300000D03*
D37*
X146650000Y-105050000D03*
X146650000Y-103780000D03*
X146650000Y-102510000D03*
X146650000Y-101240000D03*
X146650000Y-99970000D03*
X146650000Y-98700000D03*
X146650000Y-97430000D03*
X146650000Y-96160000D03*
X146650000Y-94890000D03*
X146650000Y-93620000D03*
X146650000Y-92350000D03*
X146650000Y-91080000D03*
X146650000Y-89810000D03*
X146650000Y-88540000D03*
%TD*%
D39*
%TO.C,FB1*%
X131225000Y-125387500D03*
X131225000Y-127512500D03*
%TD*%
M02*
