%TF.GenerationSoftware,KiCad,Pcbnew,9.0.4*%
%TF.CreationDate,2025-12-07T12:20:53+01:00*%
%TF.ProjectId,ChristmasLight,43687269-7374-46d6-9173-4c696768742e,rev?*%
%TF.SameCoordinates,Original*%
%TF.FileFunction,Soldermask,Bot*%
%TF.FilePolarity,Negative*%
%FSLAX46Y46*%
G04 Gerber Fmt 4.6, Leading zero omitted, Abs format (unit mm)*
G04 Created by KiCad (PCBNEW 9.0.4) date 2025-12-07 12:20:53*
%MOMM*%
%LPD*%
G01*
G04 APERTURE LIST*
G04 Aperture macros list*
%AMRoundRect*
0 Rectangle with rounded corners*
0 $1 Rounding radius*
0 $2 $3 $4 $5 $6 $7 $8 $9 X,Y pos of 4 corners*
0 Add a 4 corners polygon primitive as box body*
4,1,4,$2,$3,$4,$5,$6,$7,$8,$9,$2,$3,0*
0 Add four circle primitives for the rounded corners*
1,1,$1+$1,$2,$3*
1,1,$1+$1,$4,$5*
1,1,$1+$1,$6,$7*
1,1,$1+$1,$8,$9*
0 Add four rect primitives between the rounded corners*
20,1,$1+$1,$2,$3,$4,$5,0*
20,1,$1+$1,$4,$5,$6,$7,0*
20,1,$1+$1,$6,$7,$8,$9,0*
20,1,$1+$1,$8,$9,$2,$3,0*%
G04 Aperture macros list end*
%ADD10O,1.200000X1.750000*%
%ADD11RoundRect,0.250000X-0.350000X-0.625000X0.350000X-0.625000X0.350000X0.625000X-0.350000X0.625000X0*%
%ADD12C,2.100000*%
%ADD13C,1.750000*%
%ADD14R,1.700000X1.700000*%
%ADD15C,1.700000*%
%ADD16C,3.200000*%
%ADD17RoundRect,0.250000X-0.625000X0.350000X-0.625000X-0.350000X0.625000X-0.350000X0.625000X0.350000X0*%
%ADD18O,1.750000X1.200000*%
%ADD19C,0.650000*%
%ADD20O,1.000000X2.100000*%
%ADD21O,1.000000X1.600000*%
G04 APERTURE END LIST*
D10*
%TO.C,J9*%
X199830000Y-128620000D03*
X197830000Y-128620000D03*
D11*
X195830000Y-128620000D03*
%TD*%
D10*
%TO.C,J6*%
X200430000Y-98390000D03*
X198430000Y-98390000D03*
D11*
X196430000Y-98390000D03*
%TD*%
D12*
%TO.C,SW3*%
X157647500Y-103875000D03*
X157647500Y-110885000D03*
D13*
X160137500Y-105125000D03*
X160137500Y-109625000D03*
%TD*%
D14*
%TO.C,J5*%
X131330000Y-121660000D03*
D15*
X131330000Y-119120000D03*
X131330000Y-116580000D03*
X131330000Y-114040000D03*
%TD*%
D14*
%TO.C,J2*%
X120125000Y-109995000D03*
D15*
X122665000Y-109995000D03*
X120125000Y-112535000D03*
X122665000Y-112535000D03*
X120125000Y-115075000D03*
X122665000Y-115075000D03*
X120125000Y-117615000D03*
X122665000Y-117615000D03*
X120125000Y-120155000D03*
X122665000Y-120155000D03*
%TD*%
D16*
%TO.C,H3*%
X158970000Y-90810000D03*
%TD*%
D17*
%TO.C,J8*%
X159970000Y-130430000D03*
D18*
X159970000Y-132430000D03*
X159970000Y-134430000D03*
%TD*%
D19*
%TO.C,J1*%
X135110000Y-132300000D03*
X140890000Y-132300000D03*
D20*
X133680000Y-131770000D03*
D21*
X133680000Y-135950000D03*
D20*
X142320000Y-131770000D03*
D21*
X142320000Y-135950000D03*
%TD*%
D14*
%TO.C,J3*%
X152860000Y-98600000D03*
D15*
X152860000Y-96060000D03*
X155400000Y-98600000D03*
X155400000Y-96060000D03*
X157940000Y-98600000D03*
X157940000Y-96060000D03*
%TD*%
D11*
%TO.C,J7*%
X116070000Y-104490000D03*
D10*
X118070000Y-104490000D03*
X120070000Y-104490000D03*
%TD*%
D16*
%TO.C,H3*%
X117350000Y-132580000D03*
%TD*%
M02*
