%TF.GenerationSoftware,KiCad,Pcbnew,9.0.4*%
%TF.CreationDate,2025-12-07T12:20:52+01:00*%
%TF.ProjectId,ChristmasLight,43687269-7374-46d6-9173-4c696768742e,rev?*%
%TF.SameCoordinates,Original*%
%TF.FileFunction,Copper,L2,Inr*%
%TF.FilePolarity,Positive*%
%FSLAX46Y46*%
G04 Gerber Fmt 4.6, Leading zero omitted, Abs format (unit mm)*
G04 Created by KiCad (PCBNEW 9.0.4) date 2025-12-07 12:20:52*
%MOMM*%
%LPD*%
G01*
G04 APERTURE LIST*
G04 Aperture macros list*
%AMRoundRect*
0 Rectangle with rounded corners*
0 $1 Rounding radius*
0 $2 $3 $4 $5 $6 $7 $8 $9 X,Y pos of 4 corners*
0 Add a 4 corners polygon primitive as box body*
4,1,4,$2,$3,$4,$5,$6,$7,$8,$9,$2,$3,0*
0 Add four circle primitives for the rounded corners*
1,1,$1+$1,$2,$3*
1,1,$1+$1,$4,$5*
1,1,$1+$1,$6,$7*
1,1,$1+$1,$8,$9*
0 Add four rect primitives between the rounded corners*
20,1,$1+$1,$2,$3,$4,$5,0*
20,1,$1+$1,$4,$5,$6,$7,0*
20,1,$1+$1,$6,$7,$8,$9,0*
20,1,$1+$1,$8,$9,$2,$3,0*%
G04 Aperture macros list end*
%TA.AperFunction,ComponentPad*%
%ADD10O,1.200000X1.750000*%
%TD*%
%TA.AperFunction,ComponentPad*%
%ADD11RoundRect,0.250000X-0.350000X-0.625000X0.350000X-0.625000X0.350000X0.625000X-0.350000X0.625000X0*%
%TD*%
%TA.AperFunction,ComponentPad*%
%ADD12C,2.100000*%
%TD*%
%TA.AperFunction,ComponentPad*%
%ADD13C,1.750000*%
%TD*%
%TA.AperFunction,ComponentPad*%
%ADD14R,1.700000X1.700000*%
%TD*%
%TA.AperFunction,ComponentPad*%
%ADD15C,1.700000*%
%TD*%
%TA.AperFunction,ComponentPad*%
%ADD16RoundRect,0.250000X-0.625000X0.350000X-0.625000X-0.350000X0.625000X-0.350000X0.625000X0.350000X0*%
%TD*%
%TA.AperFunction,ComponentPad*%
%ADD17O,1.750000X1.200000*%
%TD*%
%TA.AperFunction,HeatsinkPad*%
%ADD18O,1.000000X2.100000*%
%TD*%
%TA.AperFunction,HeatsinkPad*%
%ADD19O,1.000000X1.600000*%
%TD*%
%TA.AperFunction,HeatsinkPad*%
%ADD20C,0.600000*%
%TD*%
%TA.AperFunction,ViaPad*%
%ADD21C,0.600000*%
%TD*%
%TA.AperFunction,Conductor*%
%ADD22C,0.400000*%
%TD*%
G04 APERTURE END LIST*
D10*
%TO.N,GND*%
%TO.C,J9*%
X199830000Y-128620000D03*
%TO.N,/DIN*%
X197830000Y-128620000D03*
D11*
%TO.N,5V*%
X195830000Y-128620000D03*
%TD*%
D10*
%TO.N,GND*%
%TO.C,J6*%
X200430000Y-98390000D03*
%TO.N,/DOUT*%
X198430000Y-98390000D03*
D11*
%TO.N,5V*%
X196430000Y-98390000D03*
%TD*%
D12*
%TO.N,*%
%TO.C,SW3*%
X157647500Y-103875000D03*
X157647500Y-110885000D03*
D13*
%TO.N,GND*%
X160137500Y-105125000D03*
%TO.N,/USER_SW*%
X160137500Y-109625000D03*
%TD*%
D14*
%TO.N,GND*%
%TO.C,J5*%
X131330000Y-121660000D03*
D15*
%TO.N,/VIN-*%
X131330000Y-119120000D03*
%TO.N,/DouT*%
X131330000Y-116580000D03*
%TO.N,/DiN*%
X131330000Y-114040000D03*
%TD*%
D14*
%TO.N,+3V3*%
%TO.C,J2*%
X120125000Y-109995000D03*
D15*
X122665000Y-109995000D03*
%TO.N,/RESET*%
X120125000Y-112535000D03*
%TO.N,/CS*%
X122665000Y-112535000D03*
%TO.N,/MOSI*%
X120125000Y-115075000D03*
%TO.N,/CLK*%
X122665000Y-115075000D03*
%TO.N,/MISO*%
X120125000Y-117615000D03*
%TO.N,/IRQ*%
X122665000Y-117615000D03*
%TO.N,GND*%
X120125000Y-120155000D03*
X122665000Y-120155000D03*
%TD*%
D16*
%TO.N,+5V*%
%TO.C,J8*%
X159970000Y-130430000D03*
D17*
%TO.N,/LED_DATA_OUT2*%
X159970000Y-132430000D03*
%TO.N,GND*%
X159970000Y-134430000D03*
%TD*%
D18*
%TO.N,GND*%
%TO.C,J1*%
X133680000Y-131770000D03*
D19*
X133680000Y-135950000D03*
D18*
X142320000Y-131770000D03*
D19*
X142320000Y-135950000D03*
%TD*%
D14*
%TO.N,/ESP_EN*%
%TO.C,J3*%
X152860000Y-98600000D03*
D15*
%TO.N,+3V3*%
X152860000Y-96060000D03*
%TO.N,/ESP_TXD*%
X155400000Y-98600000D03*
%TO.N,GND*%
X155400000Y-96060000D03*
%TO.N,/ESP_RXD*%
X157940000Y-98600000D03*
%TO.N,/ESP_IO0*%
X157940000Y-96060000D03*
%TD*%
D11*
%TO.N,+5V*%
%TO.C,J7*%
X116070000Y-104490000D03*
D10*
%TO.N,/LED_DATA_OUT*%
X118070000Y-104490000D03*
%TO.N,GND*%
X120070000Y-104490000D03*
%TD*%
D20*
%TO.N,GND*%
%TO.C,U2*%
X135000000Y-95560000D03*
X135000000Y-96960000D03*
X135700000Y-94860000D03*
X135700000Y-96260000D03*
X135700000Y-97660000D03*
X136400000Y-95560000D03*
X136400000Y-96960000D03*
X137100000Y-94860000D03*
X137100000Y-96260000D03*
X137100000Y-97660000D03*
X137800000Y-95560000D03*
X137800000Y-96960000D03*
%TD*%
D21*
%TO.N,+5V*%
X141800000Y-124550000D03*
X131250000Y-131800000D03*
%TO.N,GND*%
X154100000Y-103790000D03*
X161250000Y-96050000D03*
X155550000Y-113170000D03*
X148670000Y-106430000D03*
X127025000Y-87800000D03*
X143000000Y-88000000D03*
X161780000Y-120420000D03*
X123850000Y-88200000D03*
X127880000Y-126620000D03*
X139000000Y-88000000D03*
X135000000Y-88000000D03*
X131000000Y-93000000D03*
X161650000Y-117200000D03*
X126790000Y-99140000D03*
X154400000Y-110600000D03*
X154000000Y-88000000D03*
X146180000Y-127125000D03*
X116512500Y-126765000D03*
X138000000Y-127800000D03*
X120000000Y-88000000D03*
X131000000Y-88000000D03*
X124220000Y-127380000D03*
X150420000Y-102100000D03*
X129300000Y-108010000D03*
X137000000Y-88000000D03*
X161650000Y-123950000D03*
X155500000Y-118900000D03*
X123000000Y-88000000D03*
X116760000Y-121970000D03*
X114670000Y-107230000D03*
X155300000Y-107100000D03*
X151130000Y-90640000D03*
X142110000Y-111930000D03*
X119470000Y-128420000D03*
X131000000Y-100000000D03*
X143880000Y-91920000D03*
X141200000Y-97830000D03*
X160170000Y-101270000D03*
X141250000Y-129700000D03*
X140514893Y-120767106D03*
X121990000Y-134820000D03*
X135230000Y-134730000D03*
X123070000Y-107170000D03*
X122000000Y-92000000D03*
X135940000Y-101390000D03*
X146180000Y-130425000D03*
X161100000Y-128140000D03*
X148000000Y-88000000D03*
X145000000Y-88000000D03*
X134750000Y-129700000D03*
X122000000Y-88000000D03*
X147585000Y-114180000D03*
X141000000Y-88000000D03*
X129370000Y-115800000D03*
X156000000Y-88000000D03*
X117990000Y-106800000D03*
X153900000Y-118750000D03*
X152000000Y-88000000D03*
X133000000Y-88000000D03*
X150000000Y-88000000D03*
X148420000Y-103830000D03*
%TO.N,+3V3*%
X123850000Y-133200000D03*
X125150000Y-90800000D03*
X136070000Y-122630000D03*
X149850000Y-108050000D03*
X147585000Y-111030000D03*
X146500000Y-122500000D03*
X125200000Y-100325000D03*
X120012500Y-123665000D03*
X152700000Y-113850000D03*
X123700000Y-96000000D03*
%TO.N,/ESP_EN*%
X151700000Y-115850000D03*
X142300000Y-94000000D03*
%TO.N,/USER_SW*%
X150900000Y-108150000D03*
X146650000Y-108900000D03*
%TO.N,Net-(F1-Pad1)*%
X140425000Y-129275000D03*
X135550000Y-129275000D03*
%TO.N,/CC1*%
X144180000Y-128075000D03*
X136750000Y-132875000D03*
%TO.N,/RESET*%
X139800000Y-104600000D03*
X129700000Y-112280000D03*
%TO.N,/MISO*%
X138525000Y-104575000D03*
%TO.N,/CS*%
X134725000Y-104475000D03*
%TO.N,/IRQ*%
X127575000Y-97450000D03*
%TO.N,/MOSI*%
X135975000Y-104525000D03*
%TO.N,/CLK*%
X137265000Y-104585000D03*
%TO.N,/ESP_RXD*%
X152200000Y-93600000D03*
%TO.N,/SDA*%
X137350000Y-115314972D03*
X125875000Y-102500000D03*
X140345000Y-112325000D03*
X143180000Y-109250000D03*
%TO.N,/SCL*%
X145124000Y-108760000D03*
X133455000Y-102425000D03*
X127100000Y-101350000D03*
%TO.N,Net-(U2-GPIO3)*%
X126925000Y-96000000D03*
X134000000Y-100950000D03*
%TO.N,/R_LED*%
X144800000Y-122700000D03*
X144650000Y-98700000D03*
%TO.N,/G_LED*%
X144450000Y-97400000D03*
X151240000Y-124900000D03*
%TO.N,/B_LED*%
X144160000Y-96160000D03*
X152800000Y-121350000D03*
%TO.N,/DiN*%
X138962714Y-111527286D03*
%TO.N,/DouT*%
X141680000Y-109830000D03*
%TO.N,/VIN-*%
X143280000Y-117820000D03*
%TO.N,/IO6*%
X122630000Y-94950000D03*
X147390000Y-127210000D03*
%TD*%
D22*
%TO.N,+5V*%
X136700000Y-107670000D02*
X144670000Y-115640000D01*
X116070000Y-104490000D02*
X117679000Y-106099000D01*
X129951364Y-107670000D02*
X136700000Y-107670000D01*
X128380364Y-106099000D02*
X129951364Y-107670000D01*
X144670000Y-121680000D02*
X141800000Y-124550000D01*
X144670000Y-115640000D02*
X144670000Y-121680000D01*
X117679000Y-106099000D02*
X128380364Y-106099000D01*
%TO.N,/VIN-*%
X143280000Y-117820000D02*
X141570000Y-119530000D01*
X141570000Y-119530000D02*
X132570000Y-119530000D01*
X132160000Y-119120000D02*
X131330000Y-119120000D01*
X132570000Y-119530000D02*
X132160000Y-119120000D01*
%TD*%
%TA.AperFunction,Conductor*%
%TO.N,GND*%
G36*
X121466444Y-118268999D02*
G01*
X121505486Y-118314056D01*
X121509951Y-118322820D01*
X121634890Y-118494786D01*
X121785213Y-118645109D01*
X121957179Y-118770048D01*
X121957181Y-118770049D01*
X121957184Y-118770051D01*
X121966493Y-118774794D01*
X122017290Y-118822766D01*
X122034087Y-118890587D01*
X122011552Y-118956722D01*
X121966505Y-118995760D01*
X121957446Y-119000376D01*
X121957440Y-119000380D01*
X121903282Y-119039727D01*
X121903282Y-119039728D01*
X122535591Y-119672037D01*
X122472007Y-119689075D01*
X122357993Y-119754901D01*
X122264901Y-119847993D01*
X122199075Y-119962007D01*
X122182037Y-120025591D01*
X121549728Y-119393282D01*
X121549727Y-119393282D01*
X121510380Y-119447440D01*
X121505483Y-119457051D01*
X121457506Y-119507845D01*
X121389684Y-119524638D01*
X121323550Y-119502098D01*
X121284516Y-119457048D01*
X121279626Y-119447452D01*
X121240270Y-119393282D01*
X121240269Y-119393282D01*
X120607962Y-120025590D01*
X120590925Y-119962007D01*
X120525099Y-119847993D01*
X120432007Y-119754901D01*
X120317993Y-119689075D01*
X120254409Y-119672037D01*
X120886716Y-119039728D01*
X120832547Y-119000373D01*
X120832547Y-119000372D01*
X120823500Y-118995763D01*
X120772706Y-118947788D01*
X120755912Y-118879966D01*
X120778451Y-118813832D01*
X120823508Y-118774793D01*
X120832816Y-118770051D01*
X120912007Y-118712515D01*
X121004786Y-118645109D01*
X121004788Y-118645106D01*
X121004792Y-118645104D01*
X121155104Y-118494792D01*
X121155106Y-118494788D01*
X121155109Y-118494786D01*
X121280048Y-118322820D01*
X121280047Y-118322820D01*
X121280051Y-118322816D01*
X121284514Y-118314054D01*
X121332488Y-118263259D01*
X121400308Y-118246463D01*
X121466444Y-118268999D01*
G37*
%TD.AperFunction*%
%TA.AperFunction,Conductor*%
G36*
X156515270Y-96821717D02*
G01*
X156515270Y-96821716D01*
X156554622Y-96767555D01*
X156559232Y-96758507D01*
X156607205Y-96707709D01*
X156675025Y-96690912D01*
X156741161Y-96713447D01*
X156780204Y-96758504D01*
X156784949Y-96767817D01*
X156909890Y-96939786D01*
X157060213Y-97090109D01*
X157232182Y-97215050D01*
X157240946Y-97219516D01*
X157291742Y-97267491D01*
X157308536Y-97335312D01*
X157285998Y-97401447D01*
X157240946Y-97440484D01*
X157232182Y-97444949D01*
X157060213Y-97569890D01*
X156909890Y-97720213D01*
X156784949Y-97892182D01*
X156780484Y-97900946D01*
X156732509Y-97951742D01*
X156664688Y-97968536D01*
X156598553Y-97945998D01*
X156559516Y-97900946D01*
X156555050Y-97892182D01*
X156430109Y-97720213D01*
X156279786Y-97569890D01*
X156107817Y-97444949D01*
X156098504Y-97440204D01*
X156047707Y-97392230D01*
X156030912Y-97324409D01*
X156053449Y-97258274D01*
X156098507Y-97219232D01*
X156107555Y-97214622D01*
X156161716Y-97175270D01*
X156161717Y-97175270D01*
X155529408Y-96542962D01*
X155592993Y-96525925D01*
X155707007Y-96460099D01*
X155800099Y-96367007D01*
X155865925Y-96252993D01*
X155882962Y-96189408D01*
X156515270Y-96821717D01*
G37*
%TD.AperFunction*%
%TA.AperFunction,Conductor*%
G36*
X154934075Y-96252993D02*
G01*
X154999901Y-96367007D01*
X155092993Y-96460099D01*
X155207007Y-96525925D01*
X155270590Y-96542962D01*
X154638282Y-97175269D01*
X154638282Y-97175270D01*
X154692452Y-97214626D01*
X154692451Y-97214626D01*
X154701495Y-97219234D01*
X154752292Y-97267208D01*
X154769087Y-97335029D01*
X154746550Y-97401164D01*
X154701499Y-97440202D01*
X154692182Y-97444949D01*
X154520215Y-97569889D01*
X154406673Y-97683431D01*
X154345350Y-97716915D01*
X154275658Y-97711931D01*
X154219725Y-97670059D01*
X154202810Y-97639082D01*
X154153797Y-97507671D01*
X154153793Y-97507664D01*
X154067547Y-97392455D01*
X154067544Y-97392452D01*
X153952335Y-97306206D01*
X153952328Y-97306202D01*
X153820917Y-97257189D01*
X153764983Y-97215318D01*
X153740566Y-97149853D01*
X153755418Y-97081580D01*
X153776563Y-97053332D01*
X153890104Y-96939792D01*
X154015051Y-96767816D01*
X154019793Y-96758508D01*
X154067763Y-96707711D01*
X154135583Y-96690911D01*
X154201719Y-96713445D01*
X154240763Y-96758500D01*
X154245373Y-96767547D01*
X154284728Y-96821716D01*
X154917037Y-96189408D01*
X154934075Y-96252993D01*
G37*
%TD.AperFunction*%
%TA.AperFunction,Conductor*%
G36*
X163062539Y-87420185D02*
G01*
X163108294Y-87472989D01*
X163119500Y-87524500D01*
X163119500Y-137185500D01*
X163099815Y-137252539D01*
X163047011Y-137298294D01*
X162995500Y-137309500D01*
X142943073Y-137309500D01*
X142876034Y-137289815D01*
X142830279Y-137237011D01*
X142820335Y-137167853D01*
X142849360Y-137104297D01*
X142874182Y-137082398D01*
X142957462Y-137026751D01*
X142957466Y-137026748D01*
X143096748Y-136887466D01*
X143096751Y-136887462D01*
X143206185Y-136723684D01*
X143206192Y-136723671D01*
X143281569Y-136541693D01*
X143281572Y-136541681D01*
X143319999Y-136348495D01*
X143320000Y-136348492D01*
X143320000Y-136200000D01*
X142620000Y-136200000D01*
X142620000Y-135700000D01*
X143320000Y-135700000D01*
X143320000Y-135551508D01*
X143319999Y-135551504D01*
X143281572Y-135358318D01*
X143281569Y-135358306D01*
X143206192Y-135176328D01*
X143206185Y-135176315D01*
X143096751Y-135012537D01*
X143096748Y-135012533D01*
X142957466Y-134873251D01*
X142957462Y-134873248D01*
X142793684Y-134763814D01*
X142793674Y-134763809D01*
X142778433Y-134757496D01*
X142778431Y-134757495D01*
X142611691Y-134688429D01*
X142611683Y-134688427D01*
X142570000Y-134680135D01*
X142570000Y-135483011D01*
X142560060Y-135465795D01*
X142504205Y-135409940D01*
X142435796Y-135370444D01*
X142359496Y-135350000D01*
X142280504Y-135350000D01*
X142204204Y-135370444D01*
X142135795Y-135409940D01*
X142079940Y-135465795D01*
X142070000Y-135483011D01*
X142070000Y-134680136D01*
X142069999Y-134680135D01*
X142028316Y-134688427D01*
X142028308Y-134688429D01*
X141846328Y-134763807D01*
X141846315Y-134763814D01*
X141682537Y-134873248D01*
X141682533Y-134873251D01*
X141543251Y-135012533D01*
X141543248Y-135012537D01*
X141433814Y-135176315D01*
X141433807Y-135176328D01*
X141358430Y-135358306D01*
X141358427Y-135358318D01*
X141320000Y-135551504D01*
X141320000Y-135700000D01*
X142020000Y-135700000D01*
X142020000Y-136200000D01*
X141320000Y-136200000D01*
X141320000Y-136348495D01*
X141358427Y-136541681D01*
X141358430Y-136541693D01*
X141433807Y-136723671D01*
X141433814Y-136723684D01*
X141543248Y-136887462D01*
X141543251Y-136887466D01*
X141682533Y-137026748D01*
X141682537Y-137026751D01*
X141765818Y-137082398D01*
X141810623Y-137136010D01*
X141819330Y-137205335D01*
X141789176Y-137268363D01*
X141729733Y-137305082D01*
X141696927Y-137309500D01*
X134303073Y-137309500D01*
X134236034Y-137289815D01*
X134190279Y-137237011D01*
X134180335Y-137167853D01*
X134209360Y-137104297D01*
X134234182Y-137082398D01*
X134317462Y-137026751D01*
X134317466Y-137026748D01*
X134456748Y-136887466D01*
X134456751Y-136887462D01*
X134566185Y-136723684D01*
X134566192Y-136723671D01*
X134641569Y-136541693D01*
X134641572Y-136541681D01*
X134679999Y-136348495D01*
X134680000Y-136348492D01*
X134680000Y-136200000D01*
X133980000Y-136200000D01*
X133980000Y-135700000D01*
X134680000Y-135700000D01*
X134680000Y-135551508D01*
X134679999Y-135551504D01*
X134641572Y-135358318D01*
X134641569Y-135358306D01*
X134566192Y-135176328D01*
X134566185Y-135176315D01*
X134456751Y-135012537D01*
X134456748Y-135012533D01*
X134317466Y-134873251D01*
X134317462Y-134873248D01*
X134153684Y-134763814D01*
X134153671Y-134763807D01*
X133971691Y-134688429D01*
X133971683Y-134688427D01*
X133930000Y-134680135D01*
X133930000Y-135483011D01*
X133920060Y-135465795D01*
X133864205Y-135409940D01*
X133795796Y-135370444D01*
X133719496Y-135350000D01*
X133640504Y-135350000D01*
X133564204Y-135370444D01*
X133495795Y-135409940D01*
X133439940Y-135465795D01*
X133430000Y-135483011D01*
X133430000Y-134680136D01*
X133429999Y-134680135D01*
X133388316Y-134688427D01*
X133388308Y-134688429D01*
X133206328Y-134763807D01*
X133206315Y-134763814D01*
X133042537Y-134873248D01*
X133042533Y-134873251D01*
X132903251Y-135012533D01*
X132903248Y-135012537D01*
X132793814Y-135176315D01*
X132793807Y-135176328D01*
X132718430Y-135358306D01*
X132718427Y-135358318D01*
X132680000Y-135551504D01*
X132680000Y-135700000D01*
X133380000Y-135700000D01*
X133380000Y-136200000D01*
X132680000Y-136200000D01*
X132680000Y-136348495D01*
X132718427Y-136541681D01*
X132718430Y-136541693D01*
X132793807Y-136723671D01*
X132793814Y-136723684D01*
X132903248Y-136887462D01*
X132903251Y-136887466D01*
X133042533Y-137026748D01*
X133042537Y-137026751D01*
X133125818Y-137082398D01*
X133170623Y-137136010D01*
X133179330Y-137205335D01*
X133149176Y-137268363D01*
X133089733Y-137305082D01*
X133056927Y-137309500D01*
X113784500Y-137309500D01*
X113717461Y-137289815D01*
X113671706Y-137237011D01*
X113660500Y-137185500D01*
X113660500Y-132458711D01*
X115499500Y-132458711D01*
X115499500Y-132701288D01*
X115531161Y-132941785D01*
X115593947Y-133176104D01*
X115663446Y-133343889D01*
X115686776Y-133400212D01*
X115808064Y-133610289D01*
X115808066Y-133610292D01*
X115808067Y-133610293D01*
X115955733Y-133802736D01*
X115955739Y-133802743D01*
X116127256Y-133974260D01*
X116127262Y-133974265D01*
X116319711Y-134121936D01*
X116529788Y-134243224D01*
X116753900Y-134336054D01*
X116988211Y-134398838D01*
X117168586Y-134422584D01*
X117228711Y-134430500D01*
X117228712Y-134430500D01*
X117471289Y-134430500D01*
X117519388Y-134424167D01*
X117711789Y-134398838D01*
X117946100Y-134336054D01*
X118170212Y-134243224D01*
X118380289Y-134121936D01*
X118572738Y-133974265D01*
X118744265Y-133802738D01*
X118891936Y-133610289D01*
X119013224Y-133400212D01*
X119106054Y-133176100D01*
X119120777Y-133121153D01*
X123049500Y-133121153D01*
X123049500Y-133278846D01*
X123080261Y-133433489D01*
X123080264Y-133433501D01*
X123140602Y-133579172D01*
X123140609Y-133579185D01*
X123228210Y-133710288D01*
X123228213Y-133710292D01*
X123339707Y-133821786D01*
X123339711Y-133821789D01*
X123470814Y-133909390D01*
X123470827Y-133909397D01*
X123616498Y-133969735D01*
X123616503Y-133969737D01*
X123771153Y-134000499D01*
X123771156Y-134000500D01*
X123771158Y-134000500D01*
X123928844Y-134000500D01*
X123928845Y-134000499D01*
X124083497Y-133969737D01*
X124229179Y-133909394D01*
X124360289Y-133821789D01*
X124471789Y-133710289D01*
X124559394Y-133579179D01*
X124619737Y-133433497D01*
X124650500Y-133278842D01*
X124650500Y-133121158D01*
X124650500Y-133121155D01*
X124650499Y-133121153D01*
X124645645Y-133096751D01*
X124619737Y-132966503D01*
X124582043Y-132875500D01*
X124559397Y-132820827D01*
X124559390Y-132820814D01*
X124471789Y-132689711D01*
X124471786Y-132689707D01*
X124360292Y-132578213D01*
X124360288Y-132578210D01*
X124229185Y-132490609D01*
X124229172Y-132490602D01*
X124083501Y-132430264D01*
X124083489Y-132430261D01*
X123928845Y-132399500D01*
X123928842Y-132399500D01*
X123771158Y-132399500D01*
X123771155Y-132399500D01*
X123616510Y-132430261D01*
X123616498Y-132430264D01*
X123470827Y-132490602D01*
X123470814Y-132490609D01*
X123339711Y-132578210D01*
X123339707Y-132578213D01*
X123228213Y-132689707D01*
X123228210Y-132689711D01*
X123140609Y-132820814D01*
X123140602Y-132820827D01*
X123080264Y-132966498D01*
X123080261Y-132966510D01*
X123049500Y-133121153D01*
X119120777Y-133121153D01*
X119168838Y-132941789D01*
X119200500Y-132701288D01*
X119200500Y-132458712D01*
X119168838Y-132218211D01*
X119106054Y-131983900D01*
X119090620Y-131946638D01*
X119014356Y-131762518D01*
X119013229Y-131759799D01*
X119013226Y-131759793D01*
X119013224Y-131759788D01*
X118990918Y-131721153D01*
X130449500Y-131721153D01*
X130449500Y-131878846D01*
X130480261Y-132033489D01*
X130480264Y-132033501D01*
X130540602Y-132179172D01*
X130540609Y-132179185D01*
X130628210Y-132310288D01*
X130628213Y-132310292D01*
X130739707Y-132421786D01*
X130739711Y-132421789D01*
X130870814Y-132509390D01*
X130870827Y-132509397D01*
X130993140Y-132560060D01*
X131016503Y-132569737D01*
X131166412Y-132599556D01*
X131171153Y-132600499D01*
X131171156Y-132600500D01*
X131171158Y-132600500D01*
X131328844Y-132600500D01*
X131328845Y-132600499D01*
X131483497Y-132569737D01*
X131598419Y-132522135D01*
X131629172Y-132509397D01*
X131629172Y-132509396D01*
X131629179Y-132509394D01*
X131760289Y-132421789D01*
X131871789Y-132310289D01*
X131959394Y-132179179D01*
X132019737Y-132033497D01*
X132029604Y-131983892D01*
X132037451Y-131944446D01*
X132037451Y-131944445D01*
X132050499Y-131878846D01*
X132050500Y-131878844D01*
X132050500Y-131721155D01*
X132050499Y-131721153D01*
X132027500Y-131605530D01*
X132019737Y-131566503D01*
X131981635Y-131474515D01*
X131959397Y-131420827D01*
X131959390Y-131420814D01*
X131871789Y-131289711D01*
X131871786Y-131289707D01*
X131760292Y-131178213D01*
X131760288Y-131178210D01*
X131675422Y-131121504D01*
X132680000Y-131121504D01*
X132680000Y-131520000D01*
X133380000Y-131520000D01*
X133380000Y-132020000D01*
X132680000Y-132020000D01*
X132680000Y-132418495D01*
X132718427Y-132611681D01*
X132718430Y-132611693D01*
X132793807Y-132793671D01*
X132793814Y-132793684D01*
X132903248Y-132957462D01*
X132903251Y-132957466D01*
X133042533Y-133096748D01*
X133042537Y-133096751D01*
X133206315Y-133206185D01*
X133206328Y-133206192D01*
X133388308Y-133281569D01*
X133430000Y-133289862D01*
X133430000Y-132486988D01*
X133439940Y-132504205D01*
X133495795Y-132560060D01*
X133564204Y-132599556D01*
X133640504Y-132620000D01*
X133719496Y-132620000D01*
X133795796Y-132599556D01*
X133864205Y-132560060D01*
X133920060Y-132504205D01*
X133930000Y-132486988D01*
X133930000Y-133289862D01*
X133971690Y-133281569D01*
X133971692Y-133281569D01*
X134153671Y-133206192D01*
X134153684Y-133206185D01*
X134317462Y-133096751D01*
X134317466Y-133096748D01*
X134456748Y-132957466D01*
X134456751Y-132957462D01*
X134569574Y-132788613D01*
X134571007Y-132789570D01*
X134614198Y-132745580D01*
X134682332Y-132730103D01*
X134748018Y-132753919D01*
X134750089Y-132755697D01*
X134750189Y-132755568D01*
X134756630Y-132760510D01*
X134756635Y-132760515D01*
X134887865Y-132836281D01*
X135034234Y-132875500D01*
X135034236Y-132875500D01*
X135185764Y-132875500D01*
X135185766Y-132875500D01*
X135332135Y-132836281D01*
X135401638Y-132796153D01*
X135949500Y-132796153D01*
X135949500Y-132953846D01*
X135980261Y-133108489D01*
X135980264Y-133108501D01*
X136040602Y-133254172D01*
X136040609Y-133254185D01*
X136128210Y-133385288D01*
X136128213Y-133385292D01*
X136239707Y-133496786D01*
X136239711Y-133496789D01*
X136370814Y-133584390D01*
X136370827Y-133584397D01*
X136516498Y-133644735D01*
X136516503Y-133644737D01*
X136671153Y-133675499D01*
X136671156Y-133675500D01*
X136671158Y-133675500D01*
X136828844Y-133675500D01*
X136828845Y-133675499D01*
X136983497Y-133644737D01*
X137129179Y-133584394D01*
X137260289Y-133496789D01*
X137371789Y-133385289D01*
X137459394Y-133254179D01*
X137519737Y-133108497D01*
X137550500Y-132953842D01*
X137550500Y-132796158D01*
X137550500Y-132796155D01*
X137550499Y-132796153D01*
X137543410Y-132760514D01*
X137519737Y-132641503D01*
X137510830Y-132620000D01*
X137459397Y-132495827D01*
X137459390Y-132495814D01*
X137371789Y-132364711D01*
X137371786Y-132364707D01*
X137260292Y-132253213D01*
X137260288Y-132253210D01*
X137216923Y-132224234D01*
X140314500Y-132224234D01*
X140314500Y-132375766D01*
X140325948Y-132418492D01*
X140353719Y-132522136D01*
X140375615Y-132560060D01*
X140429485Y-132653365D01*
X140536635Y-132760515D01*
X140667865Y-132836281D01*
X140814234Y-132875500D01*
X140814236Y-132875500D01*
X140965764Y-132875500D01*
X140965766Y-132875500D01*
X141112135Y-132836281D01*
X141243365Y-132760515D01*
X141243372Y-132760507D01*
X141249811Y-132755568D01*
X141252044Y-132758478D01*
X141298258Y-132732865D01*
X141367980Y-132737411D01*
X141424176Y-132778930D01*
X141430394Y-132788634D01*
X141430426Y-132788613D01*
X141543248Y-132957462D01*
X141543251Y-132957466D01*
X141682533Y-133096748D01*
X141682537Y-133096751D01*
X141846315Y-133206185D01*
X141846328Y-133206192D01*
X142028308Y-133281569D01*
X142070000Y-133289862D01*
X142070000Y-132486988D01*
X142079940Y-132504205D01*
X142135795Y-132560060D01*
X142204204Y-132599556D01*
X142280504Y-132620000D01*
X142359496Y-132620000D01*
X142435796Y-132599556D01*
X142504205Y-132560060D01*
X142560060Y-132504205D01*
X142570000Y-132486988D01*
X142570000Y-133289862D01*
X142611690Y-133281569D01*
X142611692Y-133281569D01*
X142793671Y-133206192D01*
X142793684Y-133206185D01*
X142957462Y-133096751D01*
X142957466Y-133096748D01*
X143096748Y-132957466D01*
X143096751Y-132957462D01*
X143206185Y-132793684D01*
X143206192Y-132793671D01*
X143281569Y-132611693D01*
X143281572Y-132611681D01*
X143319999Y-132418495D01*
X143320000Y-132418492D01*
X143320000Y-132020000D01*
X142620000Y-132020000D01*
X142620000Y-131520000D01*
X143320000Y-131520000D01*
X143320000Y-131121508D01*
X143319999Y-131121504D01*
X143281572Y-130928318D01*
X143281569Y-130928306D01*
X143206192Y-130746328D01*
X143206185Y-130746315D01*
X143096751Y-130582537D01*
X143096748Y-130582533D01*
X142957466Y-130443251D01*
X142957462Y-130443248D01*
X142793684Y-130333814D01*
X142793671Y-130333807D01*
X142611691Y-130258429D01*
X142611683Y-130258427D01*
X142570000Y-130250135D01*
X142570000Y-131053011D01*
X142560060Y-131035795D01*
X142504205Y-130979940D01*
X142435796Y-130940444D01*
X142359496Y-130920000D01*
X142280504Y-130920000D01*
X142204204Y-130940444D01*
X142135795Y-130979940D01*
X142079940Y-131035795D01*
X142070000Y-131053011D01*
X142070000Y-130250136D01*
X142069999Y-130250135D01*
X142028316Y-130258427D01*
X142028308Y-130258429D01*
X141846328Y-130333807D01*
X141846315Y-130333814D01*
X141682537Y-130443248D01*
X141682533Y-130443251D01*
X141543251Y-130582533D01*
X141543248Y-130582537D01*
X141433814Y-130746315D01*
X141433807Y-130746328D01*
X141358430Y-130928306D01*
X141358427Y-130928318D01*
X141320000Y-131121504D01*
X141320000Y-131520000D01*
X142020000Y-131520000D01*
X142020000Y-132020000D01*
X141464464Y-132020000D01*
X141397425Y-132000315D01*
X141357077Y-131958000D01*
X141350517Y-131946638D01*
X141350513Y-131946633D01*
X141243367Y-131839487D01*
X141243365Y-131839485D01*
X141177750Y-131801602D01*
X141112136Y-131763719D01*
X141038950Y-131744109D01*
X140965766Y-131724500D01*
X140814234Y-131724500D01*
X140667863Y-131763719D01*
X140536635Y-131839485D01*
X140536632Y-131839487D01*
X140429487Y-131946632D01*
X140429485Y-131946635D01*
X140353719Y-132077863D01*
X140330210Y-132165602D01*
X140314500Y-132224234D01*
X137216923Y-132224234D01*
X137129185Y-132165609D01*
X137129172Y-132165602D01*
X136983501Y-132105264D01*
X136983489Y-132105261D01*
X136828845Y-132074500D01*
X136828842Y-132074500D01*
X136671158Y-132074500D01*
X136671155Y-132074500D01*
X136516510Y-132105261D01*
X136516498Y-132105264D01*
X136370827Y-132165602D01*
X136370814Y-132165609D01*
X136239711Y-132253210D01*
X136239707Y-132253213D01*
X136128213Y-132364707D01*
X136128210Y-132364711D01*
X136040609Y-132495814D01*
X136040602Y-132495827D01*
X135980264Y-132641498D01*
X135980261Y-132641510D01*
X135949500Y-132796153D01*
X135401638Y-132796153D01*
X135463365Y-132760515D01*
X135570515Y-132653365D01*
X135646281Y-132522135D01*
X135685500Y-132375766D01*
X135685500Y-132224234D01*
X135646281Y-132077865D01*
X135570515Y-131946635D01*
X135463365Y-131839485D01*
X135397750Y-131801602D01*
X135332136Y-131763719D01*
X135258950Y-131744109D01*
X135185766Y-131724500D01*
X135034234Y-131724500D01*
X134887863Y-131763719D01*
X134756635Y-131839485D01*
X134756632Y-131839487D01*
X134649486Y-131946633D01*
X134649482Y-131946638D01*
X134642923Y-131958000D01*
X134592356Y-132006216D01*
X134535536Y-132020000D01*
X133980000Y-132020000D01*
X133980000Y-131520000D01*
X134680000Y-131520000D01*
X134680000Y-131121508D01*
X134679999Y-131121504D01*
X134641572Y-130928318D01*
X134641569Y-130928306D01*
X134566192Y-130746328D01*
X134566185Y-130746315D01*
X134456751Y-130582537D01*
X134456748Y-130582533D01*
X134317466Y-130443251D01*
X134317462Y-130443248D01*
X134153684Y-130333814D01*
X134153671Y-130333807D01*
X133971691Y-130258429D01*
X133971683Y-130258427D01*
X133930000Y-130250135D01*
X133930000Y-131053011D01*
X133920060Y-131035795D01*
X133864205Y-130979940D01*
X133795796Y-130940444D01*
X133719496Y-130920000D01*
X133640504Y-130920000D01*
X133564204Y-130940444D01*
X133495795Y-130979940D01*
X133439940Y-131035795D01*
X133430000Y-131053011D01*
X133430000Y-130250136D01*
X133429999Y-130250135D01*
X133388316Y-130258427D01*
X133388308Y-130258429D01*
X133206328Y-130333807D01*
X133206315Y-130333814D01*
X133042537Y-130443248D01*
X133042533Y-130443251D01*
X132903251Y-130582533D01*
X132903248Y-130582537D01*
X132793814Y-130746315D01*
X132793807Y-130746328D01*
X132718430Y-130928306D01*
X132718427Y-130928318D01*
X132680000Y-131121504D01*
X131675422Y-131121504D01*
X131629185Y-131090609D01*
X131629172Y-131090602D01*
X131483501Y-131030264D01*
X131483489Y-131030261D01*
X131328845Y-130999500D01*
X131328842Y-130999500D01*
X131171158Y-130999500D01*
X131171155Y-130999500D01*
X131016510Y-131030261D01*
X131016498Y-131030264D01*
X130870827Y-131090602D01*
X130870814Y-131090609D01*
X130739711Y-131178210D01*
X130739707Y-131178213D01*
X130628213Y-131289707D01*
X130628210Y-131289711D01*
X130540609Y-131420814D01*
X130540602Y-131420827D01*
X130480264Y-131566498D01*
X130480261Y-131566510D01*
X130449500Y-131721153D01*
X118990918Y-131721153D01*
X118891936Y-131549711D01*
X118793040Y-131420827D01*
X118744266Y-131357263D01*
X118744260Y-131357256D01*
X118572743Y-131185739D01*
X118572736Y-131185733D01*
X118380293Y-131038067D01*
X118380292Y-131038066D01*
X118380289Y-131038064D01*
X118197961Y-130932797D01*
X118170214Y-130916777D01*
X118170205Y-130916773D01*
X117946104Y-130823947D01*
X117711785Y-130761161D01*
X117471289Y-130729500D01*
X117471288Y-130729500D01*
X117228712Y-130729500D01*
X117228711Y-130729500D01*
X116988214Y-130761161D01*
X116753895Y-130823947D01*
X116529794Y-130916773D01*
X116529785Y-130916777D01*
X116319706Y-131038067D01*
X116127263Y-131185733D01*
X116127256Y-131185739D01*
X115955739Y-131357256D01*
X115955733Y-131357263D01*
X115808067Y-131549706D01*
X115686777Y-131759785D01*
X115686773Y-131759794D01*
X115593947Y-131983895D01*
X115531161Y-132218214D01*
X115499500Y-132458711D01*
X113660500Y-132458711D01*
X113660500Y-129196153D01*
X134749500Y-129196153D01*
X134749500Y-129353846D01*
X134780261Y-129508489D01*
X134780264Y-129508501D01*
X134840602Y-129654172D01*
X134840609Y-129654185D01*
X134928210Y-129785288D01*
X134928213Y-129785292D01*
X135039707Y-129896786D01*
X135039711Y-129896789D01*
X135170814Y-129984390D01*
X135170827Y-129984397D01*
X135316498Y-130044735D01*
X135316503Y-130044737D01*
X135471153Y-130075499D01*
X135471156Y-130075500D01*
X135471158Y-130075500D01*
X135628844Y-130075500D01*
X135628845Y-130075499D01*
X135783497Y-130044737D01*
X135929179Y-129984394D01*
X136060289Y-129896789D01*
X136171789Y-129785289D01*
X136259394Y-129654179D01*
X136319737Y-129508497D01*
X136350500Y-129353842D01*
X136350500Y-129196158D01*
X136350500Y-129196155D01*
X136350499Y-129196153D01*
X139624500Y-129196153D01*
X139624500Y-129353846D01*
X139655261Y-129508489D01*
X139655264Y-129508501D01*
X139715602Y-129654172D01*
X139715609Y-129654185D01*
X139803210Y-129785288D01*
X139803213Y-129785292D01*
X139914707Y-129896786D01*
X139914711Y-129896789D01*
X140045814Y-129984390D01*
X140045827Y-129984397D01*
X140191498Y-130044735D01*
X140191503Y-130044737D01*
X140346153Y-130075499D01*
X140346156Y-130075500D01*
X140346158Y-130075500D01*
X140503844Y-130075500D01*
X140503845Y-130075499D01*
X140658497Y-130044737D01*
X140694117Y-130029983D01*
X158594500Y-130029983D01*
X158594500Y-130830001D01*
X158594501Y-130830019D01*
X158605000Y-130932796D01*
X158605001Y-130932799D01*
X158627104Y-130999500D01*
X158660186Y-131099334D01*
X158752288Y-131248656D01*
X158876344Y-131372712D01*
X158940543Y-131412310D01*
X158987268Y-131464258D01*
X158998489Y-131533221D01*
X158970646Y-131597303D01*
X158963128Y-131605530D01*
X158855585Y-131713073D01*
X158753768Y-131853211D01*
X158675128Y-132007552D01*
X158621597Y-132172302D01*
X158594500Y-132343389D01*
X158594500Y-132516610D01*
X158616159Y-132653365D01*
X158621598Y-132687701D01*
X158675127Y-132852445D01*
X158753768Y-133006788D01*
X158855586Y-133146928D01*
X158978072Y-133269414D01*
X159061449Y-133329991D01*
X159104114Y-133385322D01*
X159110093Y-133454935D01*
X159077487Y-133516730D01*
X159061448Y-133530627D01*
X158978404Y-133590961D01*
X158978399Y-133590965D01*
X158855967Y-133713397D01*
X158754195Y-133853475D01*
X158675591Y-134007744D01*
X158622085Y-134172415D01*
X158620884Y-134179999D01*
X158620885Y-134180000D01*
X159689670Y-134180000D01*
X159669925Y-134199745D01*
X159620556Y-134285255D01*
X159595000Y-134380630D01*
X159595000Y-134479370D01*
X159620556Y-134574745D01*
X159669925Y-134660255D01*
X159689670Y-134680000D01*
X158620885Y-134680000D01*
X158622085Y-134687584D01*
X158675591Y-134852255D01*
X158754195Y-135006524D01*
X158855967Y-135146602D01*
X158978397Y-135269032D01*
X159118475Y-135370804D01*
X159272742Y-135449408D01*
X159437415Y-135502914D01*
X159608429Y-135530000D01*
X159720000Y-135530000D01*
X159720000Y-134710330D01*
X159739745Y-134730075D01*
X159825255Y-134779444D01*
X159920630Y-134805000D01*
X160019370Y-134805000D01*
X160114745Y-134779444D01*
X160200255Y-134730075D01*
X160220000Y-134710330D01*
X160220000Y-135530000D01*
X160331571Y-135530000D01*
X160502584Y-135502914D01*
X160667257Y-135449408D01*
X160821524Y-135370804D01*
X160961602Y-135269032D01*
X161084032Y-135146602D01*
X161185804Y-135006524D01*
X161264408Y-134852255D01*
X161317914Y-134687584D01*
X161319115Y-134680000D01*
X160250330Y-134680000D01*
X160270075Y-134660255D01*
X160319444Y-134574745D01*
X160345000Y-134479370D01*
X160345000Y-134380630D01*
X160319444Y-134285255D01*
X160270075Y-134199745D01*
X160250330Y-134180000D01*
X161319115Y-134180000D01*
X161319115Y-134179999D01*
X161317914Y-134172415D01*
X161264408Y-134007744D01*
X161185804Y-133853475D01*
X161084032Y-133713397D01*
X160961602Y-133590967D01*
X160878551Y-133530628D01*
X160835885Y-133475298D01*
X160829906Y-133405685D01*
X160862511Y-133343889D01*
X160878551Y-133329991D01*
X160961928Y-133269414D01*
X161084414Y-133146928D01*
X161186232Y-133006788D01*
X161264873Y-132852445D01*
X161318402Y-132687701D01*
X161345500Y-132516611D01*
X161345500Y-132343389D01*
X161318402Y-132172299D01*
X161264873Y-132007555D01*
X161186232Y-131853212D01*
X161084414Y-131713072D01*
X160976872Y-131605530D01*
X160943387Y-131544207D01*
X160948371Y-131474515D01*
X160990243Y-131418582D01*
X160999457Y-131412310D01*
X161063656Y-131372712D01*
X161187712Y-131248656D01*
X161279814Y-131099334D01*
X161334999Y-130932797D01*
X161345500Y-130830009D01*
X161345499Y-130029992D01*
X161340841Y-129984397D01*
X161334999Y-129927203D01*
X161334998Y-129927200D01*
X161287973Y-129785289D01*
X161279814Y-129760666D01*
X161187712Y-129611344D01*
X161063656Y-129487288D01*
X160914334Y-129395186D01*
X160747797Y-129340001D01*
X160747795Y-129340000D01*
X160645010Y-129329500D01*
X159294998Y-129329500D01*
X159294981Y-129329501D01*
X159192203Y-129340000D01*
X159192200Y-129340001D01*
X159025668Y-129395185D01*
X159025663Y-129395187D01*
X158876342Y-129487289D01*
X158752289Y-129611342D01*
X158660187Y-129760663D01*
X158660185Y-129760668D01*
X158632349Y-129844670D01*
X158605001Y-129927203D01*
X158605001Y-129927204D01*
X158605000Y-129927204D01*
X158594500Y-130029983D01*
X140694117Y-130029983D01*
X140804179Y-129984394D01*
X140804185Y-129984390D01*
X140894967Y-129923732D01*
X140915163Y-129910236D01*
X140935289Y-129896789D01*
X141046789Y-129785289D01*
X141134394Y-129654179D01*
X141194737Y-129508497D01*
X141225500Y-129353842D01*
X141225500Y-129196158D01*
X141225500Y-129196155D01*
X141225499Y-129196153D01*
X141194738Y-129041510D01*
X141194737Y-129041503D01*
X141194735Y-129041498D01*
X141134397Y-128895827D01*
X141134390Y-128895814D01*
X141046789Y-128764711D01*
X141046786Y-128764707D01*
X140935292Y-128653213D01*
X140935288Y-128653210D01*
X140804185Y-128565609D01*
X140804172Y-128565602D01*
X140658501Y-128505264D01*
X140658489Y-128505261D01*
X140503845Y-128474500D01*
X140503842Y-128474500D01*
X140346158Y-128474500D01*
X140346155Y-128474500D01*
X140191510Y-128505261D01*
X140191498Y-128505264D01*
X140045827Y-128565602D01*
X140045814Y-128565609D01*
X139914711Y-128653210D01*
X139914707Y-128653213D01*
X139803213Y-128764707D01*
X139803210Y-128764711D01*
X139715609Y-128895814D01*
X139715602Y-128895827D01*
X139655264Y-129041498D01*
X139655261Y-129041510D01*
X139624500Y-129196153D01*
X136350499Y-129196153D01*
X136319738Y-129041510D01*
X136319737Y-129041503D01*
X136319735Y-129041498D01*
X136259397Y-128895827D01*
X136259390Y-128895814D01*
X136171789Y-128764711D01*
X136171786Y-128764707D01*
X136060292Y-128653213D01*
X136060288Y-128653210D01*
X135929185Y-128565609D01*
X135929172Y-128565602D01*
X135783501Y-128505264D01*
X135783489Y-128505261D01*
X135628845Y-128474500D01*
X135628842Y-128474500D01*
X135471158Y-128474500D01*
X135471155Y-128474500D01*
X135316510Y-128505261D01*
X135316498Y-128505264D01*
X135170827Y-128565602D01*
X135170814Y-128565609D01*
X135039711Y-128653210D01*
X135039707Y-128653213D01*
X134928213Y-128764707D01*
X134928210Y-128764711D01*
X134840609Y-128895814D01*
X134840602Y-128895827D01*
X134780264Y-129041498D01*
X134780261Y-129041510D01*
X134749500Y-129196153D01*
X113660500Y-129196153D01*
X113660500Y-127996153D01*
X143379500Y-127996153D01*
X143379500Y-128153846D01*
X143410261Y-128308489D01*
X143410264Y-128308501D01*
X143470602Y-128454172D01*
X143470609Y-128454185D01*
X143558210Y-128585288D01*
X143558213Y-128585292D01*
X143669707Y-128696786D01*
X143669711Y-128696789D01*
X143800814Y-128784390D01*
X143800827Y-128784397D01*
X143946498Y-128844735D01*
X143946503Y-128844737D01*
X144101153Y-128875499D01*
X144101156Y-128875500D01*
X144101158Y-128875500D01*
X144258844Y-128875500D01*
X144258845Y-128875499D01*
X144413497Y-128844737D01*
X144559179Y-128784394D01*
X144690289Y-128696789D01*
X144801789Y-128585289D01*
X144889394Y-128454179D01*
X144949737Y-128308497D01*
X144980500Y-128153842D01*
X144980500Y-127996158D01*
X144980500Y-127996155D01*
X144980499Y-127996153D01*
X144965231Y-127919397D01*
X144949737Y-127841503D01*
X144945712Y-127831786D01*
X144889397Y-127695827D01*
X144889390Y-127695814D01*
X144801789Y-127564711D01*
X144801786Y-127564707D01*
X144690292Y-127453213D01*
X144690288Y-127453210D01*
X144559185Y-127365609D01*
X144559172Y-127365602D01*
X144413501Y-127305264D01*
X144413489Y-127305261D01*
X144258845Y-127274500D01*
X144258842Y-127274500D01*
X144101158Y-127274500D01*
X144101155Y-127274500D01*
X143946510Y-127305261D01*
X143946498Y-127305264D01*
X143800827Y-127365602D01*
X143800814Y-127365609D01*
X143669711Y-127453210D01*
X143669707Y-127453213D01*
X143558213Y-127564707D01*
X143558210Y-127564711D01*
X143470609Y-127695814D01*
X143470602Y-127695827D01*
X143410264Y-127841498D01*
X143410261Y-127841510D01*
X143379500Y-127996153D01*
X113660500Y-127996153D01*
X113660500Y-127131153D01*
X146589500Y-127131153D01*
X146589500Y-127288846D01*
X146620261Y-127443489D01*
X146620264Y-127443501D01*
X146680602Y-127589172D01*
X146680609Y-127589185D01*
X146768210Y-127720288D01*
X146768213Y-127720292D01*
X146879707Y-127831786D01*
X146879711Y-127831789D01*
X147010814Y-127919390D01*
X147010827Y-127919397D01*
X147156498Y-127979735D01*
X147156503Y-127979737D01*
X147311153Y-128010499D01*
X147311156Y-128010500D01*
X147311158Y-128010500D01*
X147468844Y-128010500D01*
X147468845Y-128010499D01*
X147623497Y-127979737D01*
X147769179Y-127919394D01*
X147900289Y-127831789D01*
X148011789Y-127720289D01*
X148099394Y-127589179D01*
X148159737Y-127443497D01*
X148190500Y-127288842D01*
X148190500Y-127131158D01*
X148190500Y-127131155D01*
X148190499Y-127131153D01*
X148159738Y-126976510D01*
X148159737Y-126976503D01*
X148159735Y-126976498D01*
X148099397Y-126830827D01*
X148099390Y-126830814D01*
X148011789Y-126699711D01*
X148011786Y-126699707D01*
X147900292Y-126588213D01*
X147900288Y-126588210D01*
X147769185Y-126500609D01*
X147769172Y-126500602D01*
X147623501Y-126440264D01*
X147623489Y-126440261D01*
X147468845Y-126409500D01*
X147468842Y-126409500D01*
X147311158Y-126409500D01*
X147311155Y-126409500D01*
X147156510Y-126440261D01*
X147156498Y-126440264D01*
X147010827Y-126500602D01*
X147010814Y-126500609D01*
X146879711Y-126588210D01*
X146879707Y-126588213D01*
X146768213Y-126699707D01*
X146768210Y-126699711D01*
X146680609Y-126830814D01*
X146680602Y-126830827D01*
X146620264Y-126976498D01*
X146620261Y-126976510D01*
X146589500Y-127131153D01*
X113660500Y-127131153D01*
X113660500Y-123586153D01*
X119212000Y-123586153D01*
X119212000Y-123743846D01*
X119242761Y-123898489D01*
X119242764Y-123898501D01*
X119303102Y-124044172D01*
X119303109Y-124044185D01*
X119390710Y-124175288D01*
X119390713Y-124175292D01*
X119502207Y-124286786D01*
X119502211Y-124286789D01*
X119633314Y-124374390D01*
X119633327Y-124374397D01*
X119778998Y-124434735D01*
X119779003Y-124434737D01*
X119933653Y-124465499D01*
X119933656Y-124465500D01*
X119933658Y-124465500D01*
X120091344Y-124465500D01*
X120091345Y-124465499D01*
X120245997Y-124434737D01*
X120391679Y-124374394D01*
X120522789Y-124286789D01*
X120634289Y-124175289D01*
X120721894Y-124044179D01*
X120782237Y-123898497D01*
X120813000Y-123743842D01*
X120813000Y-123586158D01*
X120813000Y-123586155D01*
X120812999Y-123586153D01*
X120782238Y-123431510D01*
X120782237Y-123431503D01*
X120781821Y-123430499D01*
X120721897Y-123285827D01*
X120721890Y-123285814D01*
X120634289Y-123154711D01*
X120634286Y-123154707D01*
X120522792Y-123043213D01*
X120522788Y-123043210D01*
X120391685Y-122955609D01*
X120391672Y-122955602D01*
X120246001Y-122895264D01*
X120245989Y-122895261D01*
X120091345Y-122864500D01*
X120091342Y-122864500D01*
X119933658Y-122864500D01*
X119933655Y-122864500D01*
X119779010Y-122895261D01*
X119778998Y-122895264D01*
X119633327Y-122955602D01*
X119633314Y-122955609D01*
X119502211Y-123043210D01*
X119502207Y-123043213D01*
X119390713Y-123154707D01*
X119390710Y-123154711D01*
X119303109Y-123285814D01*
X119303102Y-123285827D01*
X119242764Y-123431498D01*
X119242761Y-123431510D01*
X119212000Y-123586153D01*
X113660500Y-123586153D01*
X113660500Y-109097135D01*
X118774500Y-109097135D01*
X118774500Y-110892870D01*
X118774501Y-110892876D01*
X118780908Y-110952483D01*
X118831202Y-111087328D01*
X118831206Y-111087335D01*
X118917452Y-111202544D01*
X118917455Y-111202547D01*
X119032664Y-111288793D01*
X119032671Y-111288797D01*
X119164082Y-111337810D01*
X119220016Y-111379681D01*
X119244433Y-111445145D01*
X119229582Y-111513418D01*
X119208431Y-111541673D01*
X119094889Y-111655215D01*
X118969951Y-111827179D01*
X118873444Y-112016585D01*
X118807753Y-112218760D01*
X118774500Y-112428713D01*
X118774500Y-112641286D01*
X118805227Y-112835292D01*
X118807754Y-112851243D01*
X118872249Y-113049738D01*
X118873444Y-113053414D01*
X118969951Y-113242820D01*
X119094890Y-113414786D01*
X119245213Y-113565109D01*
X119417182Y-113690050D01*
X119425946Y-113694516D01*
X119476742Y-113742491D01*
X119493536Y-113810312D01*
X119470998Y-113876447D01*
X119425946Y-113915484D01*
X119417182Y-113919949D01*
X119245213Y-114044890D01*
X119094890Y-114195213D01*
X118969951Y-114367179D01*
X118873444Y-114556585D01*
X118807753Y-114758760D01*
X118774500Y-114968713D01*
X118774500Y-115181286D01*
X118803669Y-115365456D01*
X118807754Y-115391243D01*
X118858841Y-115548473D01*
X118873444Y-115593414D01*
X118969951Y-115782820D01*
X119094890Y-115954786D01*
X119245213Y-116105109D01*
X119417182Y-116230050D01*
X119425946Y-116234516D01*
X119476742Y-116282491D01*
X119493536Y-116350312D01*
X119470998Y-116416447D01*
X119425946Y-116455484D01*
X119417182Y-116459949D01*
X119245213Y-116584890D01*
X119094890Y-116735213D01*
X118969951Y-116907179D01*
X118873444Y-117096585D01*
X118807753Y-117298760D01*
X118774500Y-117508713D01*
X118774500Y-117721286D01*
X118795727Y-117855312D01*
X118807754Y-117931243D01*
X118818706Y-117964951D01*
X118873444Y-118133414D01*
X118969951Y-118322820D01*
X119094890Y-118494786D01*
X119245213Y-118645109D01*
X119417179Y-118770048D01*
X119417181Y-118770049D01*
X119417184Y-118770051D01*
X119426493Y-118774794D01*
X119477290Y-118822766D01*
X119494087Y-118890587D01*
X119471552Y-118956722D01*
X119426505Y-118995760D01*
X119417446Y-119000376D01*
X119417440Y-119000380D01*
X119363282Y-119039727D01*
X119363282Y-119039728D01*
X119995591Y-119672037D01*
X119932007Y-119689075D01*
X119817993Y-119754901D01*
X119724901Y-119847993D01*
X119659075Y-119962007D01*
X119642037Y-120025591D01*
X119009728Y-119393282D01*
X119009727Y-119393282D01*
X118970380Y-119447439D01*
X118873904Y-119636782D01*
X118808242Y-119838869D01*
X118808242Y-119838872D01*
X118775000Y-120048753D01*
X118775000Y-120261246D01*
X118808242Y-120471127D01*
X118808242Y-120471130D01*
X118873904Y-120673217D01*
X118970375Y-120862550D01*
X119009728Y-120916716D01*
X119642037Y-120284408D01*
X119659075Y-120347993D01*
X119724901Y-120462007D01*
X119817993Y-120555099D01*
X119932007Y-120620925D01*
X119995590Y-120637962D01*
X119363282Y-121270269D01*
X119363282Y-121270270D01*
X119417449Y-121309624D01*
X119606782Y-121406095D01*
X119808870Y-121471757D01*
X120018754Y-121505000D01*
X120231246Y-121505000D01*
X120441127Y-121471757D01*
X120441130Y-121471757D01*
X120643217Y-121406095D01*
X120832554Y-121309622D01*
X120886716Y-121270270D01*
X120886717Y-121270270D01*
X120254408Y-120637962D01*
X120317993Y-120620925D01*
X120432007Y-120555099D01*
X120525099Y-120462007D01*
X120590925Y-120347993D01*
X120607962Y-120284408D01*
X121240270Y-120916717D01*
X121240270Y-120916716D01*
X121279622Y-120862554D01*
X121284514Y-120852954D01*
X121332488Y-120802157D01*
X121400308Y-120785361D01*
X121466444Y-120807897D01*
X121505486Y-120852954D01*
X121510375Y-120862550D01*
X121549728Y-120916716D01*
X122182037Y-120284408D01*
X122199075Y-120347993D01*
X122264901Y-120462007D01*
X122357993Y-120555099D01*
X122472007Y-120620925D01*
X122535590Y-120637962D01*
X121903282Y-121270269D01*
X121903282Y-121270270D01*
X121957449Y-121309624D01*
X122146782Y-121406095D01*
X122348870Y-121471757D01*
X122558754Y-121505000D01*
X122771246Y-121505000D01*
X122981127Y-121471757D01*
X122981130Y-121471757D01*
X123183217Y-121406095D01*
X123372554Y-121309622D01*
X123426716Y-121270270D01*
X123426717Y-121270270D01*
X122794408Y-120637962D01*
X122857993Y-120620925D01*
X122972007Y-120555099D01*
X123065099Y-120462007D01*
X123130925Y-120347993D01*
X123147962Y-120284409D01*
X123780270Y-120916717D01*
X123780270Y-120916716D01*
X123819622Y-120862554D01*
X123916095Y-120673217D01*
X123981757Y-120471130D01*
X123981757Y-120471127D01*
X124015000Y-120261246D01*
X124015000Y-120048753D01*
X123981757Y-119838872D01*
X123981757Y-119838869D01*
X123916095Y-119636782D01*
X123819624Y-119447449D01*
X123780270Y-119393282D01*
X123780269Y-119393282D01*
X123147962Y-120025590D01*
X123130925Y-119962007D01*
X123065099Y-119847993D01*
X122972007Y-119754901D01*
X122857993Y-119689075D01*
X122794409Y-119672037D01*
X123426716Y-119039728D01*
X123372547Y-119000373D01*
X123372547Y-119000372D01*
X123363500Y-118995763D01*
X123312706Y-118947788D01*
X123295912Y-118879966D01*
X123318451Y-118813832D01*
X123363508Y-118774793D01*
X123372816Y-118770051D01*
X123452007Y-118712515D01*
X123544786Y-118645109D01*
X123544788Y-118645106D01*
X123544792Y-118645104D01*
X123695104Y-118494792D01*
X123695106Y-118494788D01*
X123695109Y-118494786D01*
X123820048Y-118322820D01*
X123820047Y-118322820D01*
X123820051Y-118322816D01*
X123916557Y-118133412D01*
X123982246Y-117931243D01*
X124015500Y-117721287D01*
X124015500Y-117508713D01*
X123982246Y-117298757D01*
X123916557Y-117096588D01*
X123820051Y-116907184D01*
X123820049Y-116907181D01*
X123820048Y-116907179D01*
X123695109Y-116735213D01*
X123544786Y-116584890D01*
X123372820Y-116459951D01*
X123372115Y-116459591D01*
X123364054Y-116455485D01*
X123313259Y-116407512D01*
X123296463Y-116339692D01*
X123318999Y-116273556D01*
X123364054Y-116234515D01*
X123372816Y-116230051D01*
X123530522Y-116115472D01*
X123544786Y-116105109D01*
X123544788Y-116105106D01*
X123544792Y-116105104D01*
X123695104Y-115954792D01*
X123695106Y-115954788D01*
X123695109Y-115954786D01*
X123820048Y-115782820D01*
X123820047Y-115782820D01*
X123820051Y-115782816D01*
X123916557Y-115593412D01*
X123982246Y-115391243D01*
X124015500Y-115181287D01*
X124015500Y-114968713D01*
X123982246Y-114758757D01*
X123916557Y-114556588D01*
X123820051Y-114367184D01*
X123820049Y-114367181D01*
X123820048Y-114367179D01*
X123695109Y-114195213D01*
X123544786Y-114044890D01*
X123372820Y-113919951D01*
X123372115Y-113919591D01*
X123364054Y-113915485D01*
X123313259Y-113867512D01*
X123296463Y-113799692D01*
X123318999Y-113733556D01*
X123364054Y-113694515D01*
X123372816Y-113690051D01*
X123394789Y-113674086D01*
X123544786Y-113565109D01*
X123544788Y-113565106D01*
X123544792Y-113565104D01*
X123695104Y-113414792D01*
X123695106Y-113414788D01*
X123695109Y-113414786D01*
X123820048Y-113242820D01*
X123820047Y-113242820D01*
X123820051Y-113242816D01*
X123916557Y-113053412D01*
X123982246Y-112851243D01*
X124015500Y-112641287D01*
X124015500Y-112428713D01*
X123982246Y-112218757D01*
X123976526Y-112201153D01*
X128899500Y-112201153D01*
X128899500Y-112358846D01*
X128930261Y-112513489D01*
X128930264Y-112513501D01*
X128990602Y-112659172D01*
X128990609Y-112659185D01*
X129078210Y-112790288D01*
X129078213Y-112790292D01*
X129189707Y-112901786D01*
X129189711Y-112901789D01*
X129320814Y-112989390D01*
X129320827Y-112989397D01*
X129465931Y-113049500D01*
X129466503Y-113049737D01*
X129619967Y-113080263D01*
X129621153Y-113080499D01*
X129621156Y-113080500D01*
X129621158Y-113080500D01*
X129778844Y-113080500D01*
X129778845Y-113080499D01*
X129933497Y-113049737D01*
X130079179Y-112989394D01*
X130210289Y-112901789D01*
X130321789Y-112790289D01*
X130409394Y-112659179D01*
X130416806Y-112641286D01*
X130451096Y-112558501D01*
X130469737Y-112513497D01*
X130500500Y-112358842D01*
X130500500Y-112201158D01*
X130500500Y-112201155D01*
X130500499Y-112201153D01*
X130473945Y-112067660D01*
X130469737Y-112046503D01*
X130457345Y-112016585D01*
X130409397Y-111900827D01*
X130409390Y-111900814D01*
X130321789Y-111769711D01*
X130321786Y-111769707D01*
X130210292Y-111658213D01*
X130210288Y-111658210D01*
X130079185Y-111570609D01*
X130079172Y-111570602D01*
X129933501Y-111510264D01*
X129933489Y-111510261D01*
X129778845Y-111479500D01*
X129778842Y-111479500D01*
X129621158Y-111479500D01*
X129621155Y-111479500D01*
X129466510Y-111510261D01*
X129466498Y-111510264D01*
X129320827Y-111570602D01*
X129320814Y-111570609D01*
X129189711Y-111658210D01*
X129189707Y-111658213D01*
X129078213Y-111769707D01*
X129078210Y-111769711D01*
X128990609Y-111900814D01*
X128990602Y-111900827D01*
X128930264Y-112046498D01*
X128930261Y-112046510D01*
X128899500Y-112201153D01*
X123976526Y-112201153D01*
X123916557Y-112016588D01*
X123820051Y-111827184D01*
X123820049Y-111827181D01*
X123820048Y-111827179D01*
X123695109Y-111655213D01*
X123544786Y-111504890D01*
X123372820Y-111379951D01*
X123372115Y-111379591D01*
X123364054Y-111375485D01*
X123313259Y-111327512D01*
X123296463Y-111259692D01*
X123318999Y-111193556D01*
X123364054Y-111154515D01*
X123372816Y-111150051D01*
X123459138Y-111087335D01*
X123544786Y-111025109D01*
X123544788Y-111025106D01*
X123544792Y-111025104D01*
X123695104Y-110874792D01*
X123695106Y-110874788D01*
X123695109Y-110874786D01*
X123820048Y-110702820D01*
X123820047Y-110702820D01*
X123820051Y-110702816D01*
X123916557Y-110513412D01*
X123982246Y-110311243D01*
X124015500Y-110101287D01*
X124015500Y-109888713D01*
X123982246Y-109678757D01*
X123916557Y-109476588D01*
X123820051Y-109287184D01*
X123820049Y-109287181D01*
X123820048Y-109287179D01*
X123695109Y-109115213D01*
X123544786Y-108964890D01*
X123372820Y-108839951D01*
X123183414Y-108743444D01*
X123183413Y-108743443D01*
X123183412Y-108743443D01*
X122981243Y-108677754D01*
X122981241Y-108677753D01*
X122981240Y-108677753D01*
X122819957Y-108652208D01*
X122771287Y-108644500D01*
X122558713Y-108644500D01*
X122510042Y-108652208D01*
X122348760Y-108677753D01*
X122146585Y-108743444D01*
X121957179Y-108839951D01*
X121785215Y-108964889D01*
X121671673Y-109078431D01*
X121610350Y-109111915D01*
X121540658Y-109106931D01*
X121484725Y-109065059D01*
X121467810Y-109034082D01*
X121418797Y-108902671D01*
X121418793Y-108902664D01*
X121332547Y-108787455D01*
X121332544Y-108787452D01*
X121217335Y-108701206D01*
X121217328Y-108701202D01*
X121082482Y-108650908D01*
X121082483Y-108650908D01*
X121022883Y-108644501D01*
X121022881Y-108644500D01*
X121022873Y-108644500D01*
X121022864Y-108644500D01*
X119227129Y-108644500D01*
X119227123Y-108644501D01*
X119167516Y-108650908D01*
X119032671Y-108701202D01*
X119032664Y-108701206D01*
X118917455Y-108787452D01*
X118917452Y-108787455D01*
X118831206Y-108902664D01*
X118831202Y-108902671D01*
X118780908Y-109037517D01*
X118774501Y-109097116D01*
X118774500Y-109097135D01*
X113660500Y-109097135D01*
X113660500Y-103814983D01*
X114969500Y-103814983D01*
X114969500Y-105165001D01*
X114969501Y-105165018D01*
X114980000Y-105267796D01*
X114980001Y-105267799D01*
X115032259Y-105425500D01*
X115035186Y-105434334D01*
X115127288Y-105583656D01*
X115251344Y-105707712D01*
X115400666Y-105799814D01*
X115567203Y-105854999D01*
X115669991Y-105865500D01*
X116403480Y-105865499D01*
X116470519Y-105885183D01*
X116491161Y-105901818D01*
X117232453Y-106643111D01*
X117232454Y-106643112D01*
X117347192Y-106719777D01*
X117474667Y-106772578D01*
X117474672Y-106772580D01*
X117474676Y-106772580D01*
X117474677Y-106772581D01*
X117610003Y-106799500D01*
X117610006Y-106799500D01*
X117610007Y-106799500D01*
X128038845Y-106799500D01*
X128105884Y-106819185D01*
X128126526Y-106835819D01*
X129504817Y-108214111D01*
X129504818Y-108214112D01*
X129619556Y-108290777D01*
X129747031Y-108343578D01*
X129747036Y-108343580D01*
X129747040Y-108343580D01*
X129747041Y-108343581D01*
X129882368Y-108370500D01*
X129882371Y-108370500D01*
X130020358Y-108370500D01*
X136358481Y-108370500D01*
X136425520Y-108390185D01*
X136446162Y-108406819D01*
X138645845Y-110606502D01*
X138679330Y-110667825D01*
X138674346Y-110737517D01*
X138632474Y-110793450D01*
X138605621Y-110808742D01*
X138583542Y-110817888D01*
X138583528Y-110817895D01*
X138452425Y-110905496D01*
X138452421Y-110905499D01*
X138340927Y-111016993D01*
X138340924Y-111016997D01*
X138253323Y-111148100D01*
X138253316Y-111148113D01*
X138192978Y-111293784D01*
X138192975Y-111293796D01*
X138162214Y-111448439D01*
X138162214Y-111606132D01*
X138192975Y-111760775D01*
X138192978Y-111760787D01*
X138253316Y-111906458D01*
X138253323Y-111906471D01*
X138340924Y-112037574D01*
X138340927Y-112037578D01*
X138452421Y-112149072D01*
X138452425Y-112149075D01*
X138583528Y-112236676D01*
X138583541Y-112236683D01*
X138687564Y-112279770D01*
X138729217Y-112297023D01*
X138883867Y-112327785D01*
X138883870Y-112327786D01*
X138883872Y-112327786D01*
X139041558Y-112327786D01*
X139041559Y-112327785D01*
X139196211Y-112297023D01*
X139341893Y-112236680D01*
X139351606Y-112230190D01*
X139418283Y-112209310D01*
X139485664Y-112227793D01*
X139532355Y-112279770D01*
X139544500Y-112333290D01*
X139544500Y-112403846D01*
X139575261Y-112558489D01*
X139575264Y-112558501D01*
X139635602Y-112704172D01*
X139635609Y-112704185D01*
X139723210Y-112835288D01*
X139723213Y-112835292D01*
X139834707Y-112946786D01*
X139834711Y-112946789D01*
X139965814Y-113034390D01*
X139965827Y-113034397D01*
X140104494Y-113091834D01*
X140111503Y-113094737D01*
X140266153Y-113125499D01*
X140266156Y-113125500D01*
X140266158Y-113125500D01*
X140423844Y-113125500D01*
X140423845Y-113125499D01*
X140578497Y-113094737D01*
X140724179Y-113034394D01*
X140791532Y-112989390D01*
X140849110Y-112950918D01*
X140915787Y-112930040D01*
X140983168Y-112948524D01*
X141005682Y-112966339D01*
X143933181Y-115893838D01*
X143966666Y-115955161D01*
X143969500Y-115981519D01*
X143969500Y-117085967D01*
X143949815Y-117153006D01*
X143897011Y-117198761D01*
X143827853Y-117208705D01*
X143776610Y-117189069D01*
X143659190Y-117110612D01*
X143659172Y-117110602D01*
X143513501Y-117050264D01*
X143513489Y-117050261D01*
X143358845Y-117019500D01*
X143358842Y-117019500D01*
X143201158Y-117019500D01*
X143201155Y-117019500D01*
X143046510Y-117050261D01*
X143046498Y-117050264D01*
X142900827Y-117110602D01*
X142900814Y-117110609D01*
X142769711Y-117198210D01*
X142769707Y-117198213D01*
X142658213Y-117309707D01*
X142658210Y-117309711D01*
X142570609Y-117440814D01*
X142570604Y-117440823D01*
X142510809Y-117585184D01*
X142483929Y-117625412D01*
X141316162Y-118793181D01*
X141254839Y-118826666D01*
X141228481Y-118829500D01*
X132911519Y-118829500D01*
X132844480Y-118809815D01*
X132823838Y-118793181D01*
X132606548Y-118575890D01*
X132606547Y-118575889D01*
X132606543Y-118575886D01*
X132575705Y-118555281D01*
X132534113Y-118508475D01*
X132485051Y-118412184D01*
X132360104Y-118240208D01*
X132209792Y-118089896D01*
X132209786Y-118089890D01*
X132037820Y-117964951D01*
X132037115Y-117964591D01*
X132029054Y-117960485D01*
X131978259Y-117912512D01*
X131961463Y-117844692D01*
X131983999Y-117778556D01*
X132029054Y-117739515D01*
X132037816Y-117735051D01*
X132059789Y-117719086D01*
X132209786Y-117610109D01*
X132209788Y-117610106D01*
X132209792Y-117610104D01*
X132360104Y-117459792D01*
X132360106Y-117459788D01*
X132360109Y-117459786D01*
X132485048Y-117287820D01*
X132485047Y-117287820D01*
X132485051Y-117287816D01*
X132581557Y-117098412D01*
X132647246Y-116896243D01*
X132680500Y-116686287D01*
X132680500Y-116473713D01*
X132647246Y-116263757D01*
X132581557Y-116061588D01*
X132485051Y-115872184D01*
X132485049Y-115872181D01*
X132485048Y-115872179D01*
X132360109Y-115700213D01*
X132209786Y-115549890D01*
X132037820Y-115424951D01*
X132037115Y-115424591D01*
X132029054Y-115420485D01*
X132026042Y-115417640D01*
X132022029Y-115416614D01*
X132000860Y-115393857D01*
X131978259Y-115372512D01*
X131977262Y-115368489D01*
X131974441Y-115365456D01*
X131968935Y-115334863D01*
X131961463Y-115304692D01*
X131962799Y-115300770D01*
X131962065Y-115296691D01*
X131973975Y-115267973D01*
X131983999Y-115238556D01*
X131986448Y-115236125D01*
X136549500Y-115236125D01*
X136549500Y-115393818D01*
X136580261Y-115548461D01*
X136580264Y-115548473D01*
X136640602Y-115694144D01*
X136640609Y-115694157D01*
X136728210Y-115825260D01*
X136728213Y-115825264D01*
X136839707Y-115936758D01*
X136839711Y-115936761D01*
X136970814Y-116024362D01*
X136970827Y-116024369D01*
X137116498Y-116084707D01*
X137116503Y-116084709D01*
X137271153Y-116115471D01*
X137271156Y-116115472D01*
X137271158Y-116115472D01*
X137428844Y-116115472D01*
X137428845Y-116115471D01*
X137583497Y-116084709D01*
X137729179Y-116024366D01*
X137860289Y-115936761D01*
X137971789Y-115825261D01*
X138059394Y-115694151D01*
X138119737Y-115548469D01*
X138150500Y-115393814D01*
X138150500Y-115236130D01*
X138150500Y-115236127D01*
X138150499Y-115236125D01*
X138139591Y-115181286D01*
X138119737Y-115081475D01*
X138073030Y-114968713D01*
X138059397Y-114935799D01*
X138059390Y-114935786D01*
X137971789Y-114804683D01*
X137971786Y-114804679D01*
X137860292Y-114693185D01*
X137860288Y-114693182D01*
X137729185Y-114605581D01*
X137729172Y-114605574D01*
X137583501Y-114545236D01*
X137583489Y-114545233D01*
X137428845Y-114514472D01*
X137428842Y-114514472D01*
X137271158Y-114514472D01*
X137271155Y-114514472D01*
X137116510Y-114545233D01*
X137116498Y-114545236D01*
X136970827Y-114605574D01*
X136970814Y-114605581D01*
X136839711Y-114693182D01*
X136839707Y-114693185D01*
X136728213Y-114804679D01*
X136728210Y-114804683D01*
X136640609Y-114935786D01*
X136640602Y-114935799D01*
X136580264Y-115081470D01*
X136580261Y-115081482D01*
X136549500Y-115236125D01*
X131986448Y-115236125D01*
X131987697Y-115234885D01*
X131988831Y-115232152D01*
X131997713Y-115224945D01*
X132014673Y-115208113D01*
X132021569Y-115203328D01*
X132037816Y-115195051D01*
X132209792Y-115070104D01*
X132360104Y-114919792D01*
X132360106Y-114919788D01*
X132360109Y-114919786D01*
X132485048Y-114747820D01*
X132485047Y-114747820D01*
X132485051Y-114747816D01*
X132581557Y-114558412D01*
X132647246Y-114356243D01*
X132680500Y-114146287D01*
X132680500Y-113933713D01*
X132647246Y-113723757D01*
X132581557Y-113521588D01*
X132485051Y-113332184D01*
X132485049Y-113332181D01*
X132485048Y-113332179D01*
X132360109Y-113160213D01*
X132209786Y-113009890D01*
X132037820Y-112884951D01*
X131848414Y-112788444D01*
X131848413Y-112788443D01*
X131848412Y-112788443D01*
X131646243Y-112722754D01*
X131646241Y-112722753D01*
X131646240Y-112722753D01*
X131484957Y-112697208D01*
X131436287Y-112689500D01*
X131223713Y-112689500D01*
X131175042Y-112697208D01*
X131013760Y-112722753D01*
X130811585Y-112788444D01*
X130622184Y-112884948D01*
X130459377Y-113003233D01*
X130459371Y-113003238D01*
X130450208Y-113009896D01*
X130368305Y-113091798D01*
X130368269Y-113091834D01*
X130299889Y-113160215D01*
X130174951Y-113332179D01*
X130078444Y-113521585D01*
X130012753Y-113723760D01*
X130005246Y-113771158D01*
X129979500Y-113933713D01*
X129979500Y-114146287D01*
X130012754Y-114356243D01*
X130077850Y-114556588D01*
X130078444Y-114558414D01*
X130174951Y-114747820D01*
X130299890Y-114919786D01*
X130450213Y-115070109D01*
X130622182Y-115195050D01*
X130630946Y-115199516D01*
X130681742Y-115247491D01*
X130698536Y-115315312D01*
X130675998Y-115381447D01*
X130630946Y-115420484D01*
X130622182Y-115424949D01*
X130450213Y-115549890D01*
X130299890Y-115700213D01*
X130174951Y-115872179D01*
X130078444Y-116061585D01*
X130078443Y-116061587D01*
X130078443Y-116061588D01*
X130070930Y-116084710D01*
X130012753Y-116263760D01*
X129997464Y-116360292D01*
X129979500Y-116473713D01*
X129979500Y-116686287D01*
X130012754Y-116896243D01*
X130077850Y-117096588D01*
X130078444Y-117098414D01*
X130174951Y-117287820D01*
X130299890Y-117459786D01*
X130450213Y-117610109D01*
X130622182Y-117735050D01*
X130630946Y-117739516D01*
X130681742Y-117787491D01*
X130698536Y-117855312D01*
X130675998Y-117921447D01*
X130630946Y-117960484D01*
X130622182Y-117964949D01*
X130450213Y-118089890D01*
X130299890Y-118240213D01*
X130174951Y-118412179D01*
X130078444Y-118601585D01*
X130012753Y-118803760D01*
X129979500Y-119013713D01*
X129979500Y-119226286D01*
X130005949Y-119393282D01*
X130012754Y-119436243D01*
X130077913Y-119636782D01*
X130078444Y-119638414D01*
X130174951Y-119827820D01*
X130299890Y-119999786D01*
X130413818Y-120113714D01*
X130447303Y-120175037D01*
X130442319Y-120244729D01*
X130400447Y-120300662D01*
X130369471Y-120317577D01*
X130237912Y-120366646D01*
X130237906Y-120366649D01*
X130122812Y-120452809D01*
X130122809Y-120452812D01*
X130036649Y-120567906D01*
X130036645Y-120567913D01*
X129986403Y-120702620D01*
X129986401Y-120702627D01*
X129980000Y-120762155D01*
X129980000Y-121410000D01*
X130896988Y-121410000D01*
X130864075Y-121467007D01*
X130830000Y-121594174D01*
X130830000Y-121725826D01*
X130864075Y-121852993D01*
X130896988Y-121910000D01*
X129980000Y-121910000D01*
X129980000Y-122557844D01*
X129986401Y-122617372D01*
X129986403Y-122617379D01*
X130036645Y-122752086D01*
X130036649Y-122752093D01*
X130122809Y-122867187D01*
X130122812Y-122867190D01*
X130237906Y-122953350D01*
X130237913Y-122953354D01*
X130372620Y-123003596D01*
X130372627Y-123003598D01*
X130432155Y-123009999D01*
X130432172Y-123010000D01*
X131080000Y-123010000D01*
X131080000Y-122093012D01*
X131137007Y-122125925D01*
X131264174Y-122160000D01*
X131395826Y-122160000D01*
X131522993Y-122125925D01*
X131580000Y-122093012D01*
X131580000Y-123010000D01*
X132227828Y-123010000D01*
X132227844Y-123009999D01*
X132287372Y-123003598D01*
X132287379Y-123003596D01*
X132422086Y-122953354D01*
X132422093Y-122953350D01*
X132537187Y-122867190D01*
X132537190Y-122867187D01*
X132623350Y-122752093D01*
X132623354Y-122752086D01*
X132673596Y-122617379D01*
X132673598Y-122617372D01*
X132679999Y-122557844D01*
X132680000Y-122557827D01*
X132680000Y-122551153D01*
X135269500Y-122551153D01*
X135269500Y-122708846D01*
X135300261Y-122863489D01*
X135300264Y-122863501D01*
X135360602Y-123009172D01*
X135360609Y-123009185D01*
X135448210Y-123140288D01*
X135448213Y-123140292D01*
X135559707Y-123251786D01*
X135559711Y-123251789D01*
X135690814Y-123339390D01*
X135690827Y-123339397D01*
X135836498Y-123399735D01*
X135836503Y-123399737D01*
X135991153Y-123430499D01*
X135991156Y-123430500D01*
X135991158Y-123430500D01*
X136148844Y-123430500D01*
X136148845Y-123430499D01*
X136303497Y-123399737D01*
X136449179Y-123339394D01*
X136580289Y-123251789D01*
X136691789Y-123140289D01*
X136779394Y-123009179D01*
X136839737Y-122863497D01*
X136870500Y-122708842D01*
X136870500Y-122551158D01*
X136870500Y-122551155D01*
X136870499Y-122551153D01*
X136844641Y-122421158D01*
X136839737Y-122396503D01*
X136805635Y-122314173D01*
X136779397Y-122250827D01*
X136779390Y-122250814D01*
X136691789Y-122119711D01*
X136691786Y-122119707D01*
X136580292Y-122008213D01*
X136580288Y-122008210D01*
X136449185Y-121920609D01*
X136449172Y-121920602D01*
X136303501Y-121860264D01*
X136303489Y-121860261D01*
X136148845Y-121829500D01*
X136148842Y-121829500D01*
X135991158Y-121829500D01*
X135991155Y-121829500D01*
X135836510Y-121860261D01*
X135836498Y-121860264D01*
X135690827Y-121920602D01*
X135690814Y-121920609D01*
X135559711Y-122008210D01*
X135559707Y-122008213D01*
X135448213Y-122119707D01*
X135448210Y-122119711D01*
X135360609Y-122250814D01*
X135360602Y-122250827D01*
X135300264Y-122396498D01*
X135300261Y-122396510D01*
X135269500Y-122551153D01*
X132680000Y-122551153D01*
X132680000Y-121910000D01*
X131763012Y-121910000D01*
X131795925Y-121852993D01*
X131830000Y-121725826D01*
X131830000Y-121594174D01*
X131795925Y-121467007D01*
X131763012Y-121410000D01*
X132680000Y-121410000D01*
X132680000Y-120762172D01*
X132679999Y-120762155D01*
X132673598Y-120702627D01*
X132673596Y-120702620D01*
X132623354Y-120567913D01*
X132623350Y-120567906D01*
X132537190Y-120452812D01*
X132530918Y-120446540D01*
X132532140Y-120445317D01*
X132496594Y-120397834D01*
X132491610Y-120328142D01*
X132525094Y-120266819D01*
X132586417Y-120233334D01*
X132612776Y-120230500D01*
X141638996Y-120230500D01*
X141730040Y-120212389D01*
X141774328Y-120203580D01*
X141843237Y-120175037D01*
X141901807Y-120150777D01*
X141901808Y-120150776D01*
X141901811Y-120150775D01*
X142016543Y-120074114D01*
X143474586Y-118616069D01*
X143514810Y-118589192D01*
X143596677Y-118555283D01*
X143659173Y-118529397D01*
X143659176Y-118529395D01*
X143659179Y-118529394D01*
X143690488Y-118508474D01*
X143776609Y-118450930D01*
X143843286Y-118430052D01*
X143910667Y-118448536D01*
X143957357Y-118500515D01*
X143969500Y-118554032D01*
X143969500Y-121338480D01*
X143949815Y-121405519D01*
X143933181Y-121426161D01*
X141605412Y-123753929D01*
X141565184Y-123780809D01*
X141420823Y-123840604D01*
X141420814Y-123840609D01*
X141289711Y-123928210D01*
X141289707Y-123928213D01*
X141178213Y-124039707D01*
X141178210Y-124039711D01*
X141090609Y-124170814D01*
X141090602Y-124170827D01*
X141030264Y-124316498D01*
X141030261Y-124316510D01*
X140999500Y-124471153D01*
X140999500Y-124628846D01*
X141030261Y-124783489D01*
X141030264Y-124783501D01*
X141090602Y-124929172D01*
X141090609Y-124929185D01*
X141178210Y-125060288D01*
X141178213Y-125060292D01*
X141289707Y-125171786D01*
X141289711Y-125171789D01*
X141420814Y-125259390D01*
X141420827Y-125259397D01*
X141566498Y-125319735D01*
X141566503Y-125319737D01*
X141721153Y-125350499D01*
X141721156Y-125350500D01*
X141721158Y-125350500D01*
X141878844Y-125350500D01*
X141878845Y-125350499D01*
X142033497Y-125319737D01*
X142179179Y-125259394D01*
X142310289Y-125171789D01*
X142421789Y-125060289D01*
X142509394Y-124929179D01*
X142509395Y-124929176D01*
X142509397Y-124929173D01*
X142554139Y-124821153D01*
X150439500Y-124821153D01*
X150439500Y-124978846D01*
X150470261Y-125133489D01*
X150470264Y-125133501D01*
X150530602Y-125279172D01*
X150530609Y-125279185D01*
X150618210Y-125410288D01*
X150618213Y-125410292D01*
X150729707Y-125521786D01*
X150729711Y-125521789D01*
X150860814Y-125609390D01*
X150860827Y-125609397D01*
X151006498Y-125669735D01*
X151006503Y-125669737D01*
X151161153Y-125700499D01*
X151161156Y-125700500D01*
X151161158Y-125700500D01*
X151318844Y-125700500D01*
X151318845Y-125700499D01*
X151473497Y-125669737D01*
X151619179Y-125609394D01*
X151750289Y-125521789D01*
X151861789Y-125410289D01*
X151949394Y-125279179D01*
X152009737Y-125133497D01*
X152040500Y-124978842D01*
X152040500Y-124821158D01*
X152040500Y-124821155D01*
X152040499Y-124821153D01*
X152033270Y-124784812D01*
X152009737Y-124666503D01*
X151994139Y-124628846D01*
X151949397Y-124520827D01*
X151949390Y-124520814D01*
X151861789Y-124389711D01*
X151861786Y-124389707D01*
X151750292Y-124278213D01*
X151750288Y-124278210D01*
X151619185Y-124190609D01*
X151619172Y-124190602D01*
X151473501Y-124130264D01*
X151473489Y-124130261D01*
X151318845Y-124099500D01*
X151318842Y-124099500D01*
X151161158Y-124099500D01*
X151161155Y-124099500D01*
X151006510Y-124130261D01*
X151006498Y-124130264D01*
X150860827Y-124190602D01*
X150860814Y-124190609D01*
X150729711Y-124278210D01*
X150729707Y-124278213D01*
X150618213Y-124389707D01*
X150618210Y-124389711D01*
X150530609Y-124520814D01*
X150530602Y-124520827D01*
X150470264Y-124666498D01*
X150470261Y-124666510D01*
X150439500Y-124821153D01*
X142554139Y-124821153D01*
X142569192Y-124784812D01*
X142573824Y-124777879D01*
X142574921Y-124772837D01*
X142596069Y-124744586D01*
X144066609Y-123274046D01*
X144127930Y-123240563D01*
X144197622Y-123245547D01*
X144241969Y-123274048D01*
X144289707Y-123321786D01*
X144289711Y-123321789D01*
X144420814Y-123409390D01*
X144420827Y-123409397D01*
X144566498Y-123469735D01*
X144566503Y-123469737D01*
X144721153Y-123500499D01*
X144721156Y-123500500D01*
X144721158Y-123500500D01*
X144878844Y-123500500D01*
X144878845Y-123500499D01*
X145033497Y-123469737D01*
X145179179Y-123409394D01*
X145310289Y-123321789D01*
X145421789Y-123210289D01*
X145509394Y-123079179D01*
X145569737Y-122933497D01*
X145570327Y-122930529D01*
X145571064Y-122929119D01*
X145571506Y-122927665D01*
X145571781Y-122927748D01*
X145602708Y-122868619D01*
X145663422Y-122834042D01*
X145733192Y-122837778D01*
X145789866Y-122878642D01*
X145795047Y-122885826D01*
X145878210Y-123010288D01*
X145878213Y-123010292D01*
X145989707Y-123121786D01*
X145989711Y-123121789D01*
X146120814Y-123209390D01*
X146120827Y-123209397D01*
X146223165Y-123251786D01*
X146266503Y-123269737D01*
X146421153Y-123300499D01*
X146421156Y-123300500D01*
X146421158Y-123300500D01*
X146578844Y-123300500D01*
X146578845Y-123300499D01*
X146733497Y-123269737D01*
X146879179Y-123209394D01*
X147010289Y-123121789D01*
X147121789Y-123010289D01*
X147209394Y-122879179D01*
X147209617Y-122878642D01*
X147228090Y-122834042D01*
X147269737Y-122733497D01*
X147300500Y-122578842D01*
X147300500Y-122421158D01*
X147300500Y-122421155D01*
X147300499Y-122421153D01*
X147295595Y-122396498D01*
X147269737Y-122266503D01*
X147263241Y-122250821D01*
X147209397Y-122120827D01*
X147209390Y-122120814D01*
X147121789Y-121989711D01*
X147121786Y-121989707D01*
X147010292Y-121878213D01*
X147010288Y-121878210D01*
X146879185Y-121790609D01*
X146879172Y-121790602D01*
X146733501Y-121730264D01*
X146733489Y-121730261D01*
X146578845Y-121699500D01*
X146578842Y-121699500D01*
X146421158Y-121699500D01*
X146421155Y-121699500D01*
X146266510Y-121730261D01*
X146266498Y-121730264D01*
X146120827Y-121790602D01*
X146120814Y-121790609D01*
X145989711Y-121878210D01*
X145989707Y-121878213D01*
X145878213Y-121989707D01*
X145878210Y-121989711D01*
X145790609Y-122120814D01*
X145790602Y-122120827D01*
X145730264Y-122266498D01*
X145730259Y-122266515D01*
X145729669Y-122269483D01*
X145728931Y-122270892D01*
X145728494Y-122272335D01*
X145728220Y-122272251D01*
X145697280Y-122331391D01*
X145636561Y-122365961D01*
X145566792Y-122362215D01*
X145510123Y-122321345D01*
X145504952Y-122314173D01*
X145421789Y-122189710D01*
X145335629Y-122103550D01*
X145302144Y-122042227D01*
X145307128Y-121972535D01*
X145308735Y-121968451D01*
X145343580Y-121884328D01*
X145370500Y-121748994D01*
X145370500Y-121611006D01*
X145370500Y-121271153D01*
X151999500Y-121271153D01*
X151999500Y-121428846D01*
X152030261Y-121583489D01*
X152030264Y-121583501D01*
X152090602Y-121729172D01*
X152090609Y-121729185D01*
X152178210Y-121860288D01*
X152178213Y-121860292D01*
X152289707Y-121971786D01*
X152289711Y-121971789D01*
X152420814Y-122059390D01*
X152420827Y-122059397D01*
X152566440Y-122119711D01*
X152566503Y-122119737D01*
X152721153Y-122150499D01*
X152721156Y-122150500D01*
X152721158Y-122150500D01*
X152878844Y-122150500D01*
X152878845Y-122150499D01*
X153033497Y-122119737D01*
X153179179Y-122059394D01*
X153310289Y-121971789D01*
X153421789Y-121860289D01*
X153509394Y-121729179D01*
X153569737Y-121583497D01*
X153600500Y-121428842D01*
X153600500Y-121271158D01*
X153600500Y-121271155D01*
X153600499Y-121271153D01*
X153569738Y-121116510D01*
X153569737Y-121116503D01*
X153569735Y-121116498D01*
X153509397Y-120970827D01*
X153509390Y-120970814D01*
X153421789Y-120839711D01*
X153421786Y-120839707D01*
X153310292Y-120728213D01*
X153310288Y-120728210D01*
X153179185Y-120640609D01*
X153179172Y-120640602D01*
X153033501Y-120580264D01*
X153033489Y-120580261D01*
X152878845Y-120549500D01*
X152878842Y-120549500D01*
X152721158Y-120549500D01*
X152721155Y-120549500D01*
X152566510Y-120580261D01*
X152566498Y-120580264D01*
X152420827Y-120640602D01*
X152420814Y-120640609D01*
X152289711Y-120728210D01*
X152289707Y-120728213D01*
X152178213Y-120839707D01*
X152178210Y-120839711D01*
X152090609Y-120970814D01*
X152090602Y-120970827D01*
X152030264Y-121116498D01*
X152030261Y-121116510D01*
X151999500Y-121271153D01*
X145370500Y-121271153D01*
X145370500Y-115771153D01*
X150899500Y-115771153D01*
X150899500Y-115928846D01*
X150930261Y-116083489D01*
X150930264Y-116083501D01*
X150990602Y-116229172D01*
X150990609Y-116229185D01*
X151078210Y-116360288D01*
X151078213Y-116360292D01*
X151189707Y-116471786D01*
X151189711Y-116471789D01*
X151320814Y-116559390D01*
X151320827Y-116559397D01*
X151466498Y-116619735D01*
X151466503Y-116619737D01*
X151621153Y-116650499D01*
X151621156Y-116650500D01*
X151621158Y-116650500D01*
X151778844Y-116650500D01*
X151778845Y-116650499D01*
X151933497Y-116619737D01*
X152079179Y-116559394D01*
X152210289Y-116471789D01*
X152321789Y-116360289D01*
X152409394Y-116229179D01*
X152469737Y-116083497D01*
X152500500Y-115928842D01*
X152500500Y-115771158D01*
X152500500Y-115771155D01*
X152500499Y-115771153D01*
X152469738Y-115616510D01*
X152469737Y-115616503D01*
X152460173Y-115593414D01*
X152409397Y-115470827D01*
X152409390Y-115470814D01*
X152321789Y-115339711D01*
X152321786Y-115339707D01*
X152210292Y-115228213D01*
X152210288Y-115228210D01*
X152079185Y-115140609D01*
X152079172Y-115140602D01*
X151933501Y-115080264D01*
X151933489Y-115080261D01*
X151778845Y-115049500D01*
X151778842Y-115049500D01*
X151621158Y-115049500D01*
X151621155Y-115049500D01*
X151466510Y-115080261D01*
X151466498Y-115080264D01*
X151320827Y-115140602D01*
X151320814Y-115140609D01*
X151189711Y-115228210D01*
X151189707Y-115228213D01*
X151078213Y-115339707D01*
X151078210Y-115339711D01*
X150990609Y-115470814D01*
X150990602Y-115470827D01*
X150930264Y-115616498D01*
X150930261Y-115616510D01*
X150899500Y-115771153D01*
X145370500Y-115771153D01*
X145370500Y-115571007D01*
X145366105Y-115548914D01*
X145343580Y-115435672D01*
X145339139Y-115424951D01*
X145290777Y-115308192D01*
X145214112Y-115193454D01*
X143791811Y-113771153D01*
X151899500Y-113771153D01*
X151899500Y-113928846D01*
X151930261Y-114083489D01*
X151930264Y-114083501D01*
X151990602Y-114229172D01*
X151990609Y-114229185D01*
X152078210Y-114360288D01*
X152078213Y-114360292D01*
X152189707Y-114471786D01*
X152189711Y-114471789D01*
X152320814Y-114559390D01*
X152320827Y-114559397D01*
X152432327Y-114605581D01*
X152466503Y-114619737D01*
X152621153Y-114650499D01*
X152621156Y-114650500D01*
X152621158Y-114650500D01*
X152778844Y-114650500D01*
X152778845Y-114650499D01*
X152933497Y-114619737D01*
X153079179Y-114559394D01*
X153210289Y-114471789D01*
X153321789Y-114360289D01*
X153409394Y-114229179D01*
X153469737Y-114083497D01*
X153500500Y-113928842D01*
X153500500Y-113771158D01*
X153500500Y-113771155D01*
X153500499Y-113771153D01*
X153485254Y-113694514D01*
X153469737Y-113616503D01*
X153448447Y-113565104D01*
X153409397Y-113470827D01*
X153409390Y-113470814D01*
X153321789Y-113339711D01*
X153321786Y-113339707D01*
X153210292Y-113228213D01*
X153210288Y-113228210D01*
X153079185Y-113140609D01*
X153079172Y-113140602D01*
X152933501Y-113080264D01*
X152933489Y-113080261D01*
X152778845Y-113049500D01*
X152778842Y-113049500D01*
X152621158Y-113049500D01*
X152621155Y-113049500D01*
X152466510Y-113080261D01*
X152466498Y-113080264D01*
X152320827Y-113140602D01*
X152320814Y-113140609D01*
X152189711Y-113228210D01*
X152189707Y-113228213D01*
X152078213Y-113339707D01*
X152078210Y-113339711D01*
X151990609Y-113470814D01*
X151990602Y-113470827D01*
X151930264Y-113616498D01*
X151930261Y-113616510D01*
X151899500Y-113771153D01*
X143791811Y-113771153D01*
X140971811Y-110951153D01*
X146784500Y-110951153D01*
X146784500Y-111108846D01*
X146815261Y-111263489D01*
X146815264Y-111263501D01*
X146875602Y-111409172D01*
X146875609Y-111409185D01*
X146963210Y-111540288D01*
X146963213Y-111540292D01*
X147074707Y-111651786D01*
X147074711Y-111651789D01*
X147205814Y-111739390D01*
X147205827Y-111739397D01*
X147279013Y-111769711D01*
X147351503Y-111799737D01*
X147506153Y-111830499D01*
X147506156Y-111830500D01*
X147506158Y-111830500D01*
X147663844Y-111830500D01*
X147663845Y-111830499D01*
X147818497Y-111799737D01*
X147964179Y-111739394D01*
X148095289Y-111651789D01*
X148206789Y-111540289D01*
X148294394Y-111409179D01*
X148354737Y-111263497D01*
X148385500Y-111108842D01*
X148385500Y-110951158D01*
X148385500Y-110951155D01*
X148385499Y-110951153D01*
X148354739Y-110796511D01*
X148354738Y-110796508D01*
X148354737Y-110796503D01*
X148340849Y-110762973D01*
X156097000Y-110762973D01*
X156097000Y-111007027D01*
X156098579Y-111016997D01*
X156127967Y-111202546D01*
X156135179Y-111248076D01*
X156210596Y-111480185D01*
X156301304Y-111658211D01*
X156321396Y-111697642D01*
X156464839Y-111895076D01*
X156464843Y-111895081D01*
X156637418Y-112067656D01*
X156637423Y-112067660D01*
X156749478Y-112149072D01*
X156834861Y-112211106D01*
X157052315Y-112321904D01*
X157284424Y-112397321D01*
X157525473Y-112435500D01*
X157525474Y-112435500D01*
X157769526Y-112435500D01*
X157769527Y-112435500D01*
X158010576Y-112397321D01*
X158242685Y-112321904D01*
X158460139Y-112211106D01*
X158657583Y-112067655D01*
X158830155Y-111895083D01*
X158973606Y-111697639D01*
X159084404Y-111480185D01*
X159159821Y-111248076D01*
X159198000Y-111007027D01*
X159198000Y-110885988D01*
X159217685Y-110818949D01*
X159270489Y-110773194D01*
X159339647Y-110763250D01*
X159394887Y-110785671D01*
X159416579Y-110801432D01*
X159609490Y-110899726D01*
X159609493Y-110899727D01*
X159645940Y-110911569D01*
X159815403Y-110966630D01*
X160029246Y-111000500D01*
X160029247Y-111000500D01*
X160245753Y-111000500D01*
X160245754Y-111000500D01*
X160459597Y-110966630D01*
X160665509Y-110899726D01*
X160858419Y-110801433D01*
X161033578Y-110674172D01*
X161186672Y-110521078D01*
X161313933Y-110345919D01*
X161412226Y-110153009D01*
X161479130Y-109947097D01*
X161513000Y-109733254D01*
X161513000Y-109516746D01*
X161479130Y-109302903D01*
X161436322Y-109171153D01*
X161412227Y-109096993D01*
X161412226Y-109096990D01*
X161337584Y-108950499D01*
X161313933Y-108904081D01*
X161186672Y-108728922D01*
X161033578Y-108575828D01*
X160858419Y-108448567D01*
X160820368Y-108429179D01*
X160665509Y-108350273D01*
X160665506Y-108350272D01*
X160459598Y-108283370D01*
X160352675Y-108266435D01*
X160245754Y-108249500D01*
X160029246Y-108249500D01*
X159957965Y-108260790D01*
X159815401Y-108283370D01*
X159609493Y-108350272D01*
X159609490Y-108350273D01*
X159416580Y-108448567D01*
X159317142Y-108520814D01*
X159241422Y-108575828D01*
X159241420Y-108575830D01*
X159241419Y-108575830D01*
X159088330Y-108728919D01*
X159088330Y-108728920D01*
X159088328Y-108728922D01*
X159057183Y-108771789D01*
X158961067Y-108904080D01*
X158862773Y-109096990D01*
X158862772Y-109096993D01*
X158795870Y-109302901D01*
X158762000Y-109516746D01*
X158762000Y-109534844D01*
X158742315Y-109601883D01*
X158689511Y-109647638D01*
X158620353Y-109657582D01*
X158565115Y-109635162D01*
X158460143Y-109558896D01*
X158242687Y-109448097D01*
X158242686Y-109448096D01*
X158242685Y-109448096D01*
X158010576Y-109372679D01*
X158010574Y-109372678D01*
X158010572Y-109372678D01*
X157842269Y-109346021D01*
X157769527Y-109334500D01*
X157525473Y-109334500D01*
X157469593Y-109343350D01*
X157284427Y-109372678D01*
X157052312Y-109448097D01*
X156834857Y-109558896D01*
X156637423Y-109702339D01*
X156637418Y-109702343D01*
X156464843Y-109874918D01*
X156464839Y-109874923D01*
X156321396Y-110072357D01*
X156210597Y-110289812D01*
X156135178Y-110521927D01*
X156114763Y-110650821D01*
X156097000Y-110762973D01*
X148340849Y-110762973D01*
X148315931Y-110702816D01*
X148294397Y-110650827D01*
X148294390Y-110650814D01*
X148206789Y-110519711D01*
X148206786Y-110519707D01*
X148095292Y-110408213D01*
X148095288Y-110408210D01*
X147964185Y-110320609D01*
X147964172Y-110320602D01*
X147818501Y-110260264D01*
X147818489Y-110260261D01*
X147663845Y-110229500D01*
X147663842Y-110229500D01*
X147506158Y-110229500D01*
X147506155Y-110229500D01*
X147351510Y-110260261D01*
X147351498Y-110260264D01*
X147205827Y-110320602D01*
X147205814Y-110320609D01*
X147074711Y-110408210D01*
X147074707Y-110408213D01*
X146963213Y-110519707D01*
X146963210Y-110519711D01*
X146875609Y-110650814D01*
X146875602Y-110650827D01*
X146815264Y-110796498D01*
X146815261Y-110796510D01*
X146784500Y-110951153D01*
X140971811Y-110951153D01*
X139771811Y-109751153D01*
X140879500Y-109751153D01*
X140879500Y-109908846D01*
X140910261Y-110063489D01*
X140910264Y-110063501D01*
X140970602Y-110209172D01*
X140970609Y-110209185D01*
X141058210Y-110340288D01*
X141058213Y-110340292D01*
X141169707Y-110451786D01*
X141169711Y-110451789D01*
X141300814Y-110539390D01*
X141300827Y-110539397D01*
X141446498Y-110599735D01*
X141446503Y-110599737D01*
X141601153Y-110630499D01*
X141601156Y-110630500D01*
X141601158Y-110630500D01*
X141758844Y-110630500D01*
X141758845Y-110630499D01*
X141913497Y-110599737D01*
X142059179Y-110539394D01*
X142190289Y-110451789D01*
X142301789Y-110340289D01*
X142389394Y-110209179D01*
X142449737Y-110063497D01*
X142473028Y-109946404D01*
X142505412Y-109884494D01*
X142566128Y-109849920D01*
X142635897Y-109853659D01*
X142663939Y-109869462D01*
X142664646Y-109868405D01*
X142800814Y-109959390D01*
X142800827Y-109959397D01*
X142946498Y-110019735D01*
X142946503Y-110019737D01*
X143101153Y-110050499D01*
X143101156Y-110050500D01*
X143101158Y-110050500D01*
X143258844Y-110050500D01*
X143258845Y-110050499D01*
X143413497Y-110019737D01*
X143559179Y-109959394D01*
X143690289Y-109871789D01*
X143801789Y-109760289D01*
X143889394Y-109629179D01*
X143949737Y-109483497D01*
X143980500Y-109328842D01*
X143980500Y-109171158D01*
X143980500Y-109171155D01*
X143980499Y-109171153D01*
X143974139Y-109139179D01*
X143949737Y-109016503D01*
X143940208Y-108993497D01*
X143889397Y-108870827D01*
X143889390Y-108870814D01*
X143804626Y-108743957D01*
X143804625Y-108743955D01*
X143804624Y-108743954D01*
X143801788Y-108739709D01*
X143743232Y-108681153D01*
X144323500Y-108681153D01*
X144323500Y-108838846D01*
X144354261Y-108993489D01*
X144354264Y-108993501D01*
X144414602Y-109139172D01*
X144414609Y-109139185D01*
X144502210Y-109270288D01*
X144502213Y-109270292D01*
X144613707Y-109381786D01*
X144613711Y-109381789D01*
X144744814Y-109469390D01*
X144744827Y-109469397D01*
X144890498Y-109529735D01*
X144890503Y-109529737D01*
X145037084Y-109558894D01*
X145045153Y-109560499D01*
X145045156Y-109560500D01*
X145045158Y-109560500D01*
X145202844Y-109560500D01*
X145202845Y-109560499D01*
X145357497Y-109529737D01*
X145503179Y-109469394D01*
X145634289Y-109381789D01*
X145687236Y-109328842D01*
X145750097Y-109265982D01*
X145751542Y-109267427D01*
X145801551Y-109233347D01*
X145871395Y-109231460D01*
X145931172Y-109267633D01*
X145942788Y-109282446D01*
X146028210Y-109410288D01*
X146028213Y-109410292D01*
X146139707Y-109521786D01*
X146139711Y-109521789D01*
X146270814Y-109609390D01*
X146270827Y-109609397D01*
X146387158Y-109657582D01*
X146416503Y-109669737D01*
X146571153Y-109700499D01*
X146571156Y-109700500D01*
X146571158Y-109700500D01*
X146728844Y-109700500D01*
X146728845Y-109700499D01*
X146883497Y-109669737D01*
X147029179Y-109609394D01*
X147160289Y-109521789D01*
X147271789Y-109410289D01*
X147359394Y-109279179D01*
X147364177Y-109267633D01*
X147404137Y-109171158D01*
X147419737Y-109133497D01*
X147450500Y-108978842D01*
X147450500Y-108821158D01*
X147450500Y-108821155D01*
X147450499Y-108821153D01*
X147440679Y-108771786D01*
X147419737Y-108666503D01*
X147413278Y-108650909D01*
X147359397Y-108520827D01*
X147359390Y-108520814D01*
X147271789Y-108389711D01*
X147271786Y-108389707D01*
X147160292Y-108278213D01*
X147160288Y-108278210D01*
X147029185Y-108190609D01*
X147029172Y-108190602D01*
X146883501Y-108130264D01*
X146883489Y-108130261D01*
X146728845Y-108099500D01*
X146728842Y-108099500D01*
X146571158Y-108099500D01*
X146571155Y-108099500D01*
X146416510Y-108130261D01*
X146416498Y-108130264D01*
X146270827Y-108190602D01*
X146270814Y-108190609D01*
X146139711Y-108278210D01*
X146139707Y-108278213D01*
X146023903Y-108394018D01*
X146022464Y-108392579D01*
X145972393Y-108426670D01*
X145902548Y-108428524D01*
X145842788Y-108392323D01*
X145831211Y-108377553D01*
X145745789Y-108249711D01*
X145745786Y-108249707D01*
X145634292Y-108138213D01*
X145634288Y-108138210D01*
X145529463Y-108068168D01*
X145503184Y-108050609D01*
X145503172Y-108050602D01*
X145357501Y-107990264D01*
X145357489Y-107990261D01*
X145261428Y-107971153D01*
X149049500Y-107971153D01*
X149049500Y-108128846D01*
X149080261Y-108283489D01*
X149080264Y-108283501D01*
X149140602Y-108429172D01*
X149140609Y-108429185D01*
X149228210Y-108560288D01*
X149228213Y-108560292D01*
X149339707Y-108671786D01*
X149339711Y-108671789D01*
X149470814Y-108759390D01*
X149470827Y-108759397D01*
X149616498Y-108819735D01*
X149616503Y-108819737D01*
X149771153Y-108850499D01*
X149771156Y-108850500D01*
X149771158Y-108850500D01*
X149928844Y-108850500D01*
X149928845Y-108850499D01*
X150083497Y-108819737D01*
X150229179Y-108759394D01*
X150233361Y-108756599D01*
X150300034Y-108735717D01*
X150367416Y-108754197D01*
X150384907Y-108768037D01*
X150385001Y-108767924D01*
X150389711Y-108771789D01*
X150520814Y-108859390D01*
X150520827Y-108859397D01*
X150666498Y-108919735D01*
X150666503Y-108919737D01*
X150821153Y-108950499D01*
X150821156Y-108950500D01*
X150821158Y-108950500D01*
X150978844Y-108950500D01*
X150978845Y-108950499D01*
X151133497Y-108919737D01*
X151251592Y-108870821D01*
X151279172Y-108859397D01*
X151279172Y-108859396D01*
X151279179Y-108859394D01*
X151410289Y-108771789D01*
X151521789Y-108660289D01*
X151609394Y-108529179D01*
X151610503Y-108526503D01*
X151629655Y-108480264D01*
X151669737Y-108383497D01*
X151700500Y-108228842D01*
X151700500Y-108071158D01*
X151700500Y-108071155D01*
X151700499Y-108071153D01*
X151699905Y-108068168D01*
X151669737Y-107916503D01*
X151628314Y-107816498D01*
X151609397Y-107770827D01*
X151609390Y-107770814D01*
X151521789Y-107639711D01*
X151521786Y-107639707D01*
X151410292Y-107528213D01*
X151410288Y-107528210D01*
X151279185Y-107440609D01*
X151279172Y-107440602D01*
X151133501Y-107380264D01*
X151133489Y-107380261D01*
X150978845Y-107349500D01*
X150978842Y-107349500D01*
X150821158Y-107349500D01*
X150821155Y-107349500D01*
X150666510Y-107380261D01*
X150666498Y-107380264D01*
X150520828Y-107440602D01*
X150520812Y-107440611D01*
X150516623Y-107443410D01*
X150449943Y-107464281D01*
X150382565Y-107445790D01*
X150365091Y-107431962D01*
X150364999Y-107432076D01*
X150360288Y-107428210D01*
X150229185Y-107340609D01*
X150229172Y-107340602D01*
X150083501Y-107280264D01*
X150083489Y-107280261D01*
X149928845Y-107249500D01*
X149928842Y-107249500D01*
X149771158Y-107249500D01*
X149771155Y-107249500D01*
X149616510Y-107280261D01*
X149616498Y-107280264D01*
X149470827Y-107340602D01*
X149470814Y-107340609D01*
X149339711Y-107428210D01*
X149339707Y-107428213D01*
X149228213Y-107539707D01*
X149228210Y-107539711D01*
X149140609Y-107670814D01*
X149140602Y-107670827D01*
X149080264Y-107816498D01*
X149080261Y-107816510D01*
X149049500Y-107971153D01*
X145261428Y-107971153D01*
X145202845Y-107959500D01*
X145202842Y-107959500D01*
X145045158Y-107959500D01*
X145045155Y-107959500D01*
X144890510Y-107990261D01*
X144890498Y-107990264D01*
X144744827Y-108050602D01*
X144744814Y-108050609D01*
X144613711Y-108138210D01*
X144613707Y-108138213D01*
X144502213Y-108249707D01*
X144502210Y-108249711D01*
X144414609Y-108380814D01*
X144414602Y-108380827D01*
X144354264Y-108526498D01*
X144354261Y-108526510D01*
X144323500Y-108681153D01*
X143743232Y-108681153D01*
X143690292Y-108628213D01*
X143690288Y-108628210D01*
X143559185Y-108540609D01*
X143559172Y-108540602D01*
X143413501Y-108480264D01*
X143413489Y-108480261D01*
X143258845Y-108449500D01*
X143258842Y-108449500D01*
X143101158Y-108449500D01*
X143101155Y-108449500D01*
X142946510Y-108480261D01*
X142946498Y-108480264D01*
X142800827Y-108540602D01*
X142800814Y-108540609D01*
X142669711Y-108628210D01*
X142669707Y-108628213D01*
X142558213Y-108739707D01*
X142558210Y-108739711D01*
X142470609Y-108870814D01*
X142470602Y-108870827D01*
X142410264Y-109016498D01*
X142410261Y-109016508D01*
X142386971Y-109133595D01*
X142354586Y-109195506D01*
X142293870Y-109230080D01*
X142224100Y-109226340D01*
X142196059Y-109210538D01*
X142195354Y-109211595D01*
X142059185Y-109120609D01*
X142059172Y-109120602D01*
X141913501Y-109060264D01*
X141913489Y-109060261D01*
X141758845Y-109029500D01*
X141758842Y-109029500D01*
X141601158Y-109029500D01*
X141601155Y-109029500D01*
X141446510Y-109060261D01*
X141446498Y-109060264D01*
X141300827Y-109120602D01*
X141300814Y-109120609D01*
X141169711Y-109208210D01*
X141169707Y-109208213D01*
X141058213Y-109319707D01*
X141058210Y-109319711D01*
X140970609Y-109450814D01*
X140970602Y-109450827D01*
X140910264Y-109596498D01*
X140910261Y-109596510D01*
X140879500Y-109751153D01*
X139771811Y-109751153D01*
X137146545Y-107125887D01*
X137031807Y-107049222D01*
X136904332Y-106996421D01*
X136904322Y-106996418D01*
X136768996Y-106969500D01*
X136768994Y-106969500D01*
X136768993Y-106969500D01*
X130292883Y-106969500D01*
X130225844Y-106949815D01*
X130205202Y-106933181D01*
X129570611Y-106298590D01*
X128826910Y-105554888D01*
X128826909Y-105554887D01*
X128712171Y-105478222D01*
X128584696Y-105425421D01*
X128584686Y-105425418D01*
X128449360Y-105398500D01*
X128449358Y-105398500D01*
X128449357Y-105398500D01*
X121184124Y-105398500D01*
X121117085Y-105378815D01*
X121071330Y-105326011D01*
X121061386Y-105256853D01*
X121073640Y-105218204D01*
X121089407Y-105187259D01*
X121142914Y-105022584D01*
X121170000Y-104851571D01*
X121170000Y-104740000D01*
X120350330Y-104740000D01*
X120370075Y-104720255D01*
X120419444Y-104634745D01*
X120445000Y-104539370D01*
X120445000Y-104440630D01*
X120433082Y-104396153D01*
X133924500Y-104396153D01*
X133924500Y-104553846D01*
X133955261Y-104708489D01*
X133955264Y-104708501D01*
X134015602Y-104854172D01*
X134015609Y-104854185D01*
X134103210Y-104985288D01*
X134103213Y-104985292D01*
X134214707Y-105096786D01*
X134214711Y-105096789D01*
X134345814Y-105184390D01*
X134345827Y-105184397D01*
X134491498Y-105244735D01*
X134491503Y-105244737D01*
X134607428Y-105267796D01*
X134646153Y-105275499D01*
X134646156Y-105275500D01*
X134646158Y-105275500D01*
X134803844Y-105275500D01*
X134803845Y-105275499D01*
X134958497Y-105244737D01*
X135104179Y-105184394D01*
X135235289Y-105096789D01*
X135237313Y-105094764D01*
X135238633Y-105094043D01*
X135239993Y-105092928D01*
X135240204Y-105093185D01*
X135298631Y-105061276D01*
X135368323Y-105066255D01*
X135412680Y-105094759D01*
X135464707Y-105146786D01*
X135464711Y-105146789D01*
X135595814Y-105234390D01*
X135595827Y-105234397D01*
X135740665Y-105294390D01*
X135741503Y-105294737D01*
X135896153Y-105325499D01*
X135896156Y-105325500D01*
X135896158Y-105325500D01*
X136053844Y-105325500D01*
X136053845Y-105325499D01*
X136208497Y-105294737D01*
X136354179Y-105234394D01*
X136485289Y-105146789D01*
X136502316Y-105129761D01*
X136563635Y-105096275D01*
X136633327Y-105101256D01*
X136677680Y-105129759D01*
X136754707Y-105206786D01*
X136754711Y-105206789D01*
X136885814Y-105294390D01*
X136885827Y-105294397D01*
X137007363Y-105344738D01*
X137031503Y-105354737D01*
X137186153Y-105385499D01*
X137186156Y-105385500D01*
X137186158Y-105385500D01*
X137343844Y-105385500D01*
X137343845Y-105385499D01*
X137498497Y-105354737D01*
X137644179Y-105294394D01*
X137775289Y-105206789D01*
X137812318Y-105169760D01*
X137873640Y-105136274D01*
X137943332Y-105141258D01*
X137987680Y-105169758D01*
X138002312Y-105184390D01*
X138014712Y-105196790D01*
X138145814Y-105284390D01*
X138145827Y-105284397D01*
X138245060Y-105325500D01*
X138291503Y-105344737D01*
X138417176Y-105369735D01*
X138446153Y-105375499D01*
X138446156Y-105375500D01*
X138446158Y-105375500D01*
X138603844Y-105375500D01*
X138603845Y-105375499D01*
X138758497Y-105344737D01*
X138879213Y-105294735D01*
X138904172Y-105284397D01*
X138904172Y-105284396D01*
X138904179Y-105284394D01*
X139035289Y-105196789D01*
X139047688Y-105184390D01*
X139062319Y-105169760D01*
X139123642Y-105136275D01*
X139193334Y-105141259D01*
X139237681Y-105169760D01*
X139289707Y-105221786D01*
X139289711Y-105221789D01*
X139420814Y-105309390D01*
X139420827Y-105309397D01*
X139566498Y-105369735D01*
X139566503Y-105369737D01*
X139721153Y-105400499D01*
X139721156Y-105400500D01*
X139721158Y-105400500D01*
X139878844Y-105400500D01*
X139878845Y-105400499D01*
X140033497Y-105369737D01*
X140146166Y-105323067D01*
X140179172Y-105309397D01*
X140179172Y-105309396D01*
X140179179Y-105309394D01*
X140310289Y-105221789D01*
X140421789Y-105110289D01*
X140509394Y-104979179D01*
X140569737Y-104833497D01*
X140600500Y-104678842D01*
X140600500Y-104521158D01*
X140600500Y-104521155D01*
X140600499Y-104521153D01*
X140594302Y-104490000D01*
X140569737Y-104366503D01*
X140560989Y-104345383D01*
X140509397Y-104220827D01*
X140509390Y-104220814D01*
X140421789Y-104089711D01*
X140421786Y-104089707D01*
X140310292Y-103978213D01*
X140310288Y-103978210D01*
X140179185Y-103890609D01*
X140179172Y-103890602D01*
X140111717Y-103862662D01*
X140033501Y-103830264D01*
X140033489Y-103830261D01*
X139878845Y-103799500D01*
X139878842Y-103799500D01*
X139721158Y-103799500D01*
X139721155Y-103799500D01*
X139566510Y-103830261D01*
X139566498Y-103830264D01*
X139420827Y-103890602D01*
X139420814Y-103890609D01*
X139289711Y-103978210D01*
X139289707Y-103978213D01*
X139262681Y-104005240D01*
X139201358Y-104038725D01*
X139131666Y-104033741D01*
X139087319Y-104005240D01*
X139035292Y-103953213D01*
X139035288Y-103953210D01*
X138904185Y-103865609D01*
X138904172Y-103865602D01*
X138758501Y-103805264D01*
X138758489Y-103805261D01*
X138603845Y-103774500D01*
X138603842Y-103774500D01*
X138446158Y-103774500D01*
X138446155Y-103774500D01*
X138291510Y-103805261D01*
X138291498Y-103805264D01*
X138145827Y-103865602D01*
X138145814Y-103865609D01*
X138014711Y-103953210D01*
X138014707Y-103953213D01*
X137977681Y-103990240D01*
X137916358Y-104023725D01*
X137846666Y-104018741D01*
X137802319Y-103990240D01*
X137775292Y-103963213D01*
X137775288Y-103963210D01*
X137644185Y-103875609D01*
X137644172Y-103875602D01*
X137498501Y-103815264D01*
X137498489Y-103815261D01*
X137343845Y-103784500D01*
X137343842Y-103784500D01*
X137186158Y-103784500D01*
X137186155Y-103784500D01*
X137031510Y-103815261D01*
X137031498Y-103815264D01*
X136885827Y-103875602D01*
X136885814Y-103875609D01*
X136754711Y-103963210D01*
X136754707Y-103963213D01*
X136737681Y-103980240D01*
X136676358Y-104013725D01*
X136606666Y-104008741D01*
X136562319Y-103980240D01*
X136485292Y-103903213D01*
X136485288Y-103903210D01*
X136354185Y-103815609D01*
X136354172Y-103815602D01*
X136208501Y-103755264D01*
X136208489Y-103755261D01*
X136196987Y-103752973D01*
X156097000Y-103752973D01*
X156097000Y-103997026D01*
X156127552Y-104189925D01*
X156135179Y-104238076D01*
X156210596Y-104470185D01*
X156311138Y-104667511D01*
X156321396Y-104687642D01*
X156464839Y-104885076D01*
X156464843Y-104885081D01*
X156637418Y-105057656D01*
X156637423Y-105057660D01*
X156785176Y-105165008D01*
X156834861Y-105201106D01*
X157052315Y-105311904D01*
X157284424Y-105387321D01*
X157525473Y-105425500D01*
X157525474Y-105425500D01*
X157769526Y-105425500D01*
X157769527Y-105425500D01*
X158010576Y-105387321D01*
X158242685Y-105311904D01*
X158460139Y-105201106D01*
X158565617Y-105124471D01*
X158631420Y-105100993D01*
X158699474Y-105116818D01*
X158748169Y-105166924D01*
X158762500Y-105224791D01*
X158762500Y-105233220D01*
X158796357Y-105446981D01*
X158863235Y-105652814D01*
X158863236Y-105652817D01*
X158961496Y-105845660D01*
X159004329Y-105904615D01*
X159004330Y-105904616D01*
X159658619Y-105250326D01*
X159676234Y-105316063D01*
X159741402Y-105428937D01*
X159833563Y-105521098D01*
X159946437Y-105586266D01*
X160012172Y-105603880D01*
X159357882Y-106258168D01*
X159416842Y-106301005D01*
X159609682Y-106399263D01*
X159609685Y-106399264D01*
X159815518Y-106466142D01*
X160029280Y-106500000D01*
X160245720Y-106500000D01*
X160459481Y-106466142D01*
X160665314Y-106399264D01*
X160665317Y-106399263D01*
X160858156Y-106301006D01*
X160917115Y-106258168D01*
X160917116Y-106258168D01*
X160262827Y-105603880D01*
X160328563Y-105586266D01*
X160441437Y-105521098D01*
X160533598Y-105428937D01*
X160598766Y-105316063D01*
X160616379Y-105250327D01*
X161270668Y-105904616D01*
X161270668Y-105904615D01*
X161313506Y-105845656D01*
X161411763Y-105652817D01*
X161411764Y-105652814D01*
X161478642Y-105446981D01*
X161512500Y-105233220D01*
X161512500Y-105016779D01*
X161478642Y-104803018D01*
X161411764Y-104597185D01*
X161411763Y-104597182D01*
X161313505Y-104404342D01*
X161270668Y-104345383D01*
X161270668Y-104345382D01*
X160616379Y-104999671D01*
X160598766Y-104933937D01*
X160533598Y-104821063D01*
X160441437Y-104728902D01*
X160328563Y-104663734D01*
X160262826Y-104646119D01*
X160917116Y-103991830D01*
X160917115Y-103991829D01*
X160858160Y-103948996D01*
X160665317Y-103850736D01*
X160665314Y-103850735D01*
X160459481Y-103783857D01*
X160245720Y-103750000D01*
X160029280Y-103750000D01*
X159815518Y-103783857D01*
X159609685Y-103850735D01*
X159609682Y-103850736D01*
X159416839Y-103948995D01*
X159394884Y-103964947D01*
X159329077Y-103988426D01*
X159261023Y-103972599D01*
X159212329Y-103922493D01*
X159198000Y-103864628D01*
X159198000Y-103752973D01*
X159191543Y-103712204D01*
X159159821Y-103511924D01*
X159084404Y-103279815D01*
X158973606Y-103062361D01*
X158935773Y-103010288D01*
X158830160Y-102864923D01*
X158830156Y-102864918D01*
X158657581Y-102692343D01*
X158657576Y-102692339D01*
X158460142Y-102548896D01*
X158460141Y-102548895D01*
X158460139Y-102548894D01*
X158242685Y-102438096D01*
X158010576Y-102362679D01*
X158010574Y-102362678D01*
X158010572Y-102362678D01*
X157842269Y-102336021D01*
X157769527Y-102324500D01*
X157525473Y-102324500D01*
X157469593Y-102333350D01*
X157284427Y-102362678D01*
X157052312Y-102438097D01*
X156834857Y-102548896D01*
X156637423Y-102692339D01*
X156637418Y-102692343D01*
X156464843Y-102864918D01*
X156464839Y-102864923D01*
X156321396Y-103062357D01*
X156210597Y-103279812D01*
X156135178Y-103511927D01*
X156097000Y-103752973D01*
X136196987Y-103752973D01*
X136053845Y-103724500D01*
X136053842Y-103724500D01*
X135896158Y-103724500D01*
X135896155Y-103724500D01*
X135741510Y-103755261D01*
X135741498Y-103755264D01*
X135595827Y-103815602D01*
X135595814Y-103815609D01*
X135464714Y-103903208D01*
X135464706Y-103903215D01*
X135462674Y-103905247D01*
X135461349Y-103905970D01*
X135460007Y-103907072D01*
X135459797Y-103906817D01*
X135401349Y-103938727D01*
X135331657Y-103933737D01*
X135287319Y-103905240D01*
X135235292Y-103853213D01*
X135235288Y-103853210D01*
X135104185Y-103765609D01*
X135104172Y-103765602D01*
X134958501Y-103705264D01*
X134958489Y-103705261D01*
X134803845Y-103674500D01*
X134803842Y-103674500D01*
X134646158Y-103674500D01*
X134646155Y-103674500D01*
X134491510Y-103705261D01*
X134491498Y-103705264D01*
X134345827Y-103765602D01*
X134345814Y-103765609D01*
X134214711Y-103853210D01*
X134214707Y-103853213D01*
X134103213Y-103964707D01*
X134103210Y-103964711D01*
X134015609Y-104095814D01*
X134015602Y-104095827D01*
X133955264Y-104241498D01*
X133955261Y-104241510D01*
X133924500Y-104396153D01*
X120433082Y-104396153D01*
X120419444Y-104345255D01*
X120370075Y-104259745D01*
X120350330Y-104240000D01*
X121170000Y-104240000D01*
X121170000Y-104128428D01*
X121142914Y-103957415D01*
X121089408Y-103792742D01*
X121010804Y-103638475D01*
X120909032Y-103498397D01*
X120786602Y-103375967D01*
X120646524Y-103274195D01*
X120492257Y-103195591D01*
X120327589Y-103142087D01*
X120327581Y-103142085D01*
X120320000Y-103140884D01*
X120320000Y-104209670D01*
X120300255Y-104189925D01*
X120214745Y-104140556D01*
X120119370Y-104115000D01*
X120020630Y-104115000D01*
X119925255Y-104140556D01*
X119839745Y-104189925D01*
X119820000Y-104209670D01*
X119820000Y-103140884D01*
X119819999Y-103140884D01*
X119812418Y-103142085D01*
X119812410Y-103142087D01*
X119647742Y-103195591D01*
X119493475Y-103274195D01*
X119353397Y-103375967D01*
X119230965Y-103498399D01*
X119230961Y-103498404D01*
X119170627Y-103581448D01*
X119115297Y-103624114D01*
X119045684Y-103630093D01*
X118983889Y-103597488D01*
X118969991Y-103581449D01*
X118969990Y-103581448D01*
X118909414Y-103498072D01*
X118786928Y-103375586D01*
X118646788Y-103273768D01*
X118492445Y-103195127D01*
X118327701Y-103141598D01*
X118327699Y-103141597D01*
X118327698Y-103141597D01*
X118196271Y-103120781D01*
X118156611Y-103114500D01*
X117983389Y-103114500D01*
X117943728Y-103120781D01*
X117812302Y-103141597D01*
X117812299Y-103141598D01*
X117648762Y-103194735D01*
X117647552Y-103195128D01*
X117493211Y-103273768D01*
X117353073Y-103375585D01*
X117245530Y-103483128D01*
X117184207Y-103516612D01*
X117114515Y-103511628D01*
X117058582Y-103469756D01*
X117052310Y-103460543D01*
X117012712Y-103396344D01*
X116888656Y-103272288D01*
X116763559Y-103195128D01*
X116739336Y-103180187D01*
X116739331Y-103180185D01*
X116737862Y-103179698D01*
X116572797Y-103125001D01*
X116572795Y-103125000D01*
X116470010Y-103114500D01*
X115669998Y-103114500D01*
X115669980Y-103114501D01*
X115567203Y-103125000D01*
X115567200Y-103125001D01*
X115400668Y-103180185D01*
X115400663Y-103180187D01*
X115251342Y-103272289D01*
X115127289Y-103396342D01*
X115035187Y-103545663D01*
X115035185Y-103545668D01*
X115018014Y-103597488D01*
X114980001Y-103712203D01*
X114980001Y-103712204D01*
X114980000Y-103712204D01*
X114969500Y-103814983D01*
X113660500Y-103814983D01*
X113660500Y-102421153D01*
X125074500Y-102421153D01*
X125074500Y-102578846D01*
X125105261Y-102733489D01*
X125105264Y-102733501D01*
X125165602Y-102879172D01*
X125165609Y-102879185D01*
X125253210Y-103010288D01*
X125253213Y-103010292D01*
X125364707Y-103121786D01*
X125364711Y-103121789D01*
X125495814Y-103209390D01*
X125495827Y-103209397D01*
X125641498Y-103269735D01*
X125641503Y-103269737D01*
X125796153Y-103300499D01*
X125796156Y-103300500D01*
X125796158Y-103300500D01*
X125953844Y-103300500D01*
X125953845Y-103300499D01*
X126108497Y-103269737D01*
X126254179Y-103209394D01*
X126385289Y-103121789D01*
X126496789Y-103010289D01*
X126584394Y-102879179D01*
X126590302Y-102864917D01*
X126644735Y-102733501D01*
X126644737Y-102733497D01*
X126675500Y-102578842D01*
X126675500Y-102421158D01*
X126675500Y-102421155D01*
X126664607Y-102366398D01*
X126660580Y-102346153D01*
X132654500Y-102346153D01*
X132654500Y-102503846D01*
X132685261Y-102658489D01*
X132685264Y-102658501D01*
X132745602Y-102804172D01*
X132745609Y-102804185D01*
X132833210Y-102935288D01*
X132833213Y-102935292D01*
X132944707Y-103046786D01*
X132944711Y-103046789D01*
X133075814Y-103134390D01*
X133075827Y-103134397D01*
X133221498Y-103194735D01*
X133221503Y-103194737D01*
X133376153Y-103225499D01*
X133376156Y-103225500D01*
X133376158Y-103225500D01*
X133533844Y-103225500D01*
X133533845Y-103225499D01*
X133688497Y-103194737D01*
X133834179Y-103134394D01*
X133965289Y-103046789D01*
X134076789Y-102935289D01*
X134164394Y-102804179D01*
X134224737Y-102658497D01*
X134255500Y-102503842D01*
X134255500Y-102346158D01*
X134255500Y-102346155D01*
X134255499Y-102346153D01*
X134239657Y-102266510D01*
X134224737Y-102191503D01*
X134196399Y-102123088D01*
X134164397Y-102045827D01*
X134164390Y-102045814D01*
X134083282Y-101924428D01*
X134062404Y-101857751D01*
X134080888Y-101790370D01*
X134132867Y-101743680D01*
X134162185Y-101733921D01*
X134233497Y-101719737D01*
X134379179Y-101659394D01*
X134510289Y-101571789D01*
X134621789Y-101460289D01*
X134709394Y-101329179D01*
X134769737Y-101183497D01*
X134800500Y-101028842D01*
X134800500Y-100871158D01*
X134800500Y-100871155D01*
X134800499Y-100871153D01*
X134772066Y-100728211D01*
X134769737Y-100716503D01*
X134738298Y-100640602D01*
X134709397Y-100570827D01*
X134709390Y-100570814D01*
X134621789Y-100439711D01*
X134621786Y-100439707D01*
X134510292Y-100328213D01*
X134510288Y-100328210D01*
X134379185Y-100240609D01*
X134379172Y-100240602D01*
X134233501Y-100180264D01*
X134233489Y-100180261D01*
X134078845Y-100149500D01*
X134078842Y-100149500D01*
X133921158Y-100149500D01*
X133921155Y-100149500D01*
X133766510Y-100180261D01*
X133766498Y-100180264D01*
X133620827Y-100240602D01*
X133620814Y-100240609D01*
X133489711Y-100328210D01*
X133489707Y-100328213D01*
X133378213Y-100439707D01*
X133378210Y-100439711D01*
X133290609Y-100570814D01*
X133290602Y-100570827D01*
X133230264Y-100716498D01*
X133230261Y-100716510D01*
X133199500Y-100871153D01*
X133199500Y-101028846D01*
X133230261Y-101183489D01*
X133230264Y-101183501D01*
X133290602Y-101329172D01*
X133290609Y-101329185D01*
X133371717Y-101450571D01*
X133392595Y-101517249D01*
X133374110Y-101584629D01*
X133322132Y-101631319D01*
X133292807Y-101641079D01*
X133221508Y-101655261D01*
X133221498Y-101655264D01*
X133075827Y-101715602D01*
X133075814Y-101715609D01*
X132944711Y-101803210D01*
X132944707Y-101803213D01*
X132833213Y-101914707D01*
X132833210Y-101914711D01*
X132745609Y-102045814D01*
X132745602Y-102045827D01*
X132685264Y-102191498D01*
X132685261Y-102191510D01*
X132654500Y-102346153D01*
X126660580Y-102346153D01*
X126644737Y-102266503D01*
X126636155Y-102245785D01*
X126633859Y-102236050D01*
X126635224Y-102210756D01*
X126632515Y-102185568D01*
X126637075Y-102176455D01*
X126637625Y-102166282D01*
X126652449Y-102145741D01*
X126663788Y-102123088D01*
X126672551Y-102117887D01*
X126678514Y-102109626D01*
X126702088Y-102100360D01*
X126723875Y-102087433D01*
X126734058Y-102087796D01*
X126743542Y-102084069D01*
X126768385Y-102089020D01*
X126793701Y-102089924D01*
X126801998Y-102093019D01*
X126866498Y-102119735D01*
X126866503Y-102119737D01*
X126997233Y-102145741D01*
X127021153Y-102150499D01*
X127021156Y-102150500D01*
X127021158Y-102150500D01*
X127178844Y-102150500D01*
X127178845Y-102150499D01*
X127333497Y-102119737D01*
X127479179Y-102059394D01*
X127610289Y-101971789D01*
X127721789Y-101860289D01*
X127809394Y-101729179D01*
X127869737Y-101583497D01*
X127900500Y-101428842D01*
X127900500Y-101271158D01*
X127900500Y-101271155D01*
X127900499Y-101271153D01*
X127883061Y-101183489D01*
X127869737Y-101116503D01*
X127860721Y-101094737D01*
X127809397Y-100970827D01*
X127809390Y-100970814D01*
X127721789Y-100839711D01*
X127721786Y-100839707D01*
X127610292Y-100728213D01*
X127610288Y-100728210D01*
X127479185Y-100640609D01*
X127479172Y-100640602D01*
X127333501Y-100580264D01*
X127333489Y-100580261D01*
X127178845Y-100549500D01*
X127178842Y-100549500D01*
X127021158Y-100549500D01*
X127021155Y-100549500D01*
X126866510Y-100580261D01*
X126866498Y-100580264D01*
X126720827Y-100640602D01*
X126720814Y-100640609D01*
X126589711Y-100728210D01*
X126589707Y-100728213D01*
X126478213Y-100839707D01*
X126478210Y-100839711D01*
X126390609Y-100970814D01*
X126390602Y-100970827D01*
X126330264Y-101116498D01*
X126330261Y-101116510D01*
X126299500Y-101271153D01*
X126299500Y-101428846D01*
X126327934Y-101571789D01*
X126330263Y-101583497D01*
X126335014Y-101594967D01*
X126342483Y-101664434D01*
X126311209Y-101726914D01*
X126251120Y-101762567D01*
X126181295Y-101760074D01*
X126173002Y-101756981D01*
X126117323Y-101733919D01*
X126108497Y-101730263D01*
X126108493Y-101730262D01*
X126108489Y-101730261D01*
X125953845Y-101699500D01*
X125953842Y-101699500D01*
X125796158Y-101699500D01*
X125796155Y-101699500D01*
X125641510Y-101730261D01*
X125641498Y-101730264D01*
X125495827Y-101790602D01*
X125495814Y-101790609D01*
X125364711Y-101878210D01*
X125364707Y-101878213D01*
X125253213Y-101989707D01*
X125253210Y-101989711D01*
X125165609Y-102120814D01*
X125165602Y-102120827D01*
X125105264Y-102266498D01*
X125105261Y-102266510D01*
X125074500Y-102421153D01*
X113660500Y-102421153D01*
X113660500Y-100246153D01*
X124399500Y-100246153D01*
X124399500Y-100403846D01*
X124430261Y-100558489D01*
X124430264Y-100558501D01*
X124490602Y-100704172D01*
X124490609Y-100704185D01*
X124578210Y-100835288D01*
X124578213Y-100835292D01*
X124689707Y-100946786D01*
X124689711Y-100946789D01*
X124820814Y-101034390D01*
X124820827Y-101034397D01*
X124966498Y-101094735D01*
X124966503Y-101094737D01*
X125075963Y-101116510D01*
X125121153Y-101125499D01*
X125121156Y-101125500D01*
X125121158Y-101125500D01*
X125278844Y-101125500D01*
X125278845Y-101125499D01*
X125433497Y-101094737D01*
X125579179Y-101034394D01*
X125710289Y-100946789D01*
X125821789Y-100835289D01*
X125909394Y-100704179D01*
X125969737Y-100558497D01*
X126000500Y-100403842D01*
X126000500Y-100246158D01*
X126000500Y-100246155D01*
X126000499Y-100246153D01*
X125987393Y-100180264D01*
X125969737Y-100091503D01*
X125969735Y-100091498D01*
X125909397Y-99945827D01*
X125909390Y-99945814D01*
X125821789Y-99814711D01*
X125821786Y-99814707D01*
X125710292Y-99703213D01*
X125710288Y-99703210D01*
X125579185Y-99615609D01*
X125579172Y-99615602D01*
X125433501Y-99555264D01*
X125433489Y-99555261D01*
X125278845Y-99524500D01*
X125278842Y-99524500D01*
X125121158Y-99524500D01*
X125121155Y-99524500D01*
X124966510Y-99555261D01*
X124966498Y-99555264D01*
X124820827Y-99615602D01*
X124820814Y-99615609D01*
X124689711Y-99703210D01*
X124689707Y-99703213D01*
X124578213Y-99814707D01*
X124578210Y-99814711D01*
X124490609Y-99945814D01*
X124490602Y-99945827D01*
X124430264Y-100091498D01*
X124430261Y-100091510D01*
X124399500Y-100246153D01*
X113660500Y-100246153D01*
X113660500Y-94871153D01*
X121829500Y-94871153D01*
X121829500Y-95028846D01*
X121860261Y-95183489D01*
X121860264Y-95183501D01*
X121920602Y-95329172D01*
X121920609Y-95329185D01*
X122008210Y-95460288D01*
X122008213Y-95460292D01*
X122119707Y-95571786D01*
X122119711Y-95571789D01*
X122250814Y-95659390D01*
X122250827Y-95659397D01*
X122292524Y-95676668D01*
X122396503Y-95719737D01*
X122551153Y-95750499D01*
X122551156Y-95750500D01*
X122551158Y-95750500D01*
X122708844Y-95750500D01*
X122760684Y-95740188D01*
X122830275Y-95746415D01*
X122885453Y-95789277D01*
X122908698Y-95855167D01*
X122906494Y-95885995D01*
X122899500Y-95921158D01*
X122899500Y-96078846D01*
X122930261Y-96233489D01*
X122930264Y-96233501D01*
X122990602Y-96379172D01*
X122990609Y-96379185D01*
X123078210Y-96510288D01*
X123078213Y-96510292D01*
X123189707Y-96621786D01*
X123189711Y-96621789D01*
X123320814Y-96709390D01*
X123320827Y-96709397D01*
X123461870Y-96767818D01*
X123466503Y-96769737D01*
X123615744Y-96799423D01*
X123621153Y-96800499D01*
X123621156Y-96800500D01*
X123621158Y-96800500D01*
X123778844Y-96800500D01*
X123778845Y-96800499D01*
X123933497Y-96769737D01*
X124079179Y-96709394D01*
X124210289Y-96621789D01*
X124321789Y-96510289D01*
X124409394Y-96379179D01*
X124469737Y-96233497D01*
X124500500Y-96078842D01*
X124500500Y-95921158D01*
X124500500Y-95921155D01*
X124500499Y-95921153D01*
X126124500Y-95921153D01*
X126124500Y-96078846D01*
X126155261Y-96233489D01*
X126155264Y-96233501D01*
X126215602Y-96379172D01*
X126215609Y-96379185D01*
X126303210Y-96510288D01*
X126303213Y-96510292D01*
X126414707Y-96621786D01*
X126414711Y-96621789D01*
X126545814Y-96709390D01*
X126545827Y-96709397D01*
X126686870Y-96767818D01*
X126691503Y-96769737D01*
X126806298Y-96792571D01*
X126840743Y-96799423D01*
X126902654Y-96831808D01*
X126937228Y-96892523D01*
X126933489Y-96962293D01*
X126919654Y-96989930D01*
X126865612Y-97070809D01*
X126865602Y-97070827D01*
X126805264Y-97216498D01*
X126805261Y-97216510D01*
X126774500Y-97371153D01*
X126774500Y-97528846D01*
X126805261Y-97683489D01*
X126805264Y-97683501D01*
X126865602Y-97829172D01*
X126865609Y-97829185D01*
X126953210Y-97960288D01*
X126953213Y-97960292D01*
X127064707Y-98071786D01*
X127064711Y-98071789D01*
X127195814Y-98159390D01*
X127195827Y-98159397D01*
X127341498Y-98219735D01*
X127341503Y-98219737D01*
X127496153Y-98250499D01*
X127496156Y-98250500D01*
X127496158Y-98250500D01*
X127653844Y-98250500D01*
X127653845Y-98250499D01*
X127808497Y-98219737D01*
X127954179Y-98159394D01*
X128085289Y-98071789D01*
X128196789Y-97960289D01*
X128284394Y-97829179D01*
X128344737Y-97683497D01*
X128375500Y-97528842D01*
X128375500Y-97371158D01*
X128375500Y-97371155D01*
X128375499Y-97371153D01*
X128365553Y-97321153D01*
X128344737Y-97216503D01*
X128327658Y-97175270D01*
X128284397Y-97070827D01*
X128284390Y-97070814D01*
X128196789Y-96939711D01*
X128196786Y-96939707D01*
X128085292Y-96828213D01*
X128085288Y-96828210D01*
X127954185Y-96740609D01*
X127954172Y-96740602D01*
X127808501Y-96680264D01*
X127808491Y-96680261D01*
X127659255Y-96650576D01*
X127597344Y-96618191D01*
X127562770Y-96557475D01*
X127566510Y-96487706D01*
X127580346Y-96460067D01*
X127634389Y-96379187D01*
X127634390Y-96379184D01*
X127634394Y-96379179D01*
X127694737Y-96233497D01*
X127725040Y-96081153D01*
X143359500Y-96081153D01*
X143359500Y-96238846D01*
X143390261Y-96393489D01*
X143390264Y-96393501D01*
X143450602Y-96539172D01*
X143450609Y-96539185D01*
X143538210Y-96670288D01*
X143538213Y-96670292D01*
X143649707Y-96781786D01*
X143649715Y-96781792D01*
X143719865Y-96828665D01*
X143764671Y-96882277D01*
X143773378Y-96951602D01*
X143754079Y-97000655D01*
X143740610Y-97020813D01*
X143740602Y-97020827D01*
X143680264Y-97166498D01*
X143680261Y-97166510D01*
X143649500Y-97321153D01*
X143649500Y-97478846D01*
X143680261Y-97633489D01*
X143680264Y-97633501D01*
X143740602Y-97779172D01*
X143740609Y-97779185D01*
X143828210Y-97910288D01*
X143828213Y-97910292D01*
X143939708Y-98021787D01*
X143939711Y-98021789D01*
X143975362Y-98045610D01*
X144020166Y-98099221D01*
X144028875Y-98168546D01*
X144009573Y-98217602D01*
X143940612Y-98320809D01*
X143940602Y-98320827D01*
X143880264Y-98466498D01*
X143880261Y-98466510D01*
X143849500Y-98621153D01*
X143849500Y-98778846D01*
X143880261Y-98933489D01*
X143880264Y-98933501D01*
X143940602Y-99079172D01*
X143940609Y-99079185D01*
X144028210Y-99210288D01*
X144028213Y-99210292D01*
X144139707Y-99321786D01*
X144139711Y-99321789D01*
X144270814Y-99409390D01*
X144270827Y-99409397D01*
X144416498Y-99469735D01*
X144416503Y-99469737D01*
X144571153Y-99500499D01*
X144571156Y-99500500D01*
X144571158Y-99500500D01*
X144728844Y-99500500D01*
X144728845Y-99500499D01*
X144883497Y-99469737D01*
X145029179Y-99409394D01*
X145160289Y-99321789D01*
X145271789Y-99210289D01*
X145359394Y-99079179D01*
X145419737Y-98933497D01*
X145450500Y-98778842D01*
X145450500Y-98621158D01*
X145450500Y-98621155D01*
X145450499Y-98621153D01*
X145419738Y-98466510D01*
X145419737Y-98466503D01*
X145419735Y-98466498D01*
X145359397Y-98320827D01*
X145359390Y-98320814D01*
X145271789Y-98189711D01*
X145271786Y-98189707D01*
X145160291Y-98078212D01*
X145124638Y-98054390D01*
X145079832Y-98000777D01*
X145071125Y-97931452D01*
X145090424Y-97882399D01*
X145159394Y-97779179D01*
X145219737Y-97633497D01*
X145250500Y-97478842D01*
X145250500Y-97321158D01*
X145250500Y-97321155D01*
X145250499Y-97321153D01*
X145239825Y-97267491D01*
X145219737Y-97166503D01*
X145219735Y-97166498D01*
X145159397Y-97020827D01*
X145159390Y-97020814D01*
X145071789Y-96889711D01*
X145071786Y-96889707D01*
X144960289Y-96778210D01*
X144890133Y-96731334D01*
X144845328Y-96677722D01*
X144836621Y-96608397D01*
X144855922Y-96559340D01*
X144869394Y-96539179D01*
X144929737Y-96393497D01*
X144960500Y-96238842D01*
X144960500Y-96081158D01*
X144960500Y-96081155D01*
X144960499Y-96081153D01*
X144938993Y-95973032D01*
X144935150Y-95953713D01*
X151509500Y-95953713D01*
X151509500Y-96166287D01*
X151542754Y-96376243D01*
X151595697Y-96539185D01*
X151608444Y-96578414D01*
X151704951Y-96767820D01*
X151829890Y-96939786D01*
X151943430Y-97053326D01*
X151976915Y-97114649D01*
X151971931Y-97184341D01*
X151930059Y-97240274D01*
X151899083Y-97257189D01*
X151767669Y-97306203D01*
X151767664Y-97306206D01*
X151652455Y-97392452D01*
X151652452Y-97392455D01*
X151566206Y-97507664D01*
X151566202Y-97507671D01*
X151515908Y-97642517D01*
X151509501Y-97702116D01*
X151509500Y-97702135D01*
X151509500Y-99497870D01*
X151509501Y-99497876D01*
X151515908Y-99557483D01*
X151566202Y-99692328D01*
X151566206Y-99692335D01*
X151652452Y-99807544D01*
X151652455Y-99807547D01*
X151767664Y-99893793D01*
X151767671Y-99893797D01*
X151902517Y-99944091D01*
X151902516Y-99944091D01*
X151909444Y-99944835D01*
X151962127Y-99950500D01*
X153757872Y-99950499D01*
X153817483Y-99944091D01*
X153952331Y-99893796D01*
X154067546Y-99807546D01*
X154153796Y-99692331D01*
X154202810Y-99560916D01*
X154244681Y-99504984D01*
X154310145Y-99480566D01*
X154378418Y-99495417D01*
X154406673Y-99516569D01*
X154520213Y-99630109D01*
X154692179Y-99755048D01*
X154692181Y-99755049D01*
X154692184Y-99755051D01*
X154881588Y-99851557D01*
X155083757Y-99917246D01*
X155293713Y-99950500D01*
X155293714Y-99950500D01*
X155506286Y-99950500D01*
X155506287Y-99950500D01*
X155716243Y-99917246D01*
X155918412Y-99851557D01*
X156107816Y-99755051D01*
X156129789Y-99739086D01*
X156279786Y-99630109D01*
X156279788Y-99630106D01*
X156279792Y-99630104D01*
X156430104Y-99479792D01*
X156430106Y-99479788D01*
X156430109Y-99479786D01*
X156555048Y-99307820D01*
X156555047Y-99307820D01*
X156555051Y-99307816D01*
X156559514Y-99299054D01*
X156607488Y-99248259D01*
X156675308Y-99231463D01*
X156741444Y-99253999D01*
X156780486Y-99299056D01*
X156784951Y-99307820D01*
X156909890Y-99479786D01*
X157060213Y-99630109D01*
X157232179Y-99755048D01*
X157232181Y-99755049D01*
X157232184Y-99755051D01*
X157421588Y-99851557D01*
X157623757Y-99917246D01*
X157833713Y-99950500D01*
X157833714Y-99950500D01*
X158046286Y-99950500D01*
X158046287Y-99950500D01*
X158256243Y-99917246D01*
X158458412Y-99851557D01*
X158647816Y-99755051D01*
X158669789Y-99739086D01*
X158819786Y-99630109D01*
X158819788Y-99630106D01*
X158819792Y-99630104D01*
X158970104Y-99479792D01*
X158970106Y-99479788D01*
X158970109Y-99479786D01*
X159095048Y-99307820D01*
X159095047Y-99307820D01*
X159095051Y-99307816D01*
X159191557Y-99118412D01*
X159257246Y-98916243D01*
X159290500Y-98706287D01*
X159290500Y-98493713D01*
X159257246Y-98283757D01*
X159191557Y-98081588D01*
X159095051Y-97892184D01*
X159095049Y-97892181D01*
X159095048Y-97892179D01*
X158970109Y-97720213D01*
X158819786Y-97569890D01*
X158647820Y-97444951D01*
X158647115Y-97444591D01*
X158639054Y-97440485D01*
X158588259Y-97392512D01*
X158571463Y-97324692D01*
X158593999Y-97258556D01*
X158639054Y-97219515D01*
X158647816Y-97215051D01*
X158702572Y-97175269D01*
X158819786Y-97090109D01*
X158819788Y-97090106D01*
X158819792Y-97090104D01*
X158970104Y-96939792D01*
X158970106Y-96939788D01*
X158970109Y-96939786D01*
X159095048Y-96767820D01*
X159095047Y-96767820D01*
X159095051Y-96767816D01*
X159191557Y-96578412D01*
X159257246Y-96376243D01*
X159290500Y-96166287D01*
X159290500Y-95953713D01*
X159257246Y-95743757D01*
X159191557Y-95541588D01*
X159095051Y-95352184D01*
X159095049Y-95352181D01*
X159095048Y-95352179D01*
X158970109Y-95180213D01*
X158819786Y-95029890D01*
X158647820Y-94904951D01*
X158458414Y-94808444D01*
X158458413Y-94808443D01*
X158458412Y-94808443D01*
X158256243Y-94742754D01*
X158256241Y-94742753D01*
X158256240Y-94742753D01*
X158090470Y-94716498D01*
X158046287Y-94709500D01*
X157833713Y-94709500D01*
X157789530Y-94716498D01*
X157623760Y-94742753D01*
X157421585Y-94808444D01*
X157232179Y-94904951D01*
X157060213Y-95029890D01*
X156909890Y-95180213D01*
X156784949Y-95352182D01*
X156780202Y-95361499D01*
X156732227Y-95412293D01*
X156664405Y-95429087D01*
X156598271Y-95406548D01*
X156559234Y-95361495D01*
X156554626Y-95352452D01*
X156515270Y-95298282D01*
X156515269Y-95298282D01*
X155882962Y-95930590D01*
X155865925Y-95867007D01*
X155800099Y-95752993D01*
X155707007Y-95659901D01*
X155592993Y-95594075D01*
X155529409Y-95577037D01*
X156161716Y-94944728D01*
X156107550Y-94905375D01*
X155918217Y-94808904D01*
X155716129Y-94743242D01*
X155506246Y-94710000D01*
X155293754Y-94710000D01*
X155083872Y-94743242D01*
X155083869Y-94743242D01*
X154881782Y-94808904D01*
X154692439Y-94905380D01*
X154638282Y-94944727D01*
X154638282Y-94944728D01*
X155270591Y-95577037D01*
X155207007Y-95594075D01*
X155092993Y-95659901D01*
X154999901Y-95752993D01*
X154934075Y-95867007D01*
X154917037Y-95930591D01*
X154284728Y-95298282D01*
X154284727Y-95298282D01*
X154245380Y-95352440D01*
X154245376Y-95352446D01*
X154240760Y-95361505D01*
X154192781Y-95412297D01*
X154124959Y-95429087D01*
X154058826Y-95406543D01*
X154019794Y-95361493D01*
X154015051Y-95352184D01*
X154015049Y-95352181D01*
X154015048Y-95352179D01*
X153890109Y-95180213D01*
X153739786Y-95029890D01*
X153567820Y-94904951D01*
X153378414Y-94808444D01*
X153378413Y-94808443D01*
X153378412Y-94808443D01*
X153176243Y-94742754D01*
X153176241Y-94742753D01*
X153176240Y-94742753D01*
X153010470Y-94716498D01*
X152966287Y-94709500D01*
X152753713Y-94709500D01*
X152709530Y-94716498D01*
X152543760Y-94742753D01*
X152341585Y-94808444D01*
X152152179Y-94904951D01*
X151980213Y-95029890D01*
X151829890Y-95180213D01*
X151704951Y-95352179D01*
X151608444Y-95541585D01*
X151542753Y-95743760D01*
X151509500Y-95953713D01*
X144935150Y-95953713D01*
X144929738Y-95926508D01*
X144929737Y-95926507D01*
X144929737Y-95926503D01*
X144872897Y-95789277D01*
X144869397Y-95780827D01*
X144869390Y-95780814D01*
X144781789Y-95649711D01*
X144781786Y-95649707D01*
X144670292Y-95538213D01*
X144670288Y-95538210D01*
X144539185Y-95450609D01*
X144539172Y-95450602D01*
X144393501Y-95390264D01*
X144393489Y-95390261D01*
X144238845Y-95359500D01*
X144238842Y-95359500D01*
X144081158Y-95359500D01*
X144081155Y-95359500D01*
X143926510Y-95390261D01*
X143926498Y-95390264D01*
X143780827Y-95450602D01*
X143780814Y-95450609D01*
X143649711Y-95538210D01*
X143649707Y-95538213D01*
X143538213Y-95649707D01*
X143538210Y-95649711D01*
X143450609Y-95780814D01*
X143450602Y-95780827D01*
X143390264Y-95926498D01*
X143390261Y-95926510D01*
X143359500Y-96081153D01*
X127725040Y-96081153D01*
X127725500Y-96078842D01*
X127725500Y-95921158D01*
X127725500Y-95921155D01*
X127725499Y-95921153D01*
X127718506Y-95885995D01*
X127694737Y-95766503D01*
X127689141Y-95752993D01*
X127634397Y-95620827D01*
X127634390Y-95620814D01*
X127546789Y-95489711D01*
X127546786Y-95489707D01*
X127435292Y-95378213D01*
X127435288Y-95378210D01*
X127304185Y-95290609D01*
X127304172Y-95290602D01*
X127158501Y-95230264D01*
X127158489Y-95230261D01*
X127003845Y-95199500D01*
X127003842Y-95199500D01*
X126846158Y-95199500D01*
X126846155Y-95199500D01*
X126691510Y-95230261D01*
X126691498Y-95230264D01*
X126545827Y-95290602D01*
X126545814Y-95290609D01*
X126414711Y-95378210D01*
X126414707Y-95378213D01*
X126303213Y-95489707D01*
X126303210Y-95489711D01*
X126215609Y-95620814D01*
X126215602Y-95620827D01*
X126155264Y-95766498D01*
X126155261Y-95766510D01*
X126124500Y-95921153D01*
X124500499Y-95921153D01*
X124493506Y-95885995D01*
X124469737Y-95766503D01*
X124464141Y-95752993D01*
X124409397Y-95620827D01*
X124409390Y-95620814D01*
X124321789Y-95489711D01*
X124321786Y-95489707D01*
X124210292Y-95378213D01*
X124210288Y-95378210D01*
X124079185Y-95290609D01*
X124079172Y-95290602D01*
X123933501Y-95230264D01*
X123933489Y-95230261D01*
X123778845Y-95199500D01*
X123778842Y-95199500D01*
X123621158Y-95199500D01*
X123569313Y-95209812D01*
X123499721Y-95203583D01*
X123444544Y-95160720D01*
X123421301Y-95094830D01*
X123423506Y-95064001D01*
X123430500Y-95028842D01*
X123430500Y-94871155D01*
X123430499Y-94871153D01*
X123410326Y-94769737D01*
X123399737Y-94716503D01*
X123396791Y-94709390D01*
X123339397Y-94570827D01*
X123339390Y-94570814D01*
X123251789Y-94439711D01*
X123251786Y-94439707D01*
X123140292Y-94328213D01*
X123140288Y-94328210D01*
X123009185Y-94240609D01*
X123009172Y-94240602D01*
X122863501Y-94180264D01*
X122863489Y-94180261D01*
X122708845Y-94149500D01*
X122708842Y-94149500D01*
X122551158Y-94149500D01*
X122551155Y-94149500D01*
X122396510Y-94180261D01*
X122396498Y-94180264D01*
X122250827Y-94240602D01*
X122250814Y-94240609D01*
X122119711Y-94328210D01*
X122119707Y-94328213D01*
X122008213Y-94439707D01*
X122008210Y-94439711D01*
X121920609Y-94570814D01*
X121920602Y-94570827D01*
X121860264Y-94716498D01*
X121860261Y-94716510D01*
X121829500Y-94871153D01*
X113660500Y-94871153D01*
X113660500Y-93921153D01*
X141499500Y-93921153D01*
X141499500Y-94078846D01*
X141530261Y-94233489D01*
X141530264Y-94233501D01*
X141590602Y-94379172D01*
X141590609Y-94379185D01*
X141678210Y-94510288D01*
X141678213Y-94510292D01*
X141789707Y-94621786D01*
X141789711Y-94621789D01*
X141920814Y-94709390D01*
X141920827Y-94709397D01*
X142066498Y-94769735D01*
X142066503Y-94769737D01*
X142221153Y-94800499D01*
X142221156Y-94800500D01*
X142221158Y-94800500D01*
X142378844Y-94800500D01*
X142378845Y-94800499D01*
X142533497Y-94769737D01*
X142679179Y-94709394D01*
X142810289Y-94621789D01*
X142921789Y-94510289D01*
X143009394Y-94379179D01*
X143069737Y-94233497D01*
X143100500Y-94078842D01*
X143100500Y-93921158D01*
X143100500Y-93921155D01*
X143100499Y-93921153D01*
X143069738Y-93766510D01*
X143069737Y-93766503D01*
X143033427Y-93678842D01*
X143009397Y-93620827D01*
X143009390Y-93620814D01*
X142984763Y-93583957D01*
X142942798Y-93521153D01*
X151399500Y-93521153D01*
X151399500Y-93678846D01*
X151430261Y-93833489D01*
X151430264Y-93833501D01*
X151490602Y-93979172D01*
X151490609Y-93979185D01*
X151578210Y-94110288D01*
X151578213Y-94110292D01*
X151689707Y-94221786D01*
X151689711Y-94221789D01*
X151820814Y-94309390D01*
X151820827Y-94309397D01*
X151866254Y-94328213D01*
X151966503Y-94369737D01*
X152121153Y-94400499D01*
X152121156Y-94400500D01*
X152121158Y-94400500D01*
X152278844Y-94400500D01*
X152278845Y-94400499D01*
X152433497Y-94369737D01*
X152579179Y-94309394D01*
X152710289Y-94221789D01*
X152821789Y-94110289D01*
X152909394Y-93979179D01*
X152969737Y-93833497D01*
X153000500Y-93678842D01*
X153000500Y-93521158D01*
X153000500Y-93521155D01*
X153000499Y-93521153D01*
X152972066Y-93378211D01*
X152969737Y-93366503D01*
X152938298Y-93290602D01*
X152909397Y-93220827D01*
X152909390Y-93220814D01*
X152821789Y-93089711D01*
X152821786Y-93089707D01*
X152710292Y-92978213D01*
X152710288Y-92978210D01*
X152579185Y-92890609D01*
X152579172Y-92890602D01*
X152433501Y-92830264D01*
X152433489Y-92830261D01*
X152278845Y-92799500D01*
X152278842Y-92799500D01*
X152121158Y-92799500D01*
X152121155Y-92799500D01*
X151966510Y-92830261D01*
X151966498Y-92830264D01*
X151820827Y-92890602D01*
X151820814Y-92890609D01*
X151689711Y-92978210D01*
X151689707Y-92978213D01*
X151578213Y-93089707D01*
X151578210Y-93089711D01*
X151490609Y-93220814D01*
X151490602Y-93220827D01*
X151430264Y-93366498D01*
X151430261Y-93366510D01*
X151399500Y-93521153D01*
X142942798Y-93521153D01*
X142921789Y-93489711D01*
X142921786Y-93489707D01*
X142810292Y-93378213D01*
X142810288Y-93378210D01*
X142679185Y-93290609D01*
X142679172Y-93290602D01*
X142533501Y-93230264D01*
X142533489Y-93230261D01*
X142378845Y-93199500D01*
X142378842Y-93199500D01*
X142221158Y-93199500D01*
X142221155Y-93199500D01*
X142066510Y-93230261D01*
X142066498Y-93230264D01*
X141920827Y-93290602D01*
X141920814Y-93290609D01*
X141789711Y-93378210D01*
X141789707Y-93378213D01*
X141678213Y-93489707D01*
X141678210Y-93489711D01*
X141590609Y-93620814D01*
X141590602Y-93620827D01*
X141530264Y-93766498D01*
X141530261Y-93766510D01*
X141499500Y-93921153D01*
X113660500Y-93921153D01*
X113660500Y-90721153D01*
X124349500Y-90721153D01*
X124349500Y-90878846D01*
X124380261Y-91033489D01*
X124380264Y-91033501D01*
X124440602Y-91179172D01*
X124440609Y-91179185D01*
X124528210Y-91310288D01*
X124528213Y-91310292D01*
X124639707Y-91421786D01*
X124639711Y-91421789D01*
X124770814Y-91509390D01*
X124770827Y-91509397D01*
X124916498Y-91569735D01*
X124916503Y-91569737D01*
X125071153Y-91600499D01*
X125071156Y-91600500D01*
X125071158Y-91600500D01*
X125228844Y-91600500D01*
X125228845Y-91600499D01*
X125383497Y-91569737D01*
X125529179Y-91509394D01*
X125660289Y-91421789D01*
X125771789Y-91310289D01*
X125859394Y-91179179D01*
X125919737Y-91033497D01*
X125950500Y-90878842D01*
X125950500Y-90721158D01*
X125944046Y-90688711D01*
X157119500Y-90688711D01*
X157119500Y-90931288D01*
X157151161Y-91171785D01*
X157213947Y-91406104D01*
X157294469Y-91600500D01*
X157306776Y-91630212D01*
X157428064Y-91840289D01*
X157428066Y-91840292D01*
X157428067Y-91840293D01*
X157575733Y-92032736D01*
X157575739Y-92032743D01*
X157747256Y-92204260D01*
X157747262Y-92204265D01*
X157939711Y-92351936D01*
X158149788Y-92473224D01*
X158373900Y-92566054D01*
X158608211Y-92628838D01*
X158788586Y-92652584D01*
X158848711Y-92660500D01*
X158848712Y-92660500D01*
X159091289Y-92660500D01*
X159139388Y-92654167D01*
X159331789Y-92628838D01*
X159566100Y-92566054D01*
X159790212Y-92473224D01*
X160000289Y-92351936D01*
X160192738Y-92204265D01*
X160364265Y-92032738D01*
X160511936Y-91840289D01*
X160633224Y-91630212D01*
X160726054Y-91406100D01*
X160788838Y-91171789D01*
X160820500Y-90931288D01*
X160820500Y-90688712D01*
X160788838Y-90448211D01*
X160726054Y-90213900D01*
X160633224Y-89989788D01*
X160511936Y-89779711D01*
X160364265Y-89587262D01*
X160364260Y-89587256D01*
X160192743Y-89415739D01*
X160192736Y-89415733D01*
X160000293Y-89268067D01*
X160000292Y-89268066D01*
X160000289Y-89268064D01*
X159790212Y-89146776D01*
X159790205Y-89146773D01*
X159566104Y-89053947D01*
X159331785Y-88991161D01*
X159091289Y-88959500D01*
X159091288Y-88959500D01*
X158848712Y-88959500D01*
X158848711Y-88959500D01*
X158608214Y-88991161D01*
X158373895Y-89053947D01*
X158149794Y-89146773D01*
X158149785Y-89146777D01*
X157939706Y-89268067D01*
X157747263Y-89415733D01*
X157747256Y-89415739D01*
X157575739Y-89587256D01*
X157575733Y-89587263D01*
X157428067Y-89779706D01*
X157306777Y-89989785D01*
X157306773Y-89989794D01*
X157213947Y-90213895D01*
X157151161Y-90448214D01*
X157119500Y-90688711D01*
X125944046Y-90688711D01*
X125919737Y-90566503D01*
X125919735Y-90566498D01*
X125859397Y-90420827D01*
X125859390Y-90420814D01*
X125771789Y-90289711D01*
X125771786Y-90289707D01*
X125660292Y-90178213D01*
X125660288Y-90178210D01*
X125529185Y-90090609D01*
X125529172Y-90090602D01*
X125383501Y-90030264D01*
X125383489Y-90030261D01*
X125228845Y-89999500D01*
X125228842Y-89999500D01*
X125071158Y-89999500D01*
X125071155Y-89999500D01*
X124916510Y-90030261D01*
X124916498Y-90030264D01*
X124770827Y-90090602D01*
X124770814Y-90090609D01*
X124639711Y-90178210D01*
X124639707Y-90178213D01*
X124528213Y-90289707D01*
X124528210Y-90289711D01*
X124440609Y-90420814D01*
X124440602Y-90420827D01*
X124380264Y-90566498D01*
X124380261Y-90566510D01*
X124349500Y-90721153D01*
X113660500Y-90721153D01*
X113660500Y-87524500D01*
X113680185Y-87457461D01*
X113732989Y-87411706D01*
X113784500Y-87400500D01*
X162995500Y-87400500D01*
X163062539Y-87420185D01*
G37*
%TD.AperFunction*%
%TD*%
M02*
