M48
; DRILL file {KiCad 9.0.4} date 2025-12-07T12:20:49+0100
; FORMAT={-:-/ absolute / metric / decimal}
; #@! TF.CreationDate,2025-12-07T12:20:49+01:00
; #@! TF.GenerationSoftware,Kicad,Pcbnew,9.0.4
; #@! TF.FileFunction,Plated,1,4,PTH
FMAT,2
METRIC
; #@! TA.AperFunction,Plated,PTH,ComponentDrill
T1C0.200
; #@! TA.AperFunction,Plated,PTH,ViaDrill
T2C0.300
; #@! TA.AperFunction,Plated,PTH,ComponentDrill
T3C0.600
; #@! TA.AperFunction,Plated,PTH,ComponentDrill
T4C0.750
; #@! TA.AperFunction,Plated,PTH,ComponentDrill
T5C0.990
; #@! TA.AperFunction,Plated,PTH,ComponentDrill
T6C1.000
; #@! TA.AperFunction,Plated,PTH,ComponentDrill
T7C1.300
%
G90
G05
T1
X135.0Y-95.56
X135.0Y-96.96
X135.7Y-94.86
X135.7Y-96.26
X135.7Y-97.66
X136.4Y-95.56
X136.4Y-96.96
X137.1Y-94.86
X137.1Y-96.26
X137.1Y-97.66
X137.8Y-95.56
X137.8Y-96.96
T2
X114.67Y-107.23
X116.512Y-126.765
X116.76Y-121.97
X117.99Y-106.8
X119.47Y-128.42
X120.0Y-88.0
X120.012Y-123.665
X121.99Y-134.82
X122.0Y-88.0
X122.0Y-92.0
X122.63Y-94.95
X123.0Y-88.0
X123.07Y-107.17
X123.7Y-96.0
X123.85Y-88.2
X123.85Y-133.2
X124.22Y-127.38
X125.15Y-90.8
X125.2Y-100.325
X125.875Y-102.5
X126.79Y-99.14
X126.925Y-96.0
X127.025Y-87.8
X127.1Y-101.35
X127.575Y-97.45
X127.88Y-126.62
X129.3Y-108.01
X129.37Y-115.8
X129.7Y-112.28
X131.0Y-88.0
X131.0Y-93.0
X131.0Y-100.0
X131.25Y-131.8
X133.0Y-88.0
X133.455Y-102.425
X134.0Y-100.95
X134.725Y-104.475
X134.75Y-129.7
X135.0Y-88.0
X135.23Y-134.73
X135.55Y-129.275
X135.94Y-101.39
X135.975Y-104.525
X136.07Y-122.63
X136.75Y-132.875
X137.0Y-88.0
X137.265Y-104.585
X137.35Y-115.315
X138.0Y-127.8
X138.525Y-104.575
X138.963Y-111.527
X139.0Y-88.0
X139.8Y-104.6
X140.345Y-112.325
X140.425Y-129.275
X140.515Y-120.767
X141.0Y-88.0
X141.2Y-97.83
X141.25Y-129.7
X141.68Y-109.83
X141.8Y-124.55
X142.11Y-111.93
X142.3Y-94.0
X143.0Y-88.0
X143.18Y-109.25
X143.28Y-117.82
X143.88Y-91.92
X144.16Y-96.16
X144.18Y-128.075
X144.45Y-97.4
X144.65Y-98.7
X144.8Y-122.7
X145.0Y-88.0
X145.124Y-108.76
X146.18Y-127.125
X146.18Y-130.425
X146.5Y-122.5
X146.65Y-108.9
X147.39Y-127.21
X147.585Y-111.03
X147.585Y-114.18
X148.0Y-88.0
X148.42Y-103.83
X148.67Y-106.43
X149.85Y-108.05
X150.0Y-88.0
X150.42Y-102.1
X150.9Y-108.15
X151.13Y-90.64
X151.24Y-124.9
X151.7Y-115.85
X152.0Y-88.0
X152.2Y-93.6
X152.7Y-113.85
X152.8Y-121.35
X153.9Y-118.75
X154.0Y-88.0
X154.1Y-103.79
X154.4Y-110.6
X155.3Y-107.1
X155.5Y-118.9
X155.55Y-113.17
X156.0Y-88.0
X160.17Y-101.27
X161.1Y-128.14
X161.25Y-96.05
X161.65Y-117.2
X161.65Y-123.95
X161.78Y-120.42
T4
X116.07Y-104.49
X118.07Y-104.49
X120.07Y-104.49
X159.97Y-130.43
X159.97Y-132.43
X159.97Y-134.43
X195.83Y-128.62
X196.43Y-98.39
X197.83Y-128.62
X198.43Y-98.39
X199.83Y-128.62
X200.43Y-98.39
T5
X160.137Y-105.125
X160.137Y-109.625
T6
X120.125Y-109.995
X120.125Y-112.535
X120.125Y-115.075
X120.125Y-117.615
X120.125Y-120.155
X122.665Y-109.995
X122.665Y-112.535
X122.665Y-115.075
X122.665Y-117.615
X122.665Y-120.155
X131.33Y-114.04
X131.33Y-116.58
X131.33Y-119.12
X131.33Y-121.66
X152.86Y-96.06
X152.86Y-98.6
X155.4Y-96.06
X155.4Y-98.6
X157.94Y-96.06
X157.94Y-98.6
T7
X157.647Y-103.875
X157.647Y-110.885
T3
G00X133.68Y-131.22
M15
G01X133.68Y-132.32
M16
G05
G00X133.68Y-135.65
M15
G01X133.68Y-136.25
M16
G05
G00X142.32Y-131.22
M15
G01X142.32Y-132.32
M16
G05
G00X142.32Y-135.65
M15
G01X142.32Y-136.25
M16
G05
M30
