%TF.GenerationSoftware,KiCad,Pcbnew,9.0.4*%
%TF.CreationDate,2025-12-07T12:20:53+01:00*%
%TF.ProjectId,ChristmasLight,43687269-7374-46d6-9173-4c696768742e,rev?*%
%TF.SameCoordinates,Original*%
%TF.FileFunction,Copper,L4,Bot*%
%TF.FilePolarity,Positive*%
%FSLAX46Y46*%
G04 Gerber Fmt 4.6, Leading zero omitted, Abs format (unit mm)*
G04 Created by KiCad (PCBNEW 9.0.4) date 2025-12-07 12:20:53*
%MOMM*%
%LPD*%
G01*
G04 APERTURE LIST*
G04 Aperture macros list*
%AMRoundRect*
0 Rectangle with rounded corners*
0 $1 Rounding radius*
0 $2 $3 $4 $5 $6 $7 $8 $9 X,Y pos of 4 corners*
0 Add a 4 corners polygon primitive as box body*
4,1,4,$2,$3,$4,$5,$6,$7,$8,$9,$2,$3,0*
0 Add four circle primitives for the rounded corners*
1,1,$1+$1,$2,$3*
1,1,$1+$1,$4,$5*
1,1,$1+$1,$6,$7*
1,1,$1+$1,$8,$9*
0 Add four rect primitives between the rounded corners*
20,1,$1+$1,$2,$3,$4,$5,0*
20,1,$1+$1,$4,$5,$6,$7,0*
20,1,$1+$1,$6,$7,$8,$9,0*
20,1,$1+$1,$8,$9,$2,$3,0*%
G04 Aperture macros list end*
%TA.AperFunction,ComponentPad*%
%ADD10O,1.200000X1.750000*%
%TD*%
%TA.AperFunction,ComponentPad*%
%ADD11RoundRect,0.250000X-0.350000X-0.625000X0.350000X-0.625000X0.350000X0.625000X-0.350000X0.625000X0*%
%TD*%
%TA.AperFunction,ComponentPad*%
%ADD12C,2.100000*%
%TD*%
%TA.AperFunction,ComponentPad*%
%ADD13C,1.750000*%
%TD*%
%TA.AperFunction,ComponentPad*%
%ADD14R,1.700000X1.700000*%
%TD*%
%TA.AperFunction,ComponentPad*%
%ADD15C,1.700000*%
%TD*%
%TA.AperFunction,ComponentPad*%
%ADD16RoundRect,0.250000X-0.625000X0.350000X-0.625000X-0.350000X0.625000X-0.350000X0.625000X0.350000X0*%
%TD*%
%TA.AperFunction,ComponentPad*%
%ADD17O,1.750000X1.200000*%
%TD*%
%TA.AperFunction,HeatsinkPad*%
%ADD18O,1.000000X2.100000*%
%TD*%
%TA.AperFunction,HeatsinkPad*%
%ADD19O,1.000000X1.600000*%
%TD*%
%TA.AperFunction,HeatsinkPad*%
%ADD20C,0.600000*%
%TD*%
%TA.AperFunction,ViaPad*%
%ADD21C,0.600000*%
%TD*%
%TA.AperFunction,Conductor*%
%ADD22C,0.500000*%
%TD*%
%TA.AperFunction,Conductor*%
%ADD23C,0.200000*%
%TD*%
%TA.AperFunction,Conductor*%
%ADD24C,0.600000*%
%TD*%
G04 APERTURE END LIST*
D10*
%TO.P,J9,3,Pin_3*%
%TO.N,GND*%
X199830000Y-128620000D03*
%TO.P,J9,2,Pin_2*%
%TO.N,/DIN*%
X197830000Y-128620000D03*
D11*
%TO.P,J9,1,Pin_1*%
%TO.N,5V*%
X195830000Y-128620000D03*
%TD*%
D10*
%TO.P,J6,3,Pin_3*%
%TO.N,GND*%
X200430000Y-98390000D03*
%TO.P,J6,2,Pin_2*%
%TO.N,/DOUT*%
X198430000Y-98390000D03*
D11*
%TO.P,J6,1,Pin_1*%
%TO.N,5V*%
X196430000Y-98390000D03*
%TD*%
D12*
%TO.P,SW3,*%
%TO.N,*%
X157647500Y-103875000D03*
X157647500Y-110885000D03*
D13*
%TO.P,SW3,1,A*%
%TO.N,GND*%
X160137500Y-105125000D03*
%TO.P,SW3,2,B*%
%TO.N,/USER_SW*%
X160137500Y-109625000D03*
%TD*%
D14*
%TO.P,J5,1,Pin_1*%
%TO.N,GND*%
X131330000Y-121660000D03*
D15*
%TO.P,J5,2,Pin_2*%
%TO.N,/VIN-*%
X131330000Y-119120000D03*
%TO.P,J5,3,Pin_3*%
%TO.N,/DouT*%
X131330000Y-116580000D03*
%TO.P,J5,4,Pin_4*%
%TO.N,/DiN*%
X131330000Y-114040000D03*
%TD*%
D14*
%TO.P,J2,1,Pin_1*%
%TO.N,+3V3*%
X120125000Y-109995000D03*
D15*
%TO.P,J2,2,Pin_2*%
X122665000Y-109995000D03*
%TO.P,J2,3,Pin_3*%
%TO.N,/RESET*%
X120125000Y-112535000D03*
%TO.P,J2,4,Pin_4*%
%TO.N,/CS*%
X122665000Y-112535000D03*
%TO.P,J2,5,Pin_5*%
%TO.N,/MOSI*%
X120125000Y-115075000D03*
%TO.P,J2,6,Pin_6*%
%TO.N,/CLK*%
X122665000Y-115075000D03*
%TO.P,J2,7,Pin_7*%
%TO.N,/MISO*%
X120125000Y-117615000D03*
%TO.P,J2,8,Pin_8*%
%TO.N,/IRQ*%
X122665000Y-117615000D03*
%TO.P,J2,9,Pin_9*%
%TO.N,GND*%
X120125000Y-120155000D03*
%TO.P,J2,10,Pin_10*%
X122665000Y-120155000D03*
%TD*%
D16*
%TO.P,J8,1,Pin_1*%
%TO.N,+5V*%
X159970000Y-130430000D03*
D17*
%TO.P,J8,2,Pin_2*%
%TO.N,/LED_DATA_OUT2*%
X159970000Y-132430000D03*
%TO.P,J8,3,Pin_3*%
%TO.N,GND*%
X159970000Y-134430000D03*
%TD*%
D18*
%TO.P,J1,S1,SHIELD*%
%TO.N,GND*%
X133680000Y-131770000D03*
D19*
X133680000Y-135950000D03*
D18*
X142320000Y-131770000D03*
D19*
X142320000Y-135950000D03*
%TD*%
D14*
%TO.P,J3,1,Pin_1*%
%TO.N,/ESP_EN*%
X152860000Y-98600000D03*
D15*
%TO.P,J3,2,Pin_2*%
%TO.N,+3V3*%
X152860000Y-96060000D03*
%TO.P,J3,3,Pin_3*%
%TO.N,/ESP_TXD*%
X155400000Y-98600000D03*
%TO.P,J3,4,Pin_4*%
%TO.N,GND*%
X155400000Y-96060000D03*
%TO.P,J3,5,Pin_5*%
%TO.N,/ESP_RXD*%
X157940000Y-98600000D03*
%TO.P,J3,6,Pin_6*%
%TO.N,/ESP_IO0*%
X157940000Y-96060000D03*
%TD*%
D11*
%TO.P,J7,1,Pin_1*%
%TO.N,+5V*%
X116070000Y-104490000D03*
D10*
%TO.P,J7,2,Pin_2*%
%TO.N,/LED_DATA_OUT*%
X118070000Y-104490000D03*
%TO.P,J7,3,Pin_3*%
%TO.N,GND*%
X120070000Y-104490000D03*
%TD*%
D20*
%TO.P,U2,41,EPAD(GND)*%
%TO.N,GND*%
X135000000Y-95560000D03*
X135000000Y-96960000D03*
X135700000Y-94860000D03*
X135700000Y-96260000D03*
X135700000Y-97660000D03*
X136400000Y-95560000D03*
X136400000Y-96960000D03*
X137100000Y-94860000D03*
X137100000Y-96260000D03*
X137100000Y-97660000D03*
X137800000Y-95560000D03*
X137800000Y-96960000D03*
%TD*%
D21*
%TO.N,+5V*%
X141800000Y-124550000D03*
X131250000Y-131800000D03*
%TO.N,GND*%
X154100000Y-103790000D03*
X161250000Y-96050000D03*
X155550000Y-113170000D03*
X148670000Y-106430000D03*
X127025000Y-87800000D03*
X143000000Y-88000000D03*
X161780000Y-120420000D03*
X123850000Y-88200000D03*
X127880000Y-126620000D03*
X139000000Y-88000000D03*
X135000000Y-88000000D03*
X131000000Y-93000000D03*
X161650000Y-117200000D03*
X126790000Y-99140000D03*
X154400000Y-110600000D03*
X154000000Y-88000000D03*
X146180000Y-127125000D03*
X116512500Y-126765000D03*
X138000000Y-127800000D03*
X120000000Y-88000000D03*
X131000000Y-88000000D03*
X124220000Y-127380000D03*
X150420000Y-102100000D03*
X129300000Y-108010000D03*
X137000000Y-88000000D03*
X161650000Y-123950000D03*
X155500000Y-118900000D03*
X123000000Y-88000000D03*
X116760000Y-121970000D03*
X114670000Y-107230000D03*
X155300000Y-107100000D03*
X151130000Y-90640000D03*
X142110000Y-111930000D03*
X119470000Y-128420000D03*
X131000000Y-100000000D03*
X143880000Y-91920000D03*
X141200000Y-97830000D03*
X160170000Y-101270000D03*
X141250000Y-129700000D03*
X140514893Y-120767106D03*
X121990000Y-134820000D03*
X135230000Y-134730000D03*
X123070000Y-107170000D03*
X122000000Y-92000000D03*
X135940000Y-101390000D03*
X146180000Y-130425000D03*
X161100000Y-128140000D03*
X148000000Y-88000000D03*
X145000000Y-88000000D03*
X134750000Y-129700000D03*
X122000000Y-88000000D03*
X147585000Y-114180000D03*
X141000000Y-88000000D03*
X129370000Y-115800000D03*
X156000000Y-88000000D03*
X117990000Y-106800000D03*
X153900000Y-118750000D03*
X152000000Y-88000000D03*
X133000000Y-88000000D03*
X150000000Y-88000000D03*
X148420000Y-103830000D03*
%TO.N,+3V3*%
X123850000Y-133200000D03*
X125150000Y-90800000D03*
X136070000Y-122630000D03*
X149850000Y-108050000D03*
X147585000Y-111030000D03*
X146500000Y-122500000D03*
X125200000Y-100325000D03*
X120012500Y-123665000D03*
X152700000Y-113850000D03*
X123700000Y-96000000D03*
%TO.N,/ESP_EN*%
X151700000Y-115850000D03*
X142300000Y-94000000D03*
%TO.N,/USER_SW*%
X150900000Y-108150000D03*
X146650000Y-108900000D03*
%TO.N,Net-(F1-Pad1)*%
X140425000Y-129275000D03*
X135550000Y-129275000D03*
%TO.N,/CC1*%
X144180000Y-128075000D03*
X136750000Y-132875000D03*
%TO.N,/RESET*%
X139800000Y-104600000D03*
X129700000Y-112280000D03*
%TO.N,/MISO*%
X138525000Y-104575000D03*
%TO.N,/CS*%
X134725000Y-104475000D03*
%TO.N,/IRQ*%
X127575000Y-97450000D03*
%TO.N,/MOSI*%
X135975000Y-104525000D03*
%TO.N,/CLK*%
X137265000Y-104585000D03*
%TO.N,/ESP_RXD*%
X152200000Y-93600000D03*
%TO.N,/SDA*%
X137350000Y-115314972D03*
X125875000Y-102500000D03*
X140345000Y-112325000D03*
X143180000Y-109250000D03*
%TO.N,/SCL*%
X145124000Y-108760000D03*
X133455000Y-102425000D03*
X127100000Y-101350000D03*
%TO.N,Net-(U2-GPIO3)*%
X126925000Y-96000000D03*
X134000000Y-100950000D03*
%TO.N,/R_LED*%
X144800000Y-122700000D03*
X144650000Y-98700000D03*
%TO.N,/G_LED*%
X144450000Y-97400000D03*
X151240000Y-124900000D03*
%TO.N,/B_LED*%
X144160000Y-96160000D03*
X152800000Y-121350000D03*
%TO.N,/DiN*%
X138962714Y-111527286D03*
%TO.N,/DouT*%
X141680000Y-109830000D03*
%TO.N,/VIN-*%
X143280000Y-117820000D03*
%TO.N,/IO6*%
X122630000Y-94950000D03*
X147390000Y-127210000D03*
%TD*%
D22*
%TO.N,+5V*%
X136950000Y-124550000D02*
X131250000Y-130250000D01*
X141800000Y-124550000D02*
X136950000Y-124550000D01*
X131250000Y-130250000D02*
X131250000Y-131800000D01*
D23*
%TO.N,/ESP_EN*%
X142300000Y-94000000D02*
X143200000Y-94900000D01*
X152860000Y-98600000D02*
X152860000Y-112590000D01*
X146900000Y-94900000D02*
X150600000Y-98600000D01*
X151700000Y-113750000D02*
X151700000Y-115850000D01*
X143200000Y-94900000D02*
X146900000Y-94900000D01*
X152860000Y-112590000D02*
X151700000Y-113750000D01*
X150600000Y-98600000D02*
X152860000Y-98600000D01*
%TO.N,/USER_SW*%
X150900000Y-108250000D02*
X150900000Y-108150000D01*
X146650000Y-108900000D02*
X150250000Y-108900000D01*
X150250000Y-108900000D02*
X150900000Y-108250000D01*
D24*
%TO.N,Net-(F1-Pad1)*%
X135550000Y-129275000D02*
X140425000Y-129275000D01*
D23*
%TO.N,/CC1*%
X137700000Y-132875000D02*
X140250000Y-130325000D01*
X142450000Y-130325000D02*
X142700000Y-130325000D01*
X136750000Y-132875000D02*
X137700000Y-132875000D01*
X144180000Y-128845000D02*
X144180000Y-128075000D01*
X142700000Y-130325000D02*
X144180000Y-128845000D01*
X140250000Y-130325000D02*
X142700000Y-130325000D01*
%TO.N,/RESET*%
X139800000Y-104860000D02*
X139800000Y-104600000D01*
X129730000Y-112250000D02*
X132410000Y-112250000D01*
X129700000Y-112280000D02*
X129730000Y-112250000D01*
X132410000Y-112250000D02*
X139800000Y-104860000D01*
%TO.N,/MISO*%
X123635000Y-116375000D02*
X121365000Y-116375000D01*
X138525000Y-104575000D02*
X138525000Y-105300000D01*
X121365000Y-116375000D02*
X120125000Y-117615000D01*
X128410000Y-111600000D02*
X123635000Y-116375000D01*
X138525000Y-105300000D02*
X132225000Y-111600000D01*
X132225000Y-111600000D02*
X128410000Y-111600000D01*
%TO.N,/CS*%
X134725000Y-105200000D02*
X130575000Y-109350000D01*
X130575000Y-109350000D02*
X125850000Y-109350000D01*
X134725000Y-104475000D02*
X134725000Y-105200000D01*
X125850000Y-109350000D02*
X122665000Y-112535000D01*
%TO.N,/IRQ*%
X122665000Y-117615000D02*
X121430000Y-118850000D01*
X116275000Y-110725000D02*
X127575000Y-99425000D01*
X116225000Y-117275000D02*
X116275000Y-117225000D01*
X116275000Y-117225000D02*
X116275000Y-110725000D01*
X117800000Y-118850000D02*
X116225000Y-117275000D01*
X121430000Y-118850000D02*
X117800000Y-118850000D01*
X127575000Y-99425000D02*
X127575000Y-97450000D01*
%TO.N,/MOSI*%
X127210000Y-109790000D02*
X123200000Y-113800000D01*
X121400000Y-113800000D02*
X120125000Y-115075000D01*
X135975000Y-105250000D02*
X131435000Y-109790000D01*
X131435000Y-109790000D02*
X127210000Y-109790000D01*
X135975000Y-104525000D02*
X135975000Y-105250000D01*
X123200000Y-113800000D02*
X121400000Y-113800000D01*
%TO.N,/CLK*%
X123015000Y-115075000D02*
X122665000Y-115075000D01*
X137265000Y-104585000D02*
X137265000Y-105410000D01*
X127700000Y-110390000D02*
X123015000Y-115075000D01*
X132285000Y-110390000D02*
X127700000Y-110390000D01*
X137265000Y-105410000D02*
X132285000Y-110390000D01*
%TO.N,/ESP_RXD*%
X155200000Y-93600000D02*
X156600000Y-95000000D01*
X152200000Y-93600000D02*
X155200000Y-93600000D01*
X156600000Y-95000000D02*
X156600000Y-97260000D01*
X156600000Y-97260000D02*
X157940000Y-98600000D01*
%TO.N,/SDA*%
X143180000Y-105505000D02*
X141100000Y-103425000D01*
X125855000Y-102520000D02*
X125875000Y-102500000D01*
X143180000Y-109250000D02*
X143180000Y-105505000D01*
X126800000Y-103425000D02*
X125875000Y-102500000D01*
X137355028Y-115314972D02*
X137350000Y-115314972D01*
X141100000Y-103425000D02*
X126800000Y-103425000D01*
X140345000Y-112325000D02*
X137355028Y-115314972D01*
%TO.N,/SCL*%
X145124000Y-108760000D02*
X144725000Y-108361000D01*
X132380000Y-101350000D02*
X133455000Y-102425000D01*
X144725000Y-105775000D02*
X141375000Y-102425000D01*
X141375000Y-102425000D02*
X133455000Y-102425000D01*
X127100000Y-101350000D02*
X132380000Y-101350000D01*
X144725000Y-108361000D02*
X144725000Y-105775000D01*
%TO.N,Net-(U2-GPIO3)*%
X134000000Y-100950000D02*
X134000000Y-99200000D01*
X130800000Y-96000000D02*
X126925000Y-96000000D01*
X134000000Y-99200000D02*
X130800000Y-96000000D01*
%TO.N,/R_LED*%
X144650000Y-98700000D02*
X144650000Y-103500000D01*
X145724000Y-108126000D02*
X145724000Y-121776000D01*
X145724000Y-121776000D02*
X144800000Y-122700000D01*
X146200000Y-105050000D02*
X146200000Y-107650000D01*
X146200000Y-107650000D02*
X145724000Y-108126000D01*
X144650000Y-103500000D02*
X146200000Y-105050000D01*
%TO.N,/G_LED*%
X149250000Y-124850000D02*
X149250000Y-111400000D01*
X151230000Y-124910000D02*
X149310000Y-124910000D01*
X149250000Y-111400000D02*
X151550000Y-109100000D01*
X151550000Y-104500000D02*
X144450000Y-97400000D01*
X151240000Y-124900000D02*
X151230000Y-124910000D01*
X151550000Y-109100000D02*
X151550000Y-104500000D01*
X149310000Y-124910000D02*
X149250000Y-124850000D01*
%TO.N,/B_LED*%
X152200000Y-110950000D02*
X150350000Y-112800000D01*
X150350000Y-112800000D02*
X150350000Y-118900000D01*
X145610000Y-96160000D02*
X152200000Y-102750000D01*
X152200000Y-102750000D02*
X152200000Y-110950000D01*
X144160000Y-96160000D02*
X145610000Y-96160000D01*
X150350000Y-118900000D02*
X152800000Y-121350000D01*
%TO.N,/DiN*%
X131520000Y-113850000D02*
X131330000Y-114040000D01*
X136640000Y-113850000D02*
X131520000Y-113850000D01*
X138962714Y-111527286D02*
X136640000Y-113850000D01*
%TO.N,/DouT*%
X141680000Y-109830000D02*
X141680000Y-109860000D01*
X141680000Y-109860000D02*
X134890000Y-116650000D01*
X131400000Y-116650000D02*
X131330000Y-116580000D01*
X134890000Y-116650000D02*
X131400000Y-116650000D01*
%TO.N,/IO6*%
X115271000Y-117115000D02*
X115271000Y-105521000D01*
X122105000Y-123949000D02*
X115271000Y-117115000D01*
X147390000Y-127210000D02*
X144129000Y-123949000D01*
X115169000Y-102411000D02*
X122630000Y-94950000D01*
X115271000Y-105521000D02*
X115169000Y-105419000D01*
X144129000Y-123949000D02*
X122105000Y-123949000D01*
X115169000Y-105419000D02*
X115169000Y-102411000D01*
%TD*%
%TA.AperFunction,Conductor*%
%TO.N,GND*%
G36*
X143985703Y-105885384D02*
G01*
X143992181Y-105891416D01*
X144088181Y-105987416D01*
X144121666Y-106048739D01*
X144124500Y-106075097D01*
X144124500Y-108274330D01*
X144124499Y-108274348D01*
X144124499Y-108440054D01*
X144124498Y-108440054D01*
X144124499Y-108440057D01*
X144165423Y-108592785D01*
X144186621Y-108629500D01*
X144211416Y-108672447D01*
X144244479Y-108729715D01*
X144289426Y-108774662D01*
X144322911Y-108835985D01*
X144323362Y-108838151D01*
X144354261Y-108993491D01*
X144354264Y-108993501D01*
X144414602Y-109139172D01*
X144414609Y-109139185D01*
X144502210Y-109270288D01*
X144502213Y-109270292D01*
X144613707Y-109381786D01*
X144613711Y-109381789D01*
X144744814Y-109469390D01*
X144744827Y-109469397D01*
X144890498Y-109529735D01*
X144890503Y-109529737D01*
X145000987Y-109551713D01*
X145023691Y-109556230D01*
X145085602Y-109588615D01*
X145120176Y-109649330D01*
X145123500Y-109677847D01*
X145123500Y-121475903D01*
X145103815Y-121542942D01*
X145087181Y-121563584D01*
X144785339Y-121865425D01*
X144724016Y-121898910D01*
X144721850Y-121899361D01*
X144566508Y-121930261D01*
X144566498Y-121930264D01*
X144420827Y-121990602D01*
X144420814Y-121990609D01*
X144289711Y-122078210D01*
X144289707Y-122078213D01*
X144178213Y-122189707D01*
X144178210Y-122189711D01*
X144090609Y-122320814D01*
X144090602Y-122320827D01*
X144030264Y-122466498D01*
X144030261Y-122466510D01*
X143999500Y-122621153D01*
X143999500Y-122778846D01*
X144030261Y-122933489D01*
X144030264Y-122933501D01*
X144090602Y-123079172D01*
X144090609Y-123079185D01*
X144141674Y-123155609D01*
X144162552Y-123222287D01*
X144144067Y-123289667D01*
X144092088Y-123336357D01*
X144038572Y-123348500D01*
X136782941Y-123348500D01*
X136715902Y-123328815D01*
X136670147Y-123276011D01*
X136660203Y-123206853D01*
X136688307Y-123145313D01*
X136687924Y-123144999D01*
X136689111Y-123143551D01*
X136689228Y-123143297D01*
X136690009Y-123142457D01*
X136691784Y-123140293D01*
X136691789Y-123140289D01*
X136779394Y-123009179D01*
X136839737Y-122863497D01*
X136870500Y-122708842D01*
X136870500Y-122551158D01*
X136870500Y-122551155D01*
X136870499Y-122551153D01*
X136844641Y-122421158D01*
X136839737Y-122396503D01*
X136839735Y-122396498D01*
X136779397Y-122250827D01*
X136779390Y-122250814D01*
X136691789Y-122119711D01*
X136691786Y-122119707D01*
X136580292Y-122008213D01*
X136580288Y-122008210D01*
X136449185Y-121920609D01*
X136449172Y-121920602D01*
X136303501Y-121860264D01*
X136303489Y-121860261D01*
X136148845Y-121829500D01*
X136148842Y-121829500D01*
X135991158Y-121829500D01*
X135991155Y-121829500D01*
X135836510Y-121860261D01*
X135836498Y-121860264D01*
X135690827Y-121920602D01*
X135690814Y-121920609D01*
X135559711Y-122008210D01*
X135559707Y-122008213D01*
X135448213Y-122119707D01*
X135448210Y-122119711D01*
X135360609Y-122250814D01*
X135360602Y-122250827D01*
X135300264Y-122396498D01*
X135300261Y-122396510D01*
X135269500Y-122551153D01*
X135269500Y-122708846D01*
X135300261Y-122863489D01*
X135300264Y-122863501D01*
X135360602Y-123009172D01*
X135360609Y-123009185D01*
X135448210Y-123140288D01*
X135452076Y-123144999D01*
X135450094Y-123146625D01*
X135478225Y-123198142D01*
X135473241Y-123267834D01*
X135431369Y-123323767D01*
X135365905Y-123348184D01*
X135357059Y-123348500D01*
X122405097Y-123348500D01*
X122338058Y-123328815D01*
X122317416Y-123312181D01*
X120610284Y-121605049D01*
X120576799Y-121543726D01*
X120581783Y-121474034D01*
X120623655Y-121418101D01*
X120641670Y-121406883D01*
X120832554Y-121309622D01*
X120886716Y-121270270D01*
X120886717Y-121270270D01*
X120254409Y-120637962D01*
X120317993Y-120620925D01*
X120432007Y-120555099D01*
X120525099Y-120462007D01*
X120590925Y-120347993D01*
X120607962Y-120284409D01*
X121240270Y-120916717D01*
X121240270Y-120916716D01*
X121279622Y-120862554D01*
X121284514Y-120852954D01*
X121332488Y-120802157D01*
X121400308Y-120785361D01*
X121466444Y-120807897D01*
X121505486Y-120852954D01*
X121510375Y-120862550D01*
X121549728Y-120916716D01*
X122182037Y-120284408D01*
X122199075Y-120347993D01*
X122264901Y-120462007D01*
X122357993Y-120555099D01*
X122472007Y-120620925D01*
X122535590Y-120637962D01*
X121903282Y-121270269D01*
X121903282Y-121270270D01*
X121957449Y-121309624D01*
X122146782Y-121406095D01*
X122348870Y-121471757D01*
X122558754Y-121505000D01*
X122771246Y-121505000D01*
X122981127Y-121471757D01*
X122981130Y-121471757D01*
X123183217Y-121406095D01*
X123372554Y-121309622D01*
X123426716Y-121270270D01*
X123426717Y-121270270D01*
X122794408Y-120637962D01*
X122857993Y-120620925D01*
X122972007Y-120555099D01*
X123065099Y-120462007D01*
X123130925Y-120347993D01*
X123147962Y-120284409D01*
X123780270Y-120916717D01*
X123780270Y-120916716D01*
X123819622Y-120862554D01*
X123916095Y-120673217D01*
X123981757Y-120471130D01*
X123981757Y-120471127D01*
X124015000Y-120261246D01*
X124015000Y-120048753D01*
X123981757Y-119838872D01*
X123981757Y-119838869D01*
X123916095Y-119636782D01*
X123819624Y-119447449D01*
X123780270Y-119393282D01*
X123780269Y-119393282D01*
X123147962Y-120025590D01*
X123130925Y-119962007D01*
X123065099Y-119847993D01*
X122972007Y-119754901D01*
X122857993Y-119689075D01*
X122794408Y-119672037D01*
X123426716Y-119039728D01*
X123372547Y-119000373D01*
X123372547Y-119000372D01*
X123363500Y-118995763D01*
X123312706Y-118947788D01*
X123295912Y-118879966D01*
X123318451Y-118813832D01*
X123363508Y-118774793D01*
X123372816Y-118770051D01*
X123486323Y-118687584D01*
X123544786Y-118645109D01*
X123544788Y-118645106D01*
X123544792Y-118645104D01*
X123695104Y-118494792D01*
X123695106Y-118494788D01*
X123695109Y-118494786D01*
X123820048Y-118322820D01*
X123820047Y-118322820D01*
X123820051Y-118322816D01*
X123916557Y-118133412D01*
X123982246Y-117931243D01*
X124015500Y-117721287D01*
X124015500Y-117508713D01*
X123982246Y-117298757D01*
X123916557Y-117096588D01*
X123916555Y-117096585D01*
X123916555Y-117096583D01*
X123894881Y-117054046D01*
X123893816Y-117048377D01*
X123890250Y-117043843D01*
X123887438Y-117014417D01*
X123881984Y-116985376D01*
X123884152Y-116980032D01*
X123883604Y-116974290D01*
X123897146Y-116948018D01*
X123908260Y-116920636D01*
X123913663Y-116915976D01*
X123915617Y-116912186D01*
X123943359Y-116890367D01*
X123947530Y-116887958D01*
X123955740Y-116883218D01*
X123955747Y-116883216D01*
X123955746Y-116883215D01*
X124003716Y-116855520D01*
X124115520Y-116743716D01*
X124115520Y-116743714D01*
X124125724Y-116733511D01*
X124125727Y-116733506D01*
X128622417Y-112236819D01*
X128649344Y-112222115D01*
X128675163Y-112205523D01*
X128681363Y-112204631D01*
X128683740Y-112203334D01*
X128710098Y-112200500D01*
X128775500Y-112200500D01*
X128842539Y-112220185D01*
X128888294Y-112272989D01*
X128899500Y-112324500D01*
X128899500Y-112358846D01*
X128930261Y-112513489D01*
X128930264Y-112513501D01*
X128990602Y-112659172D01*
X128990609Y-112659185D01*
X129078210Y-112790288D01*
X129078213Y-112790292D01*
X129189707Y-112901786D01*
X129189711Y-112901789D01*
X129320814Y-112989390D01*
X129320827Y-112989397D01*
X129464084Y-113048735D01*
X129466503Y-113049737D01*
X129572876Y-113070896D01*
X129621153Y-113080499D01*
X129621156Y-113080500D01*
X129621158Y-113080500D01*
X129778844Y-113080500D01*
X129778845Y-113080499D01*
X129933497Y-113049737D01*
X130079179Y-112989394D01*
X130210289Y-112901789D01*
X130210290Y-112901787D01*
X130212310Y-112900438D01*
X130278987Y-112879560D01*
X130346367Y-112898044D01*
X130393058Y-112950023D01*
X130404234Y-113018993D01*
X130376349Y-113083056D01*
X130368883Y-113091221D01*
X130299889Y-113160215D01*
X130174951Y-113332179D01*
X130078444Y-113521585D01*
X130012753Y-113723760D01*
X129988570Y-113876447D01*
X129979500Y-113933713D01*
X129979500Y-114146287D01*
X130012754Y-114356243D01*
X130077850Y-114556588D01*
X130078444Y-114558414D01*
X130174951Y-114747820D01*
X130299890Y-114919786D01*
X130450213Y-115070109D01*
X130622182Y-115195050D01*
X130630946Y-115199516D01*
X130681742Y-115247491D01*
X130698536Y-115315312D01*
X130675998Y-115381447D01*
X130630946Y-115420484D01*
X130622182Y-115424949D01*
X130450213Y-115549890D01*
X130299890Y-115700213D01*
X130174951Y-115872179D01*
X130078444Y-116061585D01*
X130078443Y-116061587D01*
X130078443Y-116061588D01*
X130070930Y-116084710D01*
X130012753Y-116263760D01*
X129979500Y-116473713D01*
X129979500Y-116686286D01*
X130010690Y-116883216D01*
X130012754Y-116896243D01*
X130077850Y-117096588D01*
X130078444Y-117098414D01*
X130174951Y-117287820D01*
X130299890Y-117459786D01*
X130450213Y-117610109D01*
X130622182Y-117735050D01*
X130630946Y-117739516D01*
X130681742Y-117787491D01*
X130698536Y-117855312D01*
X130675998Y-117921447D01*
X130630946Y-117960484D01*
X130622182Y-117964949D01*
X130450213Y-118089890D01*
X130299890Y-118240213D01*
X130174951Y-118412179D01*
X130078444Y-118601585D01*
X130012753Y-118803760D01*
X129979500Y-119013713D01*
X129979500Y-119226286D01*
X130011188Y-119426359D01*
X130012754Y-119436243D01*
X130077913Y-119636782D01*
X130078444Y-119638414D01*
X130174951Y-119827820D01*
X130299890Y-119999786D01*
X130413818Y-120113714D01*
X130447303Y-120175037D01*
X130442319Y-120244729D01*
X130400447Y-120300662D01*
X130369471Y-120317577D01*
X130237912Y-120366646D01*
X130237906Y-120366649D01*
X130122812Y-120452809D01*
X130122809Y-120452812D01*
X130036649Y-120567906D01*
X130036645Y-120567913D01*
X129986403Y-120702620D01*
X129986401Y-120702627D01*
X129980000Y-120762155D01*
X129980000Y-121410000D01*
X130896988Y-121410000D01*
X130864075Y-121467007D01*
X130830000Y-121594174D01*
X130830000Y-121725826D01*
X130864075Y-121852993D01*
X130896988Y-121910000D01*
X129980000Y-121910000D01*
X129980000Y-122557844D01*
X129986401Y-122617372D01*
X129986403Y-122617379D01*
X130036645Y-122752086D01*
X130036649Y-122752093D01*
X130122809Y-122867187D01*
X130122812Y-122867190D01*
X130237906Y-122953350D01*
X130237913Y-122953354D01*
X130372620Y-123003596D01*
X130372627Y-123003598D01*
X130432155Y-123009999D01*
X130432172Y-123010000D01*
X131080000Y-123010000D01*
X131080000Y-122093012D01*
X131137007Y-122125925D01*
X131264174Y-122160000D01*
X131395826Y-122160000D01*
X131522993Y-122125925D01*
X131580000Y-122093012D01*
X131580000Y-123010000D01*
X132227828Y-123010000D01*
X132227844Y-123009999D01*
X132287372Y-123003598D01*
X132287379Y-123003596D01*
X132422086Y-122953354D01*
X132422093Y-122953350D01*
X132537187Y-122867190D01*
X132537190Y-122867187D01*
X132623350Y-122752093D01*
X132623354Y-122752086D01*
X132673596Y-122617379D01*
X132673598Y-122617372D01*
X132679999Y-122557844D01*
X132680000Y-122557827D01*
X132680000Y-121910000D01*
X131763012Y-121910000D01*
X131795925Y-121852993D01*
X131830000Y-121725826D01*
X131830000Y-121594174D01*
X131795925Y-121467007D01*
X131763012Y-121410000D01*
X132680000Y-121410000D01*
X132680000Y-120762172D01*
X132679999Y-120762155D01*
X132673598Y-120702627D01*
X132673596Y-120702620D01*
X132623354Y-120567913D01*
X132623350Y-120567906D01*
X132537190Y-120452812D01*
X132537187Y-120452809D01*
X132422093Y-120366649D01*
X132422088Y-120366646D01*
X132290528Y-120317577D01*
X132234595Y-120275705D01*
X132210178Y-120210241D01*
X132225030Y-120141968D01*
X132246175Y-120113720D01*
X132360104Y-119999792D01*
X132485051Y-119827816D01*
X132581557Y-119638412D01*
X132647246Y-119436243D01*
X132680500Y-119226287D01*
X132680500Y-119013713D01*
X132647246Y-118803757D01*
X132581557Y-118601588D01*
X132485051Y-118412184D01*
X132485049Y-118412181D01*
X132485048Y-118412179D01*
X132360109Y-118240213D01*
X132209786Y-118089890D01*
X132037820Y-117964951D01*
X132037115Y-117964591D01*
X132029054Y-117960485D01*
X131978259Y-117912512D01*
X131961463Y-117844692D01*
X131983999Y-117778556D01*
X132014012Y-117748575D01*
X132021210Y-117743511D01*
X132025838Y-117741153D01*
X142479500Y-117741153D01*
X142479500Y-117898846D01*
X142510261Y-118053489D01*
X142510264Y-118053501D01*
X142570602Y-118199172D01*
X142570609Y-118199185D01*
X142658210Y-118330288D01*
X142658213Y-118330292D01*
X142769707Y-118441786D01*
X142769711Y-118441789D01*
X142900814Y-118529390D01*
X142900827Y-118529397D01*
X143046498Y-118589735D01*
X143046503Y-118589737D01*
X143201153Y-118620499D01*
X143201156Y-118620500D01*
X143201158Y-118620500D01*
X143358844Y-118620500D01*
X143358845Y-118620499D01*
X143513497Y-118589737D01*
X143659179Y-118529394D01*
X143790289Y-118441789D01*
X143901789Y-118330289D01*
X143989394Y-118199179D01*
X144049737Y-118053497D01*
X144080500Y-117898842D01*
X144080500Y-117741158D01*
X144080500Y-117741155D01*
X144080499Y-117741153D01*
X144059224Y-117634199D01*
X144049737Y-117586503D01*
X143997250Y-117459786D01*
X143989397Y-117440827D01*
X143989390Y-117440814D01*
X143901789Y-117309711D01*
X143901786Y-117309707D01*
X143790292Y-117198213D01*
X143790288Y-117198210D01*
X143659185Y-117110609D01*
X143659172Y-117110602D01*
X143513501Y-117050264D01*
X143513489Y-117050261D01*
X143358845Y-117019500D01*
X143358842Y-117019500D01*
X143201158Y-117019500D01*
X143201155Y-117019500D01*
X143046510Y-117050261D01*
X143046498Y-117050264D01*
X142900827Y-117110602D01*
X142900814Y-117110609D01*
X142769711Y-117198210D01*
X142769707Y-117198213D01*
X142658213Y-117309707D01*
X142658210Y-117309711D01*
X142570609Y-117440814D01*
X142570602Y-117440827D01*
X142510264Y-117586498D01*
X142510261Y-117586510D01*
X142479500Y-117741153D01*
X132025838Y-117741153D01*
X132037816Y-117735051D01*
X132209792Y-117610104D01*
X132360104Y-117459792D01*
X132475026Y-117301614D01*
X132530355Y-117258949D01*
X132575344Y-117250500D01*
X134803331Y-117250500D01*
X134803347Y-117250501D01*
X134810943Y-117250501D01*
X134969054Y-117250501D01*
X134969057Y-117250501D01*
X135121785Y-117209577D01*
X135191200Y-117169500D01*
X135258716Y-117130520D01*
X135370520Y-117018716D01*
X135370520Y-117018714D01*
X135380724Y-117008511D01*
X135380728Y-117008506D01*
X136558412Y-115830821D01*
X136619733Y-115797338D01*
X136689425Y-115802322D01*
X136733772Y-115830823D01*
X136839707Y-115936758D01*
X136839711Y-115936761D01*
X136970814Y-116024362D01*
X136970827Y-116024369D01*
X137116498Y-116084707D01*
X137116503Y-116084709D01*
X137271153Y-116115471D01*
X137271156Y-116115472D01*
X137271158Y-116115472D01*
X137428844Y-116115472D01*
X137428845Y-116115471D01*
X137583497Y-116084709D01*
X137729179Y-116024366D01*
X137860289Y-115936761D01*
X137971789Y-115825261D01*
X138059394Y-115694151D01*
X138119737Y-115548469D01*
X138149389Y-115399398D01*
X138181774Y-115337488D01*
X138183269Y-115335965D01*
X140359662Y-113159572D01*
X140420983Y-113126089D01*
X140423150Y-113125638D01*
X140481085Y-113114113D01*
X140578497Y-113094737D01*
X140724179Y-113034394D01*
X140855289Y-112946789D01*
X140966789Y-112835289D01*
X141054394Y-112704179D01*
X141114737Y-112558497D01*
X141145500Y-112403842D01*
X141145500Y-112246158D01*
X141145500Y-112246155D01*
X141145499Y-112246153D01*
X141143642Y-112236819D01*
X141114737Y-112091503D01*
X141114735Y-112091498D01*
X141054397Y-111945827D01*
X141054390Y-111945814D01*
X140966789Y-111814711D01*
X140966786Y-111814707D01*
X140858337Y-111706258D01*
X140824852Y-111644935D01*
X140829836Y-111575243D01*
X140858335Y-111530899D01*
X141732112Y-110657122D01*
X141793433Y-110623639D01*
X141795462Y-110623215D01*
X141913497Y-110599737D01*
X142059179Y-110539394D01*
X142190289Y-110451789D01*
X142301789Y-110340289D01*
X142389394Y-110209179D01*
X142449737Y-110063497D01*
X142473028Y-109946404D01*
X142505412Y-109884494D01*
X142566128Y-109849920D01*
X142635897Y-109853659D01*
X142663939Y-109869462D01*
X142664646Y-109868405D01*
X142800814Y-109959390D01*
X142800827Y-109959397D01*
X142871688Y-109988748D01*
X142946503Y-110019737D01*
X143072241Y-110044748D01*
X143101153Y-110050499D01*
X143101156Y-110050500D01*
X143101158Y-110050500D01*
X143258844Y-110050500D01*
X143258845Y-110050499D01*
X143413497Y-110019737D01*
X143559179Y-109959394D01*
X143690289Y-109871789D01*
X143801789Y-109760289D01*
X143889394Y-109629179D01*
X143949737Y-109483497D01*
X143980500Y-109328842D01*
X143980500Y-109171158D01*
X143980500Y-109171155D01*
X143980499Y-109171153D01*
X143974139Y-109139179D01*
X143949737Y-109016503D01*
X143928361Y-108964896D01*
X143889397Y-108870827D01*
X143889390Y-108870814D01*
X143801398Y-108739125D01*
X143796140Y-108722334D01*
X143786308Y-108707740D01*
X143785916Y-108689681D01*
X143780520Y-108672447D01*
X143780500Y-108670234D01*
X143780500Y-105979097D01*
X143800185Y-105912058D01*
X143852989Y-105866303D01*
X143922147Y-105856359D01*
X143985703Y-105885384D01*
G37*
%TD.AperFunction*%
%TA.AperFunction,Conductor*%
G36*
X125096926Y-102839254D02*
G01*
X125111454Y-102840293D01*
X125128321Y-102852920D01*
X125147637Y-102861328D01*
X125164234Y-102879804D01*
X125167387Y-102882165D01*
X125171222Y-102887584D01*
X125253210Y-103010289D01*
X125364707Y-103121786D01*
X125364711Y-103121789D01*
X125495814Y-103209390D01*
X125495827Y-103209397D01*
X125596907Y-103251265D01*
X125641503Y-103269737D01*
X125706147Y-103282595D01*
X125796849Y-103300638D01*
X125858760Y-103333023D01*
X125860335Y-103334570D01*
X126431284Y-103905520D01*
X126431286Y-103905521D01*
X126431290Y-103905524D01*
X126547469Y-103972599D01*
X126568216Y-103984577D01*
X126720943Y-104025501D01*
X126720945Y-104025501D01*
X126886654Y-104025501D01*
X126886670Y-104025500D01*
X133859155Y-104025500D01*
X133926194Y-104045185D01*
X133971949Y-104097989D01*
X133981893Y-104167147D01*
X133973716Y-104196952D01*
X133955264Y-104241498D01*
X133955261Y-104241510D01*
X133924500Y-104396153D01*
X133924500Y-104553846D01*
X133955261Y-104708489D01*
X133955264Y-104708501D01*
X134015603Y-104854174D01*
X134015605Y-104854177D01*
X134015606Y-104854179D01*
X134036251Y-104885076D01*
X134041573Y-104893041D01*
X134062450Y-104959719D01*
X134043965Y-105027099D01*
X134026151Y-105049612D01*
X130362584Y-108713181D01*
X130301261Y-108746666D01*
X130274903Y-108749500D01*
X125929057Y-108749500D01*
X125770942Y-108749500D01*
X125618215Y-108790423D01*
X125592050Y-108805529D01*
X125585038Y-108809578D01*
X125585037Y-108809577D01*
X125481287Y-108869477D01*
X125481282Y-108869481D01*
X124227181Y-110123583D01*
X124165858Y-110157068D01*
X124096166Y-110152084D01*
X124040233Y-110110212D01*
X124015816Y-110044748D01*
X124015500Y-110035902D01*
X124015500Y-109888713D01*
X124012451Y-109869462D01*
X123982246Y-109678757D01*
X123916557Y-109476588D01*
X123820051Y-109287184D01*
X123820049Y-109287181D01*
X123820048Y-109287179D01*
X123695109Y-109115213D01*
X123544786Y-108964890D01*
X123372820Y-108839951D01*
X123183414Y-108743444D01*
X123183413Y-108743443D01*
X123183412Y-108743443D01*
X122981243Y-108677754D01*
X122981241Y-108677753D01*
X122981240Y-108677753D01*
X122819957Y-108652208D01*
X122771287Y-108644500D01*
X122558713Y-108644500D01*
X122510042Y-108652208D01*
X122348760Y-108677753D01*
X122146585Y-108743444D01*
X121957179Y-108839951D01*
X121785215Y-108964889D01*
X121671673Y-109078431D01*
X121610350Y-109111915D01*
X121540658Y-109106931D01*
X121484725Y-109065059D01*
X121467810Y-109034082D01*
X121418797Y-108902671D01*
X121418793Y-108902664D01*
X121332547Y-108787455D01*
X121332544Y-108787452D01*
X121217335Y-108701206D01*
X121217328Y-108701202D01*
X121082482Y-108650908D01*
X121082483Y-108650908D01*
X121022883Y-108644501D01*
X121022881Y-108644500D01*
X121022873Y-108644500D01*
X121022865Y-108644500D01*
X119504095Y-108644500D01*
X119437056Y-108624815D01*
X119391301Y-108572011D01*
X119381357Y-108502853D01*
X119410382Y-108439297D01*
X119416400Y-108432833D01*
X124980441Y-102868792D01*
X124998930Y-102858697D01*
X125014604Y-102844618D01*
X125028980Y-102842288D01*
X125041762Y-102835309D01*
X125062777Y-102836811D01*
X125083574Y-102833442D01*
X125096926Y-102839254D01*
G37*
%TD.AperFunction*%
%TA.AperFunction,Conductor*%
G36*
X120320000Y-105779402D02*
G01*
X120300315Y-105846441D01*
X120283681Y-105867083D01*
X116083181Y-110067583D01*
X116021858Y-110101068D01*
X115952166Y-110096084D01*
X115896233Y-110054212D01*
X115871816Y-109988748D01*
X115871500Y-109979902D01*
X115871500Y-105989499D01*
X115891185Y-105922460D01*
X115943989Y-105876705D01*
X115995500Y-105865499D01*
X116470002Y-105865499D01*
X116470008Y-105865499D01*
X116572797Y-105854999D01*
X116739334Y-105799814D01*
X116888656Y-105707712D01*
X117012712Y-105583656D01*
X117052310Y-105519456D01*
X117104258Y-105472732D01*
X117173220Y-105461509D01*
X117237303Y-105489352D01*
X117245530Y-105496872D01*
X117353072Y-105604414D01*
X117493212Y-105706232D01*
X117647555Y-105784873D01*
X117812299Y-105838402D01*
X117983389Y-105865500D01*
X117983390Y-105865500D01*
X118156610Y-105865500D01*
X118156611Y-105865500D01*
X118327701Y-105838402D01*
X118492445Y-105784873D01*
X118646788Y-105706232D01*
X118786928Y-105604414D01*
X118909414Y-105481928D01*
X118969991Y-105398550D01*
X119025321Y-105355885D01*
X119094934Y-105349906D01*
X119156729Y-105382512D01*
X119170628Y-105398551D01*
X119230967Y-105481602D01*
X119353397Y-105604032D01*
X119493475Y-105705804D01*
X119647744Y-105784408D01*
X119812415Y-105837914D01*
X119812414Y-105837914D01*
X119819999Y-105839115D01*
X119820000Y-105839114D01*
X119820000Y-104770330D01*
X119839745Y-104790075D01*
X119925255Y-104839444D01*
X120020630Y-104865000D01*
X120119370Y-104865000D01*
X120214745Y-104839444D01*
X120300255Y-104790075D01*
X120320000Y-104770330D01*
X120320000Y-105779402D01*
G37*
%TD.AperFunction*%
%TA.AperFunction,Conductor*%
G36*
X145455703Y-99255384D02*
G01*
X145462181Y-99261416D01*
X150913181Y-104712416D01*
X150946666Y-104773739D01*
X150949500Y-104800097D01*
X150949500Y-107225500D01*
X150929815Y-107292539D01*
X150877011Y-107338294D01*
X150825500Y-107349500D01*
X150821155Y-107349500D01*
X150666510Y-107380261D01*
X150666498Y-107380264D01*
X150520828Y-107440602D01*
X150520812Y-107440611D01*
X150516623Y-107443410D01*
X150449943Y-107464281D01*
X150382565Y-107445790D01*
X150365091Y-107431962D01*
X150364999Y-107432076D01*
X150360288Y-107428210D01*
X150229185Y-107340609D01*
X150229172Y-107340602D01*
X150083501Y-107280264D01*
X150083489Y-107280261D01*
X149928845Y-107249500D01*
X149928842Y-107249500D01*
X149771158Y-107249500D01*
X149771155Y-107249500D01*
X149616510Y-107280261D01*
X149616498Y-107280264D01*
X149470827Y-107340602D01*
X149470814Y-107340609D01*
X149339711Y-107428210D01*
X149339707Y-107428213D01*
X149228213Y-107539707D01*
X149228210Y-107539711D01*
X149140609Y-107670814D01*
X149140602Y-107670827D01*
X149080264Y-107816498D01*
X149080261Y-107816510D01*
X149049500Y-107971153D01*
X149049500Y-108128841D01*
X149053969Y-108151310D01*
X149047740Y-108220901D01*
X149004877Y-108276078D01*
X148938987Y-108299322D01*
X148932351Y-108299500D01*
X147229766Y-108299500D01*
X147162727Y-108279815D01*
X147160875Y-108278602D01*
X147029185Y-108190609D01*
X147029172Y-108190602D01*
X146883501Y-108130264D01*
X146883492Y-108130261D01*
X146813376Y-108116314D01*
X146751466Y-108083928D01*
X146716892Y-108023212D01*
X146720633Y-107953443D01*
X146730177Y-107932706D01*
X146759577Y-107881784D01*
X146800501Y-107729057D01*
X146800501Y-107570942D01*
X146800501Y-107563347D01*
X146800500Y-107563329D01*
X146800500Y-105139059D01*
X146800501Y-105139046D01*
X146800501Y-104970945D01*
X146800501Y-104970943D01*
X146759577Y-104818215D01*
X146728705Y-104764744D01*
X146728705Y-104764743D01*
X146680522Y-104681287D01*
X146680521Y-104681286D01*
X146680520Y-104681284D01*
X146568716Y-104569480D01*
X146568715Y-104569479D01*
X146564385Y-104565149D01*
X146564374Y-104565139D01*
X145286819Y-103287584D01*
X145253334Y-103226261D01*
X145250500Y-103199903D01*
X145250500Y-99349097D01*
X145270185Y-99282058D01*
X145322989Y-99236303D01*
X145392147Y-99226359D01*
X145455703Y-99255384D01*
G37*
%TD.AperFunction*%
%TA.AperFunction,Conductor*%
G36*
X145376942Y-96780185D02*
G01*
X145397584Y-96796819D01*
X151563181Y-102962416D01*
X151596666Y-103023739D01*
X151599500Y-103050097D01*
X151599500Y-103400903D01*
X151579815Y-103467942D01*
X151527011Y-103513697D01*
X151457853Y-103523641D01*
X151394297Y-103494616D01*
X151387819Y-103488584D01*
X145284574Y-97385339D01*
X145251089Y-97324016D01*
X145250638Y-97321849D01*
X145222609Y-97180943D01*
X145219737Y-97166503D01*
X145219735Y-97166498D01*
X145159397Y-97020827D01*
X145159390Y-97020814D01*
X145114339Y-96953391D01*
X145111301Y-96943690D01*
X145104647Y-96936011D01*
X145101038Y-96910913D01*
X145093461Y-96886714D01*
X145096149Y-96876913D01*
X145094703Y-96866853D01*
X145105237Y-96843786D01*
X145111945Y-96819334D01*
X145119505Y-96812542D01*
X145123728Y-96803297D01*
X145145060Y-96789587D01*
X145163924Y-96772643D01*
X145175521Y-96770011D01*
X145182506Y-96765523D01*
X145217441Y-96760500D01*
X145309903Y-96760500D01*
X145376942Y-96780185D01*
G37*
%TD.AperFunction*%
%TA.AperFunction,Conductor*%
G36*
X130566942Y-96620185D02*
G01*
X130587584Y-96636819D01*
X133363181Y-99412416D01*
X133396666Y-99473739D01*
X133399500Y-99500097D01*
X133399500Y-100370234D01*
X133379815Y-100437273D01*
X133378602Y-100439125D01*
X133290609Y-100570814D01*
X133290602Y-100570827D01*
X133230264Y-100716498D01*
X133230261Y-100716510D01*
X133199500Y-100871153D01*
X133199500Y-101020902D01*
X133193261Y-101042147D01*
X133191682Y-101064235D01*
X133183609Y-101075018D01*
X133179815Y-101087941D01*
X133163083Y-101102439D01*
X133149811Y-101120169D01*
X133137188Y-101124876D01*
X133127011Y-101133696D01*
X133105095Y-101136847D01*
X133084347Y-101144586D01*
X133071185Y-101141722D01*
X133057853Y-101143640D01*
X133037708Y-101134440D01*
X133016074Y-101129734D01*
X132998346Y-101116464D01*
X132994297Y-101114615D01*
X132987819Y-101108584D01*
X132929175Y-101049940D01*
X132867584Y-100988349D01*
X132867580Y-100988344D01*
X132748717Y-100869481D01*
X132748716Y-100869480D01*
X132661904Y-100819360D01*
X132661904Y-100819359D01*
X132661900Y-100819358D01*
X132611785Y-100790423D01*
X132459057Y-100749499D01*
X132300943Y-100749499D01*
X132293347Y-100749499D01*
X132293331Y-100749500D01*
X127679766Y-100749500D01*
X127663078Y-100744730D01*
X127646551Y-100744969D01*
X127617862Y-100731807D01*
X127614239Y-100730772D01*
X127610559Y-100728481D01*
X127610289Y-100728211D01*
X127479179Y-100640606D01*
X127449903Y-100628479D01*
X127441248Y-100623092D01*
X127424506Y-100604324D01*
X127404919Y-100588541D01*
X127401641Y-100578694D01*
X127394736Y-100570953D01*
X127390797Y-100546114D01*
X127382854Y-100522247D01*
X127385419Y-100512194D01*
X127383795Y-100501946D01*
X127393913Y-100478916D01*
X127400133Y-100454547D01*
X127410462Y-100441250D01*
X127411900Y-100437978D01*
X127414178Y-100436466D01*
X127419090Y-100430143D01*
X127933506Y-99915728D01*
X127933511Y-99915724D01*
X127943714Y-99905520D01*
X127943716Y-99905520D01*
X128055520Y-99793716D01*
X128124349Y-99674500D01*
X128134577Y-99656785D01*
X128175500Y-99504058D01*
X128175500Y-99345943D01*
X128175500Y-98029765D01*
X128195185Y-97962726D01*
X128196398Y-97960874D01*
X128284390Y-97829185D01*
X128284390Y-97829184D01*
X128284394Y-97829179D01*
X128344737Y-97683497D01*
X128375500Y-97528842D01*
X128375500Y-97371158D01*
X128375500Y-97371155D01*
X128375499Y-97371153D01*
X128365553Y-97321153D01*
X128344737Y-97216503D01*
X128327658Y-97175270D01*
X128284397Y-97070827D01*
X128284390Y-97070814D01*
X128196789Y-96939711D01*
X128196786Y-96939707D01*
X128085291Y-96828212D01*
X128084379Y-96827603D01*
X128084008Y-96827160D01*
X128080581Y-96824347D01*
X128081114Y-96823696D01*
X128039573Y-96773990D01*
X128030866Y-96704666D01*
X128061020Y-96641638D01*
X128120463Y-96604918D01*
X128153269Y-96600500D01*
X130499903Y-96600500D01*
X130566942Y-96620185D01*
G37*
%TD.AperFunction*%
%TA.AperFunction,Conductor*%
G36*
X154934075Y-96252993D02*
G01*
X154999901Y-96367007D01*
X155092993Y-96460099D01*
X155207007Y-96525925D01*
X155270589Y-96542962D01*
X154638282Y-97175269D01*
X154638282Y-97175270D01*
X154692452Y-97214626D01*
X154692451Y-97214626D01*
X154701495Y-97219234D01*
X154752292Y-97267208D01*
X154769087Y-97335029D01*
X154746550Y-97401164D01*
X154701499Y-97440202D01*
X154692182Y-97444949D01*
X154520215Y-97569889D01*
X154406673Y-97683431D01*
X154345350Y-97716915D01*
X154275658Y-97711931D01*
X154219725Y-97670059D01*
X154202810Y-97639082D01*
X154153797Y-97507671D01*
X154153793Y-97507664D01*
X154067547Y-97392455D01*
X154067544Y-97392452D01*
X153952335Y-97306206D01*
X153952328Y-97306202D01*
X153820917Y-97257189D01*
X153764983Y-97215318D01*
X153740566Y-97149853D01*
X153755418Y-97081580D01*
X153776563Y-97053332D01*
X153890104Y-96939792D01*
X154015051Y-96767816D01*
X154019793Y-96758508D01*
X154067763Y-96707711D01*
X154135583Y-96690911D01*
X154201719Y-96713445D01*
X154240763Y-96758500D01*
X154245373Y-96767547D01*
X154284728Y-96821716D01*
X154917037Y-96189408D01*
X154934075Y-96252993D01*
G37*
%TD.AperFunction*%
%TA.AperFunction,Conductor*%
G36*
X163062539Y-87420185D02*
G01*
X163108294Y-87472989D01*
X163119500Y-87524500D01*
X163119500Y-137185500D01*
X163099815Y-137252539D01*
X163047011Y-137298294D01*
X162995500Y-137309500D01*
X142943073Y-137309500D01*
X142876034Y-137289815D01*
X142830279Y-137237011D01*
X142820335Y-137167853D01*
X142849360Y-137104297D01*
X142874182Y-137082398D01*
X142957462Y-137026751D01*
X142957466Y-137026748D01*
X143096748Y-136887466D01*
X143096751Y-136887462D01*
X143206185Y-136723684D01*
X143206192Y-136723671D01*
X143281569Y-136541693D01*
X143281572Y-136541681D01*
X143319999Y-136348495D01*
X143320000Y-136348492D01*
X143320000Y-136200000D01*
X142620000Y-136200000D01*
X142620000Y-135700000D01*
X143320000Y-135700000D01*
X143320000Y-135551508D01*
X143319999Y-135551504D01*
X143281572Y-135358318D01*
X143281569Y-135358306D01*
X143206192Y-135176328D01*
X143206185Y-135176315D01*
X143096751Y-135012537D01*
X143096748Y-135012533D01*
X142957466Y-134873251D01*
X142957462Y-134873248D01*
X142793684Y-134763814D01*
X142793674Y-134763809D01*
X142778433Y-134757496D01*
X142778431Y-134757495D01*
X142611691Y-134688429D01*
X142611683Y-134688427D01*
X142570000Y-134680135D01*
X142570000Y-135483011D01*
X142560060Y-135465795D01*
X142504205Y-135409940D01*
X142435796Y-135370444D01*
X142359496Y-135350000D01*
X142280504Y-135350000D01*
X142204204Y-135370444D01*
X142135795Y-135409940D01*
X142079940Y-135465795D01*
X142070000Y-135483011D01*
X142070000Y-134680136D01*
X142069999Y-134680135D01*
X142028316Y-134688427D01*
X142028308Y-134688429D01*
X141846328Y-134763807D01*
X141846315Y-134763814D01*
X141682537Y-134873248D01*
X141682533Y-134873251D01*
X141543251Y-135012533D01*
X141543248Y-135012537D01*
X141433814Y-135176315D01*
X141433807Y-135176328D01*
X141358430Y-135358306D01*
X141358427Y-135358318D01*
X141320000Y-135551504D01*
X141320000Y-135700000D01*
X142020000Y-135700000D01*
X142020000Y-136200000D01*
X141320000Y-136200000D01*
X141320000Y-136348495D01*
X141358427Y-136541681D01*
X141358430Y-136541693D01*
X141433807Y-136723671D01*
X141433814Y-136723684D01*
X141543248Y-136887462D01*
X141543251Y-136887466D01*
X141682533Y-137026748D01*
X141682537Y-137026751D01*
X141765818Y-137082398D01*
X141810623Y-137136010D01*
X141819330Y-137205335D01*
X141789176Y-137268363D01*
X141729733Y-137305082D01*
X141696927Y-137309500D01*
X134303073Y-137309500D01*
X134236034Y-137289815D01*
X134190279Y-137237011D01*
X134180335Y-137167853D01*
X134209360Y-137104297D01*
X134234182Y-137082398D01*
X134317462Y-137026751D01*
X134317466Y-137026748D01*
X134456748Y-136887466D01*
X134456751Y-136887462D01*
X134566185Y-136723684D01*
X134566192Y-136723671D01*
X134641569Y-136541693D01*
X134641572Y-136541681D01*
X134679999Y-136348495D01*
X134680000Y-136348492D01*
X134680000Y-136200000D01*
X133980000Y-136200000D01*
X133980000Y-135700000D01*
X134680000Y-135700000D01*
X134680000Y-135551508D01*
X134679999Y-135551504D01*
X134641572Y-135358318D01*
X134641569Y-135358306D01*
X134566192Y-135176328D01*
X134566185Y-135176315D01*
X134456751Y-135012537D01*
X134456748Y-135012533D01*
X134317466Y-134873251D01*
X134317462Y-134873248D01*
X134153684Y-134763814D01*
X134153671Y-134763807D01*
X133971691Y-134688429D01*
X133971683Y-134688427D01*
X133930000Y-134680135D01*
X133930000Y-135483011D01*
X133920060Y-135465795D01*
X133864205Y-135409940D01*
X133795796Y-135370444D01*
X133719496Y-135350000D01*
X133640504Y-135350000D01*
X133564204Y-135370444D01*
X133495795Y-135409940D01*
X133439940Y-135465795D01*
X133430000Y-135483011D01*
X133430000Y-134680136D01*
X133429999Y-134680135D01*
X133388316Y-134688427D01*
X133388308Y-134688429D01*
X133206328Y-134763807D01*
X133206315Y-134763814D01*
X133042537Y-134873248D01*
X133042533Y-134873251D01*
X132903251Y-135012533D01*
X132903248Y-135012537D01*
X132793814Y-135176315D01*
X132793807Y-135176328D01*
X132718430Y-135358306D01*
X132718427Y-135358318D01*
X132680000Y-135551504D01*
X132680000Y-135700000D01*
X133380000Y-135700000D01*
X133380000Y-136200000D01*
X132680000Y-136200000D01*
X132680000Y-136348495D01*
X132718427Y-136541681D01*
X132718430Y-136541693D01*
X132793807Y-136723671D01*
X132793814Y-136723684D01*
X132903248Y-136887462D01*
X132903251Y-136887466D01*
X133042533Y-137026748D01*
X133042537Y-137026751D01*
X133125818Y-137082398D01*
X133170623Y-137136010D01*
X133179330Y-137205335D01*
X133149176Y-137268363D01*
X133089733Y-137305082D01*
X133056927Y-137309500D01*
X113784500Y-137309500D01*
X113717461Y-137289815D01*
X113671706Y-137237011D01*
X113660500Y-137185500D01*
X113660500Y-132458711D01*
X115499500Y-132458711D01*
X115499500Y-132701288D01*
X115531161Y-132941785D01*
X115593947Y-133176104D01*
X115663446Y-133343889D01*
X115686776Y-133400212D01*
X115808064Y-133610289D01*
X115808066Y-133610292D01*
X115808067Y-133610293D01*
X115955733Y-133802736D01*
X115955739Y-133802743D01*
X116127256Y-133974260D01*
X116127262Y-133974265D01*
X116319711Y-134121936D01*
X116529788Y-134243224D01*
X116753900Y-134336054D01*
X116988211Y-134398838D01*
X117168586Y-134422584D01*
X117228711Y-134430500D01*
X117228712Y-134430500D01*
X117471289Y-134430500D01*
X117519388Y-134424167D01*
X117711789Y-134398838D01*
X117946100Y-134336054D01*
X118170212Y-134243224D01*
X118380289Y-134121936D01*
X118572738Y-133974265D01*
X118744265Y-133802738D01*
X118891936Y-133610289D01*
X119013224Y-133400212D01*
X119106054Y-133176100D01*
X119120777Y-133121153D01*
X123049500Y-133121153D01*
X123049500Y-133278846D01*
X123080261Y-133433489D01*
X123080264Y-133433501D01*
X123140602Y-133579172D01*
X123140609Y-133579185D01*
X123228210Y-133710288D01*
X123228213Y-133710292D01*
X123339707Y-133821786D01*
X123339711Y-133821789D01*
X123470814Y-133909390D01*
X123470827Y-133909397D01*
X123616498Y-133969735D01*
X123616503Y-133969737D01*
X123771153Y-134000499D01*
X123771156Y-134000500D01*
X123771158Y-134000500D01*
X123928844Y-134000500D01*
X123928845Y-134000499D01*
X124083497Y-133969737D01*
X124229179Y-133909394D01*
X124360289Y-133821789D01*
X124471789Y-133710289D01*
X124559394Y-133579179D01*
X124619737Y-133433497D01*
X124650500Y-133278842D01*
X124650500Y-133121158D01*
X124650500Y-133121155D01*
X124650499Y-133121153D01*
X124645645Y-133096751D01*
X124619737Y-132966503D01*
X124582043Y-132875500D01*
X124559397Y-132820827D01*
X124559390Y-132820814D01*
X124471789Y-132689711D01*
X124471786Y-132689707D01*
X124360292Y-132578213D01*
X124360288Y-132578210D01*
X124229185Y-132490609D01*
X124229172Y-132490602D01*
X124083501Y-132430264D01*
X124083489Y-132430261D01*
X123928845Y-132399500D01*
X123928842Y-132399500D01*
X123771158Y-132399500D01*
X123771155Y-132399500D01*
X123616510Y-132430261D01*
X123616498Y-132430264D01*
X123470827Y-132490602D01*
X123470814Y-132490609D01*
X123339711Y-132578210D01*
X123339707Y-132578213D01*
X123228213Y-132689707D01*
X123228210Y-132689711D01*
X123140609Y-132820814D01*
X123140602Y-132820827D01*
X123080264Y-132966498D01*
X123080261Y-132966510D01*
X123049500Y-133121153D01*
X119120777Y-133121153D01*
X119168838Y-132941789D01*
X119200500Y-132701288D01*
X119200500Y-132458712D01*
X119168838Y-132218211D01*
X119106054Y-131983900D01*
X119013224Y-131759788D01*
X118891936Y-131549711D01*
X118744265Y-131357262D01*
X118744260Y-131357256D01*
X118572743Y-131185739D01*
X118572736Y-131185733D01*
X118380293Y-131038067D01*
X118380292Y-131038066D01*
X118380289Y-131038064D01*
X118197961Y-130932797D01*
X118170214Y-130916777D01*
X118170205Y-130916773D01*
X117946104Y-130823947D01*
X117711785Y-130761161D01*
X117471289Y-130729500D01*
X117471288Y-130729500D01*
X117228712Y-130729500D01*
X117228711Y-130729500D01*
X116988214Y-130761161D01*
X116753895Y-130823947D01*
X116529794Y-130916773D01*
X116529785Y-130916777D01*
X116319706Y-131038067D01*
X116127263Y-131185733D01*
X116127256Y-131185739D01*
X115955739Y-131357256D01*
X115955733Y-131357263D01*
X115808067Y-131549706D01*
X115686777Y-131759785D01*
X115686773Y-131759794D01*
X115593947Y-131983895D01*
X115531161Y-132218214D01*
X115499500Y-132458711D01*
X113660500Y-132458711D01*
X113660500Y-105498054D01*
X114568498Y-105498054D01*
X114609423Y-105650785D01*
X114619776Y-105668716D01*
X114619777Y-105668718D01*
X114653887Y-105727798D01*
X114670500Y-105789798D01*
X114670500Y-117028330D01*
X114670499Y-117028348D01*
X114670499Y-117194054D01*
X114670498Y-117194054D01*
X114711423Y-117346785D01*
X114711424Y-117346788D01*
X114715622Y-117354058D01*
X114715625Y-117354063D01*
X114790477Y-117483712D01*
X114790481Y-117483717D01*
X114909349Y-117602585D01*
X114909355Y-117602590D01*
X119967803Y-122661038D01*
X120001288Y-122722361D01*
X119996304Y-122792053D01*
X119954432Y-122847986D01*
X119904314Y-122870336D01*
X119779008Y-122895261D01*
X119778998Y-122895264D01*
X119633327Y-122955602D01*
X119633314Y-122955609D01*
X119502211Y-123043210D01*
X119502207Y-123043213D01*
X119390713Y-123154707D01*
X119390710Y-123154711D01*
X119303109Y-123285814D01*
X119303102Y-123285827D01*
X119242764Y-123431498D01*
X119242761Y-123431510D01*
X119212000Y-123586153D01*
X119212000Y-123743846D01*
X119242761Y-123898489D01*
X119242764Y-123898501D01*
X119303102Y-124044172D01*
X119303109Y-124044185D01*
X119390710Y-124175288D01*
X119390713Y-124175292D01*
X119502207Y-124286786D01*
X119502211Y-124286789D01*
X119633314Y-124374390D01*
X119633327Y-124374397D01*
X119778998Y-124434735D01*
X119779003Y-124434737D01*
X119933653Y-124465499D01*
X119933656Y-124465500D01*
X119933658Y-124465500D01*
X120091344Y-124465500D01*
X120091345Y-124465499D01*
X120245997Y-124434737D01*
X120391679Y-124374394D01*
X120522789Y-124286789D01*
X120634289Y-124175289D01*
X120721894Y-124044179D01*
X120782237Y-123898497D01*
X120807163Y-123773185D01*
X120839547Y-123711275D01*
X120900263Y-123676701D01*
X120970033Y-123680440D01*
X121016461Y-123709696D01*
X121620139Y-124313374D01*
X121620149Y-124313385D01*
X121624479Y-124317715D01*
X121624480Y-124317716D01*
X121736284Y-124429520D01*
X121736286Y-124429521D01*
X121736290Y-124429524D01*
X121873209Y-124508573D01*
X121873216Y-124508577D01*
X121957960Y-124531284D01*
X122025942Y-124549500D01*
X122025943Y-124549500D01*
X135589771Y-124549500D01*
X135656810Y-124569185D01*
X135702565Y-124621989D01*
X135712509Y-124691147D01*
X135683484Y-124754703D01*
X135677452Y-124761181D01*
X130667048Y-129771583D01*
X130642614Y-129808152D01*
X130618342Y-129844480D01*
X130584914Y-129894507D01*
X130584913Y-129894509D01*
X130528343Y-130031082D01*
X130528340Y-130031092D01*
X130499500Y-130176079D01*
X130499500Y-131495396D01*
X130490062Y-131542844D01*
X130480263Y-131566503D01*
X130480262Y-131566506D01*
X130480260Y-131566511D01*
X130449500Y-131721153D01*
X130449500Y-131878846D01*
X130480261Y-132033489D01*
X130480264Y-132033501D01*
X130540602Y-132179172D01*
X130540609Y-132179185D01*
X130628210Y-132310288D01*
X130628213Y-132310292D01*
X130739707Y-132421786D01*
X130739711Y-132421789D01*
X130870814Y-132509390D01*
X130870827Y-132509397D01*
X130993140Y-132560060D01*
X131016503Y-132569737D01*
X131166412Y-132599556D01*
X131171153Y-132600499D01*
X131171156Y-132600500D01*
X131171158Y-132600500D01*
X131328844Y-132600500D01*
X131328845Y-132600499D01*
X131483497Y-132569737D01*
X131598419Y-132522135D01*
X131629172Y-132509397D01*
X131629172Y-132509396D01*
X131629179Y-132509394D01*
X131760289Y-132421789D01*
X131871789Y-132310289D01*
X131959394Y-132179179D01*
X132019737Y-132033497D01*
X132029604Y-131983895D01*
X132037451Y-131944446D01*
X132037451Y-131944445D01*
X132050499Y-131878846D01*
X132050500Y-131878844D01*
X132050500Y-131721155D01*
X132050499Y-131721153D01*
X132019739Y-131566511D01*
X132019738Y-131566508D01*
X132019737Y-131566503D01*
X132009937Y-131542844D01*
X132000500Y-131495396D01*
X132000500Y-131121504D01*
X132680000Y-131121504D01*
X132680000Y-131520000D01*
X133380000Y-131520000D01*
X133380000Y-132020000D01*
X132680000Y-132020000D01*
X132680000Y-132418495D01*
X132718427Y-132611681D01*
X132718430Y-132611693D01*
X132793807Y-132793671D01*
X132793814Y-132793684D01*
X132903248Y-132957462D01*
X132903251Y-132957466D01*
X133042533Y-133096748D01*
X133042537Y-133096751D01*
X133206315Y-133206185D01*
X133206328Y-133206192D01*
X133388308Y-133281569D01*
X133430000Y-133289862D01*
X133430000Y-132486988D01*
X133439940Y-132504205D01*
X133495795Y-132560060D01*
X133564204Y-132599556D01*
X133640504Y-132620000D01*
X133719496Y-132620000D01*
X133795796Y-132599556D01*
X133864205Y-132560060D01*
X133920060Y-132504205D01*
X133930000Y-132486988D01*
X133930000Y-133289862D01*
X133971690Y-133281569D01*
X133971692Y-133281569D01*
X134153671Y-133206192D01*
X134153684Y-133206185D01*
X134317462Y-133096751D01*
X134317466Y-133096748D01*
X134456748Y-132957466D01*
X134456751Y-132957462D01*
X134569574Y-132788613D01*
X134571007Y-132789570D01*
X134614198Y-132745580D01*
X134682332Y-132730103D01*
X134748018Y-132753919D01*
X134750089Y-132755697D01*
X134750189Y-132755568D01*
X134756630Y-132760510D01*
X134756635Y-132760515D01*
X134887865Y-132836281D01*
X135034234Y-132875500D01*
X135034236Y-132875500D01*
X135185764Y-132875500D01*
X135185766Y-132875500D01*
X135332135Y-132836281D01*
X135463365Y-132760515D01*
X135570515Y-132653365D01*
X135646281Y-132522135D01*
X135685500Y-132375766D01*
X135685500Y-132224234D01*
X135646281Y-132077865D01*
X135570515Y-131946635D01*
X135463365Y-131839485D01*
X135397750Y-131801602D01*
X135332136Y-131763719D01*
X135258950Y-131744109D01*
X135185766Y-131724500D01*
X135034234Y-131724500D01*
X134887863Y-131763719D01*
X134756635Y-131839485D01*
X134756632Y-131839487D01*
X134649486Y-131946633D01*
X134649482Y-131946638D01*
X134642923Y-131958000D01*
X134592356Y-132006216D01*
X134535536Y-132020000D01*
X133980000Y-132020000D01*
X133980000Y-131520000D01*
X134680000Y-131520000D01*
X134680000Y-131121508D01*
X134679999Y-131121504D01*
X134641572Y-130928318D01*
X134641569Y-130928306D01*
X134566192Y-130746328D01*
X134566185Y-130746315D01*
X134456751Y-130582537D01*
X134456748Y-130582533D01*
X134317466Y-130443251D01*
X134317462Y-130443248D01*
X134153684Y-130333814D01*
X134153671Y-130333807D01*
X133971691Y-130258429D01*
X133971683Y-130258427D01*
X133930000Y-130250135D01*
X133930000Y-131053011D01*
X133920060Y-131035795D01*
X133864205Y-130979940D01*
X133795796Y-130940444D01*
X133719496Y-130920000D01*
X133640504Y-130920000D01*
X133564204Y-130940444D01*
X133495795Y-130979940D01*
X133439940Y-131035795D01*
X133430000Y-131053011D01*
X133430000Y-130250136D01*
X133429999Y-130250135D01*
X133388316Y-130258427D01*
X133388308Y-130258429D01*
X133206328Y-130333807D01*
X133206315Y-130333814D01*
X133042537Y-130443248D01*
X133042533Y-130443251D01*
X132903251Y-130582533D01*
X132903248Y-130582537D01*
X132793814Y-130746315D01*
X132793807Y-130746328D01*
X132718430Y-130928306D01*
X132718427Y-130928318D01*
X132680000Y-131121504D01*
X132000500Y-131121504D01*
X132000500Y-130612229D01*
X132020185Y-130545190D01*
X132036819Y-130524548D01*
X133365214Y-129196153D01*
X134749500Y-129196153D01*
X134749500Y-129353846D01*
X134780261Y-129508489D01*
X134780264Y-129508501D01*
X134840602Y-129654172D01*
X134840609Y-129654185D01*
X134928210Y-129785288D01*
X134928213Y-129785292D01*
X135039707Y-129896786D01*
X135039711Y-129896789D01*
X135170814Y-129984390D01*
X135170827Y-129984397D01*
X135316498Y-130044735D01*
X135316503Y-130044737D01*
X135471153Y-130075499D01*
X135471156Y-130075500D01*
X135471158Y-130075500D01*
X139350902Y-130075500D01*
X139417941Y-130095185D01*
X139463696Y-130147989D01*
X139473640Y-130217147D01*
X139444615Y-130280703D01*
X139438583Y-130287181D01*
X137487584Y-132238181D01*
X137460656Y-132252884D01*
X137434838Y-132269477D01*
X137428637Y-132270368D01*
X137426261Y-132271666D01*
X137399903Y-132274500D01*
X137329766Y-132274500D01*
X137262727Y-132254815D01*
X137260875Y-132253602D01*
X137129185Y-132165609D01*
X137129172Y-132165602D01*
X136983501Y-132105264D01*
X136983489Y-132105261D01*
X136828845Y-132074500D01*
X136828842Y-132074500D01*
X136671158Y-132074500D01*
X136671155Y-132074500D01*
X136516510Y-132105261D01*
X136516498Y-132105264D01*
X136370827Y-132165602D01*
X136370814Y-132165609D01*
X136239711Y-132253210D01*
X136239707Y-132253213D01*
X136128213Y-132364707D01*
X136128210Y-132364711D01*
X136040609Y-132495814D01*
X136040602Y-132495827D01*
X135980264Y-132641498D01*
X135980261Y-132641510D01*
X135949500Y-132796153D01*
X135949500Y-132953846D01*
X135980261Y-133108489D01*
X135980264Y-133108501D01*
X136040602Y-133254172D01*
X136040609Y-133254185D01*
X136128210Y-133385288D01*
X136128213Y-133385292D01*
X136239707Y-133496786D01*
X136239711Y-133496789D01*
X136370814Y-133584390D01*
X136370827Y-133584397D01*
X136516498Y-133644735D01*
X136516503Y-133644737D01*
X136671153Y-133675499D01*
X136671156Y-133675500D01*
X136671158Y-133675500D01*
X136828844Y-133675500D01*
X136828845Y-133675499D01*
X136983497Y-133644737D01*
X137129179Y-133584394D01*
X137136994Y-133579172D01*
X137260875Y-133496398D01*
X137327553Y-133475520D01*
X137329766Y-133475500D01*
X137613331Y-133475500D01*
X137613347Y-133475501D01*
X137620943Y-133475501D01*
X137779054Y-133475501D01*
X137779057Y-133475501D01*
X137931785Y-133434577D01*
X137991306Y-133400212D01*
X138068716Y-133355520D01*
X138180520Y-133243716D01*
X138180520Y-133243714D01*
X138190724Y-133233511D01*
X138190727Y-133233506D01*
X140462417Y-130961819D01*
X140523740Y-130928334D01*
X140550098Y-130925500D01*
X141207894Y-130925500D01*
X141274933Y-130945185D01*
X141320688Y-130997989D01*
X141330632Y-131067147D01*
X141329511Y-131073691D01*
X141320000Y-131121504D01*
X141320000Y-131520000D01*
X142020000Y-131520000D01*
X142020000Y-132020000D01*
X141464464Y-132020000D01*
X141397425Y-132000315D01*
X141357077Y-131958000D01*
X141350517Y-131946638D01*
X141350513Y-131946633D01*
X141243367Y-131839487D01*
X141243365Y-131839485D01*
X141177750Y-131801602D01*
X141112136Y-131763719D01*
X141038950Y-131744109D01*
X140965766Y-131724500D01*
X140814234Y-131724500D01*
X140667863Y-131763719D01*
X140536635Y-131839485D01*
X140536632Y-131839487D01*
X140429487Y-131946632D01*
X140429485Y-131946635D01*
X140353719Y-132077863D01*
X140340171Y-132128426D01*
X140314500Y-132224234D01*
X140314500Y-132375766D01*
X140325948Y-132418492D01*
X140353719Y-132522136D01*
X140375615Y-132560060D01*
X140429485Y-132653365D01*
X140536635Y-132760515D01*
X140667865Y-132836281D01*
X140814234Y-132875500D01*
X140814236Y-132875500D01*
X140965764Y-132875500D01*
X140965766Y-132875500D01*
X141112135Y-132836281D01*
X141243365Y-132760515D01*
X141243372Y-132760507D01*
X141249811Y-132755568D01*
X141252044Y-132758478D01*
X141298258Y-132732865D01*
X141367980Y-132737411D01*
X141424176Y-132778930D01*
X141430394Y-132788634D01*
X141430426Y-132788613D01*
X141543248Y-132957462D01*
X141543251Y-132957466D01*
X141682533Y-133096748D01*
X141682537Y-133096751D01*
X141846315Y-133206185D01*
X141846328Y-133206192D01*
X142028308Y-133281569D01*
X142070000Y-133289862D01*
X142070000Y-132486988D01*
X142079940Y-132504205D01*
X142135795Y-132560060D01*
X142204204Y-132599556D01*
X142280504Y-132620000D01*
X142359496Y-132620000D01*
X142435796Y-132599556D01*
X142504205Y-132560060D01*
X142560060Y-132504205D01*
X142570000Y-132486988D01*
X142570000Y-133289862D01*
X142611690Y-133281569D01*
X142611692Y-133281569D01*
X142793671Y-133206192D01*
X142793684Y-133206185D01*
X142957462Y-133096751D01*
X142957466Y-133096748D01*
X143096748Y-132957466D01*
X143096751Y-132957462D01*
X143206185Y-132793684D01*
X143206192Y-132793671D01*
X143281569Y-132611693D01*
X143281572Y-132611681D01*
X143319999Y-132418495D01*
X143320000Y-132418492D01*
X143320000Y-132020000D01*
X142620000Y-132020000D01*
X142620000Y-131520000D01*
X143320000Y-131520000D01*
X143320000Y-131121508D01*
X143319999Y-131121504D01*
X143281572Y-130928318D01*
X143281569Y-130928306D01*
X143214969Y-130767517D01*
X143207500Y-130698048D01*
X143238775Y-130635569D01*
X143241821Y-130632412D01*
X143844250Y-130029983D01*
X158594500Y-130029983D01*
X158594500Y-130830001D01*
X158594501Y-130830019D01*
X158605000Y-130932796D01*
X158605001Y-130932799D01*
X158639131Y-131035795D01*
X158660186Y-131099334D01*
X158752288Y-131248656D01*
X158876344Y-131372712D01*
X158940543Y-131412310D01*
X158987268Y-131464258D01*
X158998489Y-131533221D01*
X158970646Y-131597303D01*
X158963128Y-131605530D01*
X158855585Y-131713073D01*
X158753768Y-131853211D01*
X158675128Y-132007552D01*
X158621597Y-132172302D01*
X158594500Y-132343389D01*
X158594500Y-132516610D01*
X158616159Y-132653365D01*
X158621598Y-132687701D01*
X158675127Y-132852445D01*
X158753768Y-133006788D01*
X158855586Y-133146928D01*
X158978072Y-133269414D01*
X159061449Y-133329991D01*
X159104114Y-133385322D01*
X159110093Y-133454935D01*
X159077487Y-133516730D01*
X159061448Y-133530627D01*
X158978404Y-133590961D01*
X158978399Y-133590965D01*
X158855967Y-133713397D01*
X158754195Y-133853475D01*
X158675591Y-134007744D01*
X158622085Y-134172415D01*
X158620884Y-134179999D01*
X158620885Y-134180000D01*
X159689670Y-134180000D01*
X159669925Y-134199745D01*
X159620556Y-134285255D01*
X159595000Y-134380630D01*
X159595000Y-134479370D01*
X159620556Y-134574745D01*
X159669925Y-134660255D01*
X159689670Y-134680000D01*
X158620885Y-134680000D01*
X158622085Y-134687584D01*
X158675591Y-134852255D01*
X158754195Y-135006524D01*
X158855967Y-135146602D01*
X158978397Y-135269032D01*
X159118475Y-135370804D01*
X159272742Y-135449408D01*
X159437415Y-135502914D01*
X159608429Y-135530000D01*
X159720000Y-135530000D01*
X159720000Y-134710330D01*
X159739745Y-134730075D01*
X159825255Y-134779444D01*
X159920630Y-134805000D01*
X160019370Y-134805000D01*
X160114745Y-134779444D01*
X160200255Y-134730075D01*
X160220000Y-134710330D01*
X160220000Y-135530000D01*
X160331571Y-135530000D01*
X160502584Y-135502914D01*
X160667257Y-135449408D01*
X160821524Y-135370804D01*
X160961602Y-135269032D01*
X161084032Y-135146602D01*
X161185804Y-135006524D01*
X161264408Y-134852255D01*
X161317914Y-134687584D01*
X161319115Y-134680000D01*
X160250330Y-134680000D01*
X160270075Y-134660255D01*
X160319444Y-134574745D01*
X160345000Y-134479370D01*
X160345000Y-134380630D01*
X160319444Y-134285255D01*
X160270075Y-134199745D01*
X160250330Y-134180000D01*
X161319115Y-134180000D01*
X161319115Y-134179999D01*
X161317914Y-134172415D01*
X161264408Y-134007744D01*
X161185804Y-133853475D01*
X161084032Y-133713397D01*
X160961602Y-133590967D01*
X160878551Y-133530628D01*
X160835885Y-133475298D01*
X160829906Y-133405685D01*
X160862511Y-133343889D01*
X160878551Y-133329991D01*
X160961928Y-133269414D01*
X161084414Y-133146928D01*
X161186232Y-133006788D01*
X161264873Y-132852445D01*
X161318402Y-132687701D01*
X161345500Y-132516611D01*
X161345500Y-132343389D01*
X161318402Y-132172299D01*
X161264873Y-132007555D01*
X161186232Y-131853212D01*
X161084414Y-131713072D01*
X160976872Y-131605530D01*
X160943387Y-131544207D01*
X160948371Y-131474515D01*
X160990243Y-131418582D01*
X160999457Y-131412310D01*
X161063656Y-131372712D01*
X161187712Y-131248656D01*
X161279814Y-131099334D01*
X161334999Y-130932797D01*
X161345500Y-130830009D01*
X161345499Y-130029992D01*
X161340841Y-129984397D01*
X161334999Y-129927203D01*
X161334998Y-129927200D01*
X161324165Y-129894509D01*
X161279814Y-129760666D01*
X161187712Y-129611344D01*
X161063656Y-129487288D01*
X160914334Y-129395186D01*
X160747797Y-129340001D01*
X160747795Y-129340000D01*
X160645010Y-129329500D01*
X159294998Y-129329500D01*
X159294981Y-129329501D01*
X159192203Y-129340000D01*
X159192200Y-129340001D01*
X159025668Y-129395185D01*
X159025663Y-129395187D01*
X158876342Y-129487289D01*
X158752289Y-129611342D01*
X158660187Y-129760663D01*
X158660185Y-129760668D01*
X158632413Y-129844478D01*
X158605001Y-129927203D01*
X158605001Y-129927204D01*
X158605000Y-129927204D01*
X158594500Y-130029983D01*
X143844250Y-130029983D01*
X144538506Y-129335728D01*
X144538511Y-129335724D01*
X144548714Y-129325520D01*
X144548716Y-129325520D01*
X144660520Y-129213716D01*
X144734686Y-129085256D01*
X144739577Y-129076785D01*
X144780500Y-128924057D01*
X144780500Y-128765943D01*
X144780500Y-128654765D01*
X144800185Y-128587726D01*
X144801398Y-128585874D01*
X144889390Y-128454185D01*
X144889390Y-128454184D01*
X144889394Y-128454179D01*
X144949737Y-128308497D01*
X144980500Y-128153842D01*
X144980500Y-127996158D01*
X144980500Y-127996155D01*
X144980499Y-127996153D01*
X144965231Y-127919397D01*
X144949737Y-127841503D01*
X144945712Y-127831786D01*
X144889397Y-127695827D01*
X144889390Y-127695814D01*
X144801789Y-127564711D01*
X144801786Y-127564707D01*
X144690292Y-127453213D01*
X144690288Y-127453210D01*
X144559185Y-127365609D01*
X144559172Y-127365602D01*
X144413501Y-127305264D01*
X144413489Y-127305261D01*
X144258845Y-127274500D01*
X144258842Y-127274500D01*
X144101158Y-127274500D01*
X144101155Y-127274500D01*
X143946510Y-127305261D01*
X143946498Y-127305264D01*
X143800827Y-127365602D01*
X143800814Y-127365609D01*
X143669711Y-127453210D01*
X143669707Y-127453213D01*
X143558213Y-127564707D01*
X143558210Y-127564711D01*
X143470609Y-127695814D01*
X143470602Y-127695827D01*
X143410264Y-127841498D01*
X143410261Y-127841510D01*
X143379500Y-127996153D01*
X143379500Y-128153846D01*
X143410261Y-128308489D01*
X143410264Y-128308501D01*
X143470602Y-128454172D01*
X143470609Y-128454185D01*
X143514596Y-128520016D01*
X143535474Y-128586694D01*
X143516989Y-128654074D01*
X143499175Y-128676588D01*
X142487584Y-129688181D01*
X142426261Y-129721666D01*
X142399903Y-129724500D01*
X141290845Y-129724500D01*
X141223806Y-129704815D01*
X141178051Y-129652011D01*
X141168107Y-129582853D01*
X141176284Y-129553048D01*
X141194735Y-129508501D01*
X141194737Y-129508497D01*
X141225500Y-129353842D01*
X141225500Y-129196158D01*
X141225500Y-129196155D01*
X141225499Y-129196153D01*
X141194737Y-129041503D01*
X141146090Y-128924057D01*
X141134397Y-128895827D01*
X141134390Y-128895814D01*
X141046789Y-128764711D01*
X141046786Y-128764707D01*
X140935292Y-128653213D01*
X140935288Y-128653210D01*
X140804185Y-128565609D01*
X140804172Y-128565602D01*
X140658501Y-128505264D01*
X140658489Y-128505261D01*
X140503845Y-128474500D01*
X140503842Y-128474500D01*
X135471158Y-128474500D01*
X135471155Y-128474500D01*
X135316510Y-128505261D01*
X135316498Y-128505264D01*
X135170827Y-128565602D01*
X135170814Y-128565609D01*
X135039711Y-128653210D01*
X135039707Y-128653213D01*
X134928213Y-128764707D01*
X134928210Y-128764711D01*
X134840609Y-128895814D01*
X134840602Y-128895827D01*
X134780264Y-129041498D01*
X134780261Y-129041510D01*
X134749500Y-129196153D01*
X133365214Y-129196153D01*
X137224548Y-125336819D01*
X137285871Y-125303334D01*
X137312229Y-125300500D01*
X141495396Y-125300500D01*
X141542844Y-125309937D01*
X141566503Y-125319737D01*
X141566508Y-125319738D01*
X141566511Y-125319739D01*
X141721153Y-125350499D01*
X141721156Y-125350500D01*
X141721158Y-125350500D01*
X141878844Y-125350500D01*
X141878845Y-125350499D01*
X142033497Y-125319737D01*
X142179179Y-125259394D01*
X142310289Y-125171789D01*
X142421789Y-125060289D01*
X142509394Y-124929179D01*
X142569737Y-124783497D01*
X142596429Y-124649309D01*
X142628814Y-124587398D01*
X142689529Y-124552824D01*
X142718046Y-124549500D01*
X143828903Y-124549500D01*
X143895942Y-124569185D01*
X143916584Y-124585819D01*
X146555425Y-127224660D01*
X146588910Y-127285983D01*
X146589361Y-127288149D01*
X146620261Y-127443491D01*
X146620264Y-127443501D01*
X146680602Y-127589172D01*
X146680609Y-127589185D01*
X146768210Y-127720288D01*
X146768213Y-127720292D01*
X146879707Y-127831786D01*
X146879711Y-127831789D01*
X147010814Y-127919390D01*
X147010827Y-127919397D01*
X147156498Y-127979735D01*
X147156503Y-127979737D01*
X147311153Y-128010499D01*
X147311156Y-128010500D01*
X147311158Y-128010500D01*
X147468844Y-128010500D01*
X147468845Y-128010499D01*
X147623497Y-127979737D01*
X147769179Y-127919394D01*
X147900289Y-127831789D01*
X148011789Y-127720289D01*
X148099394Y-127589179D01*
X148159737Y-127443497D01*
X148190500Y-127288842D01*
X148190500Y-127131158D01*
X148190500Y-127131155D01*
X148190499Y-127131153D01*
X148159738Y-126976510D01*
X148159737Y-126976503D01*
X148159735Y-126976498D01*
X148099397Y-126830827D01*
X148099390Y-126830814D01*
X148011789Y-126699711D01*
X148011786Y-126699707D01*
X147900292Y-126588213D01*
X147900288Y-126588210D01*
X147769185Y-126500609D01*
X147769172Y-126500602D01*
X147623501Y-126440264D01*
X147623491Y-126440261D01*
X147468149Y-126409361D01*
X147406238Y-126376976D01*
X147404660Y-126375425D01*
X144741416Y-123712181D01*
X144707931Y-123650858D01*
X144712915Y-123581166D01*
X144754787Y-123525233D01*
X144820251Y-123500816D01*
X144829097Y-123500500D01*
X144878844Y-123500500D01*
X144878845Y-123500499D01*
X145033497Y-123469737D01*
X145179179Y-123409394D01*
X145310289Y-123321789D01*
X145421789Y-123210289D01*
X145509394Y-123079179D01*
X145569737Y-122933497D01*
X145570327Y-122930529D01*
X145571064Y-122929119D01*
X145571506Y-122927665D01*
X145571781Y-122927748D01*
X145602708Y-122868619D01*
X145663422Y-122834042D01*
X145733192Y-122837778D01*
X145789866Y-122878642D01*
X145795047Y-122885826D01*
X145878210Y-123010288D01*
X145878213Y-123010292D01*
X145989707Y-123121786D01*
X145989711Y-123121789D01*
X146120814Y-123209390D01*
X146120827Y-123209397D01*
X146223172Y-123251789D01*
X146266503Y-123269737D01*
X146421153Y-123300499D01*
X146421156Y-123300500D01*
X146421158Y-123300500D01*
X146578844Y-123300500D01*
X146578845Y-123300499D01*
X146733497Y-123269737D01*
X146879179Y-123209394D01*
X147010289Y-123121789D01*
X147121789Y-123010289D01*
X147209394Y-122879179D01*
X147209617Y-122878642D01*
X147250953Y-122778846D01*
X147269737Y-122733497D01*
X147300500Y-122578842D01*
X147300500Y-122421158D01*
X147300500Y-122421155D01*
X147300499Y-122421153D01*
X147280543Y-122320827D01*
X147269737Y-122266503D01*
X147263241Y-122250821D01*
X147209397Y-122120827D01*
X147209390Y-122120814D01*
X147121789Y-121989711D01*
X147121786Y-121989707D01*
X147010292Y-121878213D01*
X147010288Y-121878210D01*
X146879185Y-121790609D01*
X146879172Y-121790602D01*
X146733501Y-121730264D01*
X146733489Y-121730261D01*
X146578845Y-121699500D01*
X146578842Y-121699500D01*
X146448500Y-121699500D01*
X146381461Y-121679815D01*
X146335706Y-121627011D01*
X146324500Y-121575500D01*
X146324500Y-110951153D01*
X146784500Y-110951153D01*
X146784500Y-111108843D01*
X146815261Y-111263489D01*
X146815264Y-111263501D01*
X146875602Y-111409172D01*
X146875609Y-111409185D01*
X146963210Y-111540288D01*
X146963213Y-111540292D01*
X147074707Y-111651786D01*
X147074711Y-111651789D01*
X147205814Y-111739390D01*
X147205827Y-111739397D01*
X147351498Y-111799735D01*
X147351503Y-111799737D01*
X147506153Y-111830499D01*
X147506156Y-111830500D01*
X147506158Y-111830500D01*
X147663844Y-111830500D01*
X147663845Y-111830499D01*
X147818497Y-111799737D01*
X147964179Y-111739394D01*
X148095289Y-111651789D01*
X148206789Y-111540289D01*
X148294394Y-111409179D01*
X148354737Y-111263497D01*
X148385500Y-111108842D01*
X148385500Y-110951158D01*
X148385500Y-110951155D01*
X148385499Y-110951153D01*
X148370310Y-110874792D01*
X148354737Y-110796503D01*
X148330332Y-110737583D01*
X148294397Y-110650827D01*
X148294390Y-110650814D01*
X148206789Y-110519711D01*
X148206786Y-110519707D01*
X148095292Y-110408213D01*
X148095288Y-110408210D01*
X147964185Y-110320609D01*
X147964172Y-110320602D01*
X147818501Y-110260264D01*
X147818489Y-110260261D01*
X147663845Y-110229500D01*
X147663842Y-110229500D01*
X147506158Y-110229500D01*
X147506155Y-110229500D01*
X147351510Y-110260261D01*
X147351498Y-110260264D01*
X147205827Y-110320602D01*
X147205814Y-110320609D01*
X147074711Y-110408210D01*
X147074707Y-110408213D01*
X146963213Y-110519707D01*
X146963210Y-110519711D01*
X146875609Y-110650814D01*
X146875602Y-110650827D01*
X146815264Y-110796498D01*
X146815261Y-110796510D01*
X146784500Y-110951153D01*
X146324500Y-110951153D01*
X146324500Y-109802531D01*
X146344185Y-109735492D01*
X146396989Y-109689737D01*
X146466147Y-109679793D01*
X146472692Y-109680914D01*
X146571155Y-109700500D01*
X146571158Y-109700500D01*
X146728844Y-109700500D01*
X146728845Y-109700499D01*
X146883497Y-109669737D01*
X147029179Y-109609394D01*
X147104758Y-109558894D01*
X147160875Y-109521398D01*
X147227553Y-109500520D01*
X147229766Y-109500500D01*
X150000903Y-109500500D01*
X150067942Y-109520185D01*
X150113697Y-109572989D01*
X150123641Y-109642147D01*
X150094616Y-109705703D01*
X150088586Y-109712178D01*
X149480162Y-110320602D01*
X148881286Y-110919478D01*
X148769481Y-111031282D01*
X148769477Y-111031287D01*
X148737123Y-111087328D01*
X148724702Y-111108842D01*
X148690423Y-111168215D01*
X148649499Y-111320943D01*
X148649499Y-111320945D01*
X148649499Y-111489046D01*
X148649500Y-111489059D01*
X148649500Y-124763330D01*
X148649499Y-124763348D01*
X148649499Y-124929054D01*
X148649498Y-124929054D01*
X148649533Y-124929185D01*
X148690423Y-125081785D01*
X148716219Y-125126465D01*
X148769477Y-125218712D01*
X148769481Y-125218717D01*
X148941284Y-125390520D01*
X149028095Y-125440639D01*
X149028097Y-125440641D01*
X149066151Y-125462611D01*
X149078215Y-125469577D01*
X149230943Y-125510501D01*
X149230946Y-125510501D01*
X149396653Y-125510501D01*
X149396669Y-125510500D01*
X150675200Y-125510500D01*
X150742239Y-125530185D01*
X150744091Y-125531398D01*
X150860814Y-125609390D01*
X150860827Y-125609397D01*
X151006498Y-125669735D01*
X151006503Y-125669737D01*
X151161153Y-125700499D01*
X151161156Y-125700500D01*
X151161158Y-125700500D01*
X151318844Y-125700500D01*
X151318845Y-125700499D01*
X151473497Y-125669737D01*
X151619179Y-125609394D01*
X151750289Y-125521789D01*
X151861789Y-125410289D01*
X151949394Y-125279179D01*
X152009737Y-125133497D01*
X152040500Y-124978842D01*
X152040500Y-124821158D01*
X152040500Y-124821155D01*
X152040499Y-124821153D01*
X152009737Y-124666503D01*
X152002615Y-124649309D01*
X151949397Y-124520827D01*
X151949390Y-124520814D01*
X151861789Y-124389711D01*
X151861786Y-124389707D01*
X151750292Y-124278213D01*
X151750288Y-124278210D01*
X151619185Y-124190609D01*
X151619172Y-124190602D01*
X151473501Y-124130264D01*
X151473489Y-124130261D01*
X151318845Y-124099500D01*
X151318842Y-124099500D01*
X151161158Y-124099500D01*
X151161155Y-124099500D01*
X151006510Y-124130261D01*
X151006498Y-124130264D01*
X150860827Y-124190602D01*
X150860814Y-124190609D01*
X150729710Y-124278210D01*
X150725882Y-124281353D01*
X150661572Y-124308666D01*
X150647217Y-124309500D01*
X149974500Y-124309500D01*
X149907461Y-124289815D01*
X149861706Y-124237011D01*
X149850500Y-124185500D01*
X149850500Y-119549097D01*
X149870185Y-119482058D01*
X149922989Y-119436303D01*
X149992147Y-119426359D01*
X150055703Y-119455384D01*
X150062181Y-119461416D01*
X151965425Y-121364660D01*
X151998910Y-121425983D01*
X151999361Y-121428149D01*
X152030261Y-121583491D01*
X152030264Y-121583501D01*
X152090602Y-121729172D01*
X152090609Y-121729185D01*
X152178210Y-121860288D01*
X152178213Y-121860292D01*
X152289707Y-121971786D01*
X152289711Y-121971789D01*
X152420814Y-122059390D01*
X152420827Y-122059397D01*
X152566440Y-122119711D01*
X152566503Y-122119737D01*
X152721153Y-122150499D01*
X152721156Y-122150500D01*
X152721158Y-122150500D01*
X152878844Y-122150500D01*
X152878845Y-122150499D01*
X153033497Y-122119737D01*
X153179179Y-122059394D01*
X153310289Y-121971789D01*
X153421789Y-121860289D01*
X153509394Y-121729179D01*
X153569737Y-121583497D01*
X153600500Y-121428842D01*
X153600500Y-121271158D01*
X153600500Y-121271155D01*
X153600499Y-121271153D01*
X153569738Y-121116510D01*
X153569737Y-121116503D01*
X153569735Y-121116498D01*
X153509397Y-120970827D01*
X153509390Y-120970814D01*
X153421789Y-120839711D01*
X153421786Y-120839707D01*
X153310292Y-120728213D01*
X153310288Y-120728210D01*
X153179185Y-120640609D01*
X153179172Y-120640602D01*
X153033501Y-120580264D01*
X153033491Y-120580261D01*
X152878149Y-120549361D01*
X152816238Y-120516976D01*
X152814660Y-120515425D01*
X150986819Y-118687584D01*
X150953334Y-118626261D01*
X150950500Y-118599903D01*
X150950500Y-116531941D01*
X150970185Y-116464902D01*
X151022989Y-116419147D01*
X151092147Y-116409203D01*
X151155703Y-116438228D01*
X151162181Y-116444260D01*
X151189707Y-116471786D01*
X151189711Y-116471789D01*
X151320814Y-116559390D01*
X151320827Y-116559397D01*
X151466498Y-116619735D01*
X151466503Y-116619737D01*
X151621153Y-116650499D01*
X151621156Y-116650500D01*
X151621158Y-116650500D01*
X151778844Y-116650500D01*
X151778845Y-116650499D01*
X151933497Y-116619737D01*
X152079179Y-116559394D01*
X152210289Y-116471789D01*
X152321789Y-116360289D01*
X152409394Y-116229179D01*
X152469737Y-116083497D01*
X152500500Y-115928842D01*
X152500500Y-115771158D01*
X152500500Y-115771155D01*
X152500499Y-115771153D01*
X152469738Y-115616510D01*
X152469737Y-115616503D01*
X152460173Y-115593414D01*
X152409397Y-115470827D01*
X152409390Y-115470814D01*
X152321398Y-115339125D01*
X152300520Y-115272447D01*
X152300500Y-115270234D01*
X152300500Y-114736555D01*
X152320185Y-114669516D01*
X152372989Y-114623761D01*
X152442147Y-114613817D01*
X152460411Y-114618840D01*
X152460676Y-114617969D01*
X152466492Y-114619732D01*
X152466503Y-114619737D01*
X152621153Y-114650499D01*
X152621156Y-114650500D01*
X152621158Y-114650500D01*
X152778844Y-114650500D01*
X152778845Y-114650499D01*
X152933497Y-114619737D01*
X153079179Y-114559394D01*
X153210289Y-114471789D01*
X153321789Y-114360289D01*
X153409394Y-114229179D01*
X153469737Y-114083497D01*
X153500500Y-113928842D01*
X153500500Y-113771158D01*
X153500500Y-113771155D01*
X153500499Y-113771153D01*
X153485255Y-113694516D01*
X153469737Y-113616503D01*
X153448447Y-113565104D01*
X153409397Y-113470827D01*
X153409390Y-113470814D01*
X153321789Y-113339711D01*
X153321786Y-113339707D01*
X153228338Y-113246259D01*
X153194853Y-113184936D01*
X153199837Y-113115244D01*
X153228335Y-113070900D01*
X153340520Y-112958716D01*
X153419577Y-112821784D01*
X153460501Y-112669057D01*
X153460501Y-112510942D01*
X153460501Y-112503347D01*
X153460500Y-112503329D01*
X153460500Y-110762973D01*
X156097000Y-110762973D01*
X156097000Y-111007027D01*
X156107054Y-111070507D01*
X156127967Y-111202546D01*
X156135179Y-111248076D01*
X156210596Y-111480185D01*
X156299774Y-111655208D01*
X156321396Y-111697642D01*
X156464839Y-111895076D01*
X156464843Y-111895081D01*
X156637418Y-112067656D01*
X156637423Y-112067660D01*
X156793202Y-112180839D01*
X156834861Y-112211106D01*
X157052315Y-112321904D01*
X157284424Y-112397321D01*
X157525473Y-112435500D01*
X157525474Y-112435500D01*
X157769526Y-112435500D01*
X157769527Y-112435500D01*
X158010576Y-112397321D01*
X158242685Y-112321904D01*
X158460139Y-112211106D01*
X158657583Y-112067655D01*
X158830155Y-111895083D01*
X158973606Y-111697639D01*
X159084404Y-111480185D01*
X159159821Y-111248076D01*
X159198000Y-111007027D01*
X159198000Y-110885988D01*
X159217685Y-110818949D01*
X159270489Y-110773194D01*
X159339647Y-110763250D01*
X159394887Y-110785671D01*
X159416579Y-110801432D01*
X159609490Y-110899726D01*
X159609493Y-110899727D01*
X159645940Y-110911569D01*
X159815403Y-110966630D01*
X160029246Y-111000500D01*
X160029247Y-111000500D01*
X160245753Y-111000500D01*
X160245754Y-111000500D01*
X160459597Y-110966630D01*
X160665509Y-110899726D01*
X160858419Y-110801433D01*
X161033578Y-110674172D01*
X161186672Y-110521078D01*
X161313933Y-110345919D01*
X161412226Y-110153009D01*
X161479130Y-109947097D01*
X161513000Y-109733254D01*
X161513000Y-109516746D01*
X161479130Y-109302903D01*
X161436322Y-109171153D01*
X161412227Y-109096993D01*
X161412226Y-109096990D01*
X161313932Y-108904080D01*
X161186672Y-108728922D01*
X161033578Y-108575828D01*
X160858419Y-108448567D01*
X160841717Y-108440057D01*
X160665509Y-108350273D01*
X160665506Y-108350272D01*
X160459598Y-108283370D01*
X160352675Y-108266435D01*
X160245754Y-108249500D01*
X160029246Y-108249500D01*
X159957965Y-108260790D01*
X159815401Y-108283370D01*
X159609493Y-108350272D01*
X159609490Y-108350273D01*
X159416580Y-108448567D01*
X159341863Y-108502853D01*
X159241422Y-108575828D01*
X159241420Y-108575830D01*
X159241419Y-108575830D01*
X159088330Y-108728919D01*
X159088330Y-108728920D01*
X159088328Y-108728922D01*
X159055096Y-108774662D01*
X158961067Y-108904080D01*
X158862773Y-109096990D01*
X158862772Y-109096993D01*
X158795870Y-109302901D01*
X158762000Y-109516746D01*
X158762000Y-109534844D01*
X158742315Y-109601883D01*
X158689511Y-109647638D01*
X158620353Y-109657582D01*
X158565115Y-109635162D01*
X158460143Y-109558896D01*
X158242687Y-109448097D01*
X158242686Y-109448096D01*
X158242685Y-109448096D01*
X158010576Y-109372679D01*
X158010574Y-109372678D01*
X158010572Y-109372678D01*
X157842269Y-109346021D01*
X157769527Y-109334500D01*
X157525473Y-109334500D01*
X157469593Y-109343350D01*
X157284427Y-109372678D01*
X157052312Y-109448097D01*
X156834857Y-109558896D01*
X156637423Y-109702339D01*
X156637418Y-109702343D01*
X156464843Y-109874918D01*
X156464839Y-109874923D01*
X156321396Y-110072357D01*
X156210597Y-110289812D01*
X156135178Y-110521927D01*
X156101021Y-110737583D01*
X156097000Y-110762973D01*
X153460500Y-110762973D01*
X153460500Y-103752971D01*
X156097000Y-103752971D01*
X156097000Y-103997026D01*
X156131594Y-104215446D01*
X156135179Y-104238076D01*
X156210596Y-104470185D01*
X156294443Y-104634745D01*
X156321396Y-104687642D01*
X156464839Y-104885076D01*
X156464843Y-104885081D01*
X156637418Y-105057656D01*
X156637423Y-105057660D01*
X156749442Y-105139046D01*
X156834861Y-105201106D01*
X157052315Y-105311904D01*
X157284424Y-105387321D01*
X157525473Y-105425500D01*
X157525474Y-105425500D01*
X157769526Y-105425500D01*
X157769527Y-105425500D01*
X158010576Y-105387321D01*
X158242685Y-105311904D01*
X158460139Y-105201106D01*
X158565617Y-105124471D01*
X158631420Y-105100993D01*
X158699474Y-105116818D01*
X158748169Y-105166924D01*
X158762500Y-105224791D01*
X158762500Y-105233220D01*
X158796357Y-105446981D01*
X158863235Y-105652814D01*
X158863236Y-105652817D01*
X158961496Y-105845660D01*
X159004329Y-105904615D01*
X159004330Y-105904616D01*
X159658619Y-105250326D01*
X159676234Y-105316063D01*
X159741402Y-105428937D01*
X159833563Y-105521098D01*
X159946437Y-105586266D01*
X160012172Y-105603880D01*
X159357882Y-106258168D01*
X159416842Y-106301005D01*
X159609682Y-106399263D01*
X159609685Y-106399264D01*
X159815518Y-106466142D01*
X160029280Y-106500000D01*
X160245720Y-106500000D01*
X160459481Y-106466142D01*
X160665314Y-106399264D01*
X160665317Y-106399263D01*
X160858156Y-106301006D01*
X160917115Y-106258168D01*
X160917116Y-106258168D01*
X160262827Y-105603880D01*
X160328563Y-105586266D01*
X160441437Y-105521098D01*
X160533598Y-105428937D01*
X160598766Y-105316063D01*
X160616379Y-105250327D01*
X161270668Y-105904616D01*
X161270668Y-105904615D01*
X161313506Y-105845656D01*
X161411763Y-105652817D01*
X161411764Y-105652814D01*
X161478642Y-105446981D01*
X161512500Y-105233220D01*
X161512500Y-105016779D01*
X161478642Y-104803018D01*
X161411764Y-104597185D01*
X161411763Y-104597182D01*
X161313505Y-104404342D01*
X161270668Y-104345383D01*
X161270668Y-104345382D01*
X160616379Y-104999671D01*
X160598766Y-104933937D01*
X160533598Y-104821063D01*
X160441437Y-104728902D01*
X160328563Y-104663734D01*
X160262826Y-104646119D01*
X160917116Y-103991830D01*
X160917115Y-103991829D01*
X160858160Y-103948996D01*
X160665317Y-103850736D01*
X160665314Y-103850735D01*
X160459481Y-103783857D01*
X160245720Y-103750000D01*
X160029280Y-103750000D01*
X159815518Y-103783857D01*
X159609685Y-103850735D01*
X159609682Y-103850736D01*
X159416839Y-103948995D01*
X159394884Y-103964947D01*
X159329077Y-103988426D01*
X159261023Y-103972599D01*
X159212329Y-103922493D01*
X159198000Y-103864628D01*
X159198000Y-103752971D01*
X159170833Y-103581449D01*
X159159821Y-103511924D01*
X159084404Y-103279815D01*
X158973606Y-103062361D01*
X158900992Y-102962416D01*
X158830160Y-102864923D01*
X158830156Y-102864918D01*
X158657581Y-102692343D01*
X158657576Y-102692339D01*
X158460142Y-102548896D01*
X158460141Y-102548895D01*
X158460139Y-102548894D01*
X158242685Y-102438096D01*
X158010576Y-102362679D01*
X158010574Y-102362678D01*
X158010572Y-102362678D01*
X157816532Y-102331945D01*
X157769527Y-102324500D01*
X157525473Y-102324500D01*
X157478468Y-102331945D01*
X157284427Y-102362678D01*
X157052312Y-102438097D01*
X156834857Y-102548896D01*
X156637423Y-102692339D01*
X156637418Y-102692343D01*
X156464843Y-102864918D01*
X156464839Y-102864923D01*
X156321396Y-103062357D01*
X156210597Y-103279812D01*
X156135178Y-103511927D01*
X156097000Y-103752971D01*
X153460500Y-103752971D01*
X153460500Y-100074499D01*
X153480185Y-100007460D01*
X153532989Y-99961705D01*
X153584500Y-99950499D01*
X153757871Y-99950499D01*
X153757872Y-99950499D01*
X153817483Y-99944091D01*
X153952331Y-99893796D01*
X154067546Y-99807546D01*
X154153796Y-99692331D01*
X154202810Y-99560916D01*
X154244681Y-99504984D01*
X154310145Y-99480566D01*
X154378418Y-99495417D01*
X154406673Y-99516569D01*
X154520213Y-99630109D01*
X154692179Y-99755048D01*
X154692181Y-99755049D01*
X154692184Y-99755051D01*
X154881588Y-99851557D01*
X155083757Y-99917246D01*
X155293713Y-99950500D01*
X155293714Y-99950500D01*
X155506286Y-99950500D01*
X155506287Y-99950500D01*
X155716243Y-99917246D01*
X155918412Y-99851557D01*
X156107816Y-99755051D01*
X156129789Y-99739086D01*
X156279786Y-99630109D01*
X156279788Y-99630106D01*
X156279792Y-99630104D01*
X156430104Y-99479792D01*
X156430106Y-99479788D01*
X156430109Y-99479786D01*
X156555048Y-99307820D01*
X156555047Y-99307820D01*
X156555051Y-99307816D01*
X156559514Y-99299054D01*
X156607488Y-99248259D01*
X156675308Y-99231463D01*
X156741444Y-99253999D01*
X156780486Y-99299056D01*
X156784951Y-99307820D01*
X156909890Y-99479786D01*
X157060213Y-99630109D01*
X157232179Y-99755048D01*
X157232181Y-99755049D01*
X157232184Y-99755051D01*
X157421588Y-99851557D01*
X157623757Y-99917246D01*
X157833713Y-99950500D01*
X157833714Y-99950500D01*
X158046286Y-99950500D01*
X158046287Y-99950500D01*
X158256243Y-99917246D01*
X158458412Y-99851557D01*
X158647816Y-99755051D01*
X158669789Y-99739086D01*
X158819786Y-99630109D01*
X158819788Y-99630106D01*
X158819792Y-99630104D01*
X158970104Y-99479792D01*
X158970106Y-99479788D01*
X158970109Y-99479786D01*
X159095048Y-99307820D01*
X159095047Y-99307820D01*
X159095051Y-99307816D01*
X159191557Y-99118412D01*
X159257246Y-98916243D01*
X159290500Y-98706287D01*
X159290500Y-98493713D01*
X159257246Y-98283757D01*
X159191557Y-98081588D01*
X159095051Y-97892184D01*
X159095049Y-97892181D01*
X159095048Y-97892179D01*
X158970109Y-97720213D01*
X158819786Y-97569890D01*
X158647820Y-97444951D01*
X158647115Y-97444591D01*
X158639054Y-97440485D01*
X158588259Y-97392512D01*
X158571463Y-97324692D01*
X158593999Y-97258556D01*
X158639054Y-97219515D01*
X158647816Y-97215051D01*
X158694762Y-97180943D01*
X158819786Y-97090109D01*
X158819788Y-97090106D01*
X158819792Y-97090104D01*
X158970104Y-96939792D01*
X158970106Y-96939788D01*
X158970109Y-96939786D01*
X159095048Y-96767820D01*
X159095047Y-96767820D01*
X159095051Y-96767816D01*
X159191557Y-96578412D01*
X159257246Y-96376243D01*
X159290500Y-96166287D01*
X159290500Y-95953713D01*
X159257246Y-95743757D01*
X159191557Y-95541588D01*
X159095051Y-95352184D01*
X159095049Y-95352181D01*
X159095048Y-95352179D01*
X158970109Y-95180213D01*
X158819786Y-95029890D01*
X158647820Y-94904951D01*
X158458414Y-94808444D01*
X158458413Y-94808443D01*
X158458412Y-94808443D01*
X158256243Y-94742754D01*
X158256241Y-94742753D01*
X158256240Y-94742753D01*
X158090470Y-94716498D01*
X158046287Y-94709500D01*
X157833713Y-94709500D01*
X157789530Y-94716498D01*
X157623760Y-94742753D01*
X157623757Y-94742754D01*
X157455843Y-94797313D01*
X157421582Y-94808445D01*
X157336972Y-94851556D01*
X157268303Y-94864452D01*
X157203563Y-94838175D01*
X157170166Y-94797313D01*
X157164269Y-94785726D01*
X157159577Y-94768215D01*
X157125616Y-94709394D01*
X157080520Y-94631284D01*
X156968716Y-94519480D01*
X156968715Y-94519479D01*
X156964385Y-94515149D01*
X156964374Y-94515139D01*
X155687590Y-93238355D01*
X155687588Y-93238352D01*
X155568717Y-93119481D01*
X155568716Y-93119480D01*
X155481904Y-93069360D01*
X155481904Y-93069359D01*
X155481900Y-93069358D01*
X155431785Y-93040423D01*
X155279057Y-92999499D01*
X155120943Y-92999499D01*
X155113347Y-92999499D01*
X155113331Y-92999500D01*
X152779766Y-92999500D01*
X152712727Y-92979815D01*
X152710875Y-92978602D01*
X152579185Y-92890609D01*
X152579172Y-92890602D01*
X152433501Y-92830264D01*
X152433489Y-92830261D01*
X152278845Y-92799500D01*
X152278842Y-92799500D01*
X152121158Y-92799500D01*
X152121155Y-92799500D01*
X151966510Y-92830261D01*
X151966498Y-92830264D01*
X151820827Y-92890602D01*
X151820814Y-92890609D01*
X151689711Y-92978210D01*
X151689707Y-92978213D01*
X151578213Y-93089707D01*
X151578210Y-93089711D01*
X151490609Y-93220814D01*
X151490602Y-93220827D01*
X151430264Y-93366498D01*
X151430261Y-93366510D01*
X151399500Y-93521153D01*
X151399500Y-93678846D01*
X151430261Y-93833489D01*
X151430264Y-93833501D01*
X151490602Y-93979172D01*
X151490609Y-93979185D01*
X151578210Y-94110288D01*
X151578213Y-94110292D01*
X151689707Y-94221786D01*
X151689711Y-94221789D01*
X151820814Y-94309390D01*
X151820827Y-94309397D01*
X151964038Y-94368716D01*
X151966503Y-94369737D01*
X152121153Y-94400499D01*
X152121156Y-94400500D01*
X152121158Y-94400500D01*
X152278844Y-94400500D01*
X152278845Y-94400499D01*
X152433497Y-94369737D01*
X152579179Y-94309394D01*
X152579185Y-94309390D01*
X152710875Y-94221398D01*
X152777553Y-94200520D01*
X152779766Y-94200500D01*
X154899903Y-94200500D01*
X154966942Y-94220185D01*
X154987584Y-94236819D01*
X155265846Y-94515081D01*
X155299331Y-94576404D01*
X155294347Y-94646096D01*
X155252475Y-94702029D01*
X155197563Y-94725235D01*
X155083872Y-94743242D01*
X155083869Y-94743242D01*
X154881782Y-94808904D01*
X154692439Y-94905380D01*
X154638282Y-94944727D01*
X154638282Y-94944728D01*
X155270591Y-95577037D01*
X155207007Y-95594075D01*
X155092993Y-95659901D01*
X154999901Y-95752993D01*
X154934075Y-95867007D01*
X154917037Y-95930591D01*
X154284728Y-95298282D01*
X154284727Y-95298282D01*
X154245380Y-95352440D01*
X154245376Y-95352446D01*
X154240760Y-95361505D01*
X154192781Y-95412297D01*
X154124959Y-95429087D01*
X154058826Y-95406543D01*
X154019794Y-95361493D01*
X154015051Y-95352184D01*
X154015049Y-95352181D01*
X154015048Y-95352179D01*
X153890109Y-95180213D01*
X153739786Y-95029890D01*
X153567820Y-94904951D01*
X153378414Y-94808444D01*
X153378413Y-94808443D01*
X153378412Y-94808443D01*
X153176243Y-94742754D01*
X153176241Y-94742753D01*
X153176240Y-94742753D01*
X153010470Y-94716498D01*
X152966287Y-94709500D01*
X152753713Y-94709500D01*
X152709530Y-94716498D01*
X152543760Y-94742753D01*
X152543757Y-94742754D01*
X152375843Y-94797313D01*
X152341585Y-94808444D01*
X152152179Y-94904951D01*
X151980213Y-95029890D01*
X151829890Y-95180213D01*
X151704951Y-95352179D01*
X151608444Y-95541585D01*
X151542753Y-95743760D01*
X151513801Y-95926557D01*
X151509500Y-95953713D01*
X151509500Y-96166287D01*
X151542754Y-96376243D01*
X151595697Y-96539185D01*
X151608444Y-96578414D01*
X151704951Y-96767820D01*
X151829890Y-96939786D01*
X151943430Y-97053326D01*
X151976915Y-97114649D01*
X151971931Y-97184341D01*
X151930059Y-97240274D01*
X151899083Y-97257189D01*
X151767669Y-97306203D01*
X151767664Y-97306206D01*
X151652455Y-97392452D01*
X151652452Y-97392455D01*
X151566206Y-97507664D01*
X151566202Y-97507671D01*
X151515908Y-97642517D01*
X151509501Y-97702116D01*
X151509500Y-97702135D01*
X151509500Y-97875500D01*
X151489815Y-97942539D01*
X151437011Y-97988294D01*
X151385500Y-97999500D01*
X150900097Y-97999500D01*
X150833058Y-97979815D01*
X150812416Y-97963181D01*
X147387590Y-94538355D01*
X147387588Y-94538352D01*
X147268717Y-94419481D01*
X147268709Y-94419475D01*
X147180789Y-94368715D01*
X147180788Y-94368715D01*
X147160077Y-94356757D01*
X147131785Y-94340423D01*
X146979057Y-94299499D01*
X146820943Y-94299499D01*
X146813347Y-94299499D01*
X146813331Y-94299500D01*
X143500097Y-94299500D01*
X143433058Y-94279815D01*
X143412416Y-94263181D01*
X143134574Y-93985339D01*
X143101089Y-93924016D01*
X143100638Y-93921849D01*
X143069738Y-93766510D01*
X143069737Y-93766503D01*
X143033427Y-93678842D01*
X143009397Y-93620827D01*
X143009390Y-93620814D01*
X142921789Y-93489711D01*
X142921786Y-93489707D01*
X142810292Y-93378213D01*
X142810288Y-93378210D01*
X142679185Y-93290609D01*
X142679172Y-93290602D01*
X142533501Y-93230264D01*
X142533489Y-93230261D01*
X142378845Y-93199500D01*
X142378842Y-93199500D01*
X142221158Y-93199500D01*
X142221155Y-93199500D01*
X142066510Y-93230261D01*
X142066498Y-93230264D01*
X141920827Y-93290602D01*
X141920814Y-93290609D01*
X141789711Y-93378210D01*
X141789707Y-93378213D01*
X141678213Y-93489707D01*
X141678210Y-93489711D01*
X141590609Y-93620814D01*
X141590602Y-93620827D01*
X141530264Y-93766498D01*
X141530261Y-93766510D01*
X141499500Y-93921153D01*
X141499500Y-94078846D01*
X141530261Y-94233489D01*
X141530264Y-94233501D01*
X141590602Y-94379172D01*
X141590609Y-94379185D01*
X141678210Y-94510288D01*
X141678213Y-94510292D01*
X141789707Y-94621786D01*
X141789711Y-94621789D01*
X141920814Y-94709390D01*
X141920827Y-94709397D01*
X142066498Y-94769735D01*
X142066503Y-94769737D01*
X142131147Y-94782595D01*
X142221849Y-94800638D01*
X142283760Y-94833023D01*
X142285339Y-94834574D01*
X142715139Y-95264374D01*
X142715149Y-95264385D01*
X142719479Y-95268715D01*
X142719480Y-95268716D01*
X142831284Y-95380520D01*
X142831286Y-95380521D01*
X142831290Y-95380524D01*
X142903503Y-95422216D01*
X142903507Y-95422217D01*
X142903508Y-95422218D01*
X142935040Y-95440423D01*
X142968212Y-95459576D01*
X142968214Y-95459576D01*
X142968215Y-95459577D01*
X143120942Y-95500500D01*
X143120943Y-95500500D01*
X143405922Y-95500500D01*
X143472961Y-95520185D01*
X143518716Y-95572989D01*
X143528660Y-95642147D01*
X143509024Y-95693391D01*
X143450609Y-95780814D01*
X143450602Y-95780827D01*
X143390264Y-95926498D01*
X143390261Y-95926510D01*
X143359500Y-96081153D01*
X143359500Y-96238846D01*
X143390261Y-96393489D01*
X143390264Y-96393501D01*
X143450602Y-96539172D01*
X143450609Y-96539185D01*
X143538210Y-96670288D01*
X143538213Y-96670292D01*
X143649707Y-96781786D01*
X143649715Y-96781792D01*
X143719865Y-96828665D01*
X143764671Y-96882277D01*
X143773378Y-96951602D01*
X143754079Y-97000655D01*
X143740610Y-97020813D01*
X143740602Y-97020827D01*
X143680264Y-97166498D01*
X143680261Y-97166510D01*
X143649500Y-97321153D01*
X143649500Y-97478846D01*
X143680261Y-97633489D01*
X143680264Y-97633501D01*
X143740602Y-97779172D01*
X143740609Y-97779185D01*
X143828210Y-97910288D01*
X143828213Y-97910292D01*
X143939708Y-98021787D01*
X143939711Y-98021789D01*
X143975362Y-98045610D01*
X144020166Y-98099221D01*
X144028875Y-98168546D01*
X144009573Y-98217602D01*
X143940612Y-98320809D01*
X143940602Y-98320827D01*
X143880264Y-98466498D01*
X143880261Y-98466510D01*
X143849500Y-98621153D01*
X143849500Y-98778846D01*
X143880261Y-98933489D01*
X143880264Y-98933501D01*
X143940602Y-99079172D01*
X143940609Y-99079185D01*
X144028602Y-99210874D01*
X144049480Y-99277551D01*
X144049500Y-99279765D01*
X144049500Y-103413330D01*
X144049499Y-103413348D01*
X144049499Y-103579054D01*
X144049498Y-103579054D01*
X144090424Y-103731787D01*
X144102655Y-103752971D01*
X144102656Y-103752973D01*
X144169477Y-103868712D01*
X144169481Y-103868717D01*
X144288349Y-103987585D01*
X144288355Y-103987590D01*
X145563181Y-105262416D01*
X145596666Y-105323739D01*
X145599500Y-105350097D01*
X145599500Y-107349901D01*
X145590855Y-107379341D01*
X145584332Y-107409328D01*
X145580577Y-107414343D01*
X145579815Y-107416940D01*
X145563181Y-107437582D01*
X145537181Y-107463582D01*
X145475858Y-107497067D01*
X145406166Y-107492083D01*
X145350233Y-107450211D01*
X145325816Y-107384747D01*
X145325500Y-107375901D01*
X145325500Y-105695942D01*
X145321367Y-105680519D01*
X145321366Y-105680516D01*
X145300975Y-105604415D01*
X145300974Y-105604411D01*
X145284577Y-105543216D01*
X145249193Y-105481928D01*
X145205524Y-105406290D01*
X145205521Y-105406286D01*
X145205520Y-105406284D01*
X145093716Y-105294480D01*
X145093715Y-105294479D01*
X145089385Y-105290149D01*
X145089374Y-105290139D01*
X141862590Y-102063355D01*
X141862588Y-102063352D01*
X141743717Y-101944481D01*
X141743709Y-101944475D01*
X141628935Y-101878211D01*
X141628934Y-101878210D01*
X141613365Y-101869222D01*
X141606785Y-101865423D01*
X141454057Y-101824499D01*
X141295943Y-101824499D01*
X141288347Y-101824499D01*
X141288331Y-101824500D01*
X134540854Y-101824500D01*
X134473815Y-101804815D01*
X134428060Y-101752011D01*
X134418116Y-101682853D01*
X134447141Y-101619297D01*
X134471963Y-101597398D01*
X134485300Y-101588485D01*
X134510289Y-101571789D01*
X134621789Y-101460289D01*
X134709394Y-101329179D01*
X134769737Y-101183497D01*
X134800500Y-101028842D01*
X134800500Y-100871158D01*
X134800500Y-100871155D01*
X134800499Y-100871153D01*
X134790196Y-100819358D01*
X134769737Y-100716503D01*
X134738300Y-100640606D01*
X134709397Y-100570827D01*
X134709390Y-100570814D01*
X134621398Y-100439125D01*
X134600520Y-100372447D01*
X134600500Y-100370234D01*
X134600500Y-99120945D01*
X134600500Y-99120943D01*
X134559577Y-98968216D01*
X134557359Y-98964374D01*
X134480524Y-98831290D01*
X134480521Y-98831286D01*
X134480520Y-98831284D01*
X134368716Y-98719480D01*
X134368715Y-98719479D01*
X134364385Y-98715149D01*
X134364374Y-98715139D01*
X131287590Y-95638355D01*
X131287588Y-95638352D01*
X131168717Y-95519481D01*
X131168716Y-95519480D01*
X131081904Y-95469360D01*
X131081904Y-95469359D01*
X131081900Y-95469358D01*
X131031785Y-95440423D01*
X130879057Y-95399499D01*
X130720943Y-95399499D01*
X130713347Y-95399499D01*
X130713331Y-95399500D01*
X127504766Y-95399500D01*
X127437727Y-95379815D01*
X127435875Y-95378602D01*
X127304185Y-95290609D01*
X127304172Y-95290602D01*
X127158501Y-95230264D01*
X127158489Y-95230261D01*
X127003845Y-95199500D01*
X127003842Y-95199500D01*
X126846158Y-95199500D01*
X126846155Y-95199500D01*
X126691510Y-95230261D01*
X126691498Y-95230264D01*
X126545827Y-95290602D01*
X126545814Y-95290609D01*
X126414711Y-95378210D01*
X126414707Y-95378213D01*
X126303213Y-95489707D01*
X126303210Y-95489711D01*
X126215609Y-95620814D01*
X126215602Y-95620827D01*
X126155264Y-95766498D01*
X126155261Y-95766510D01*
X126124500Y-95921153D01*
X126124500Y-96078846D01*
X126155261Y-96233489D01*
X126155264Y-96233501D01*
X126215602Y-96379172D01*
X126215609Y-96379185D01*
X126303210Y-96510288D01*
X126303213Y-96510292D01*
X126414707Y-96621786D01*
X126414711Y-96621789D01*
X126545814Y-96709390D01*
X126545827Y-96709397D01*
X126681329Y-96765523D01*
X126691503Y-96769737D01*
X126791295Y-96789587D01*
X126840743Y-96799423D01*
X126902654Y-96831808D01*
X126937228Y-96892523D01*
X126933489Y-96962293D01*
X126919654Y-96989930D01*
X126865612Y-97070809D01*
X126865602Y-97070827D01*
X126805264Y-97216498D01*
X126805261Y-97216510D01*
X126774500Y-97371153D01*
X126774500Y-97528846D01*
X126805261Y-97683489D01*
X126805264Y-97683501D01*
X126865602Y-97829172D01*
X126865609Y-97829185D01*
X126953602Y-97960874D01*
X126974480Y-98027551D01*
X126974500Y-98029765D01*
X126974500Y-99124902D01*
X126954815Y-99191941D01*
X126938181Y-99212583D01*
X126127182Y-100023581D01*
X126065859Y-100057066D01*
X125996167Y-100052082D01*
X125940234Y-100010210D01*
X125924940Y-99983352D01*
X125909397Y-99945826D01*
X125909390Y-99945814D01*
X125821789Y-99814711D01*
X125821786Y-99814707D01*
X125710292Y-99703213D01*
X125710288Y-99703210D01*
X125579185Y-99615609D01*
X125579172Y-99615602D01*
X125433501Y-99555264D01*
X125433489Y-99555261D01*
X125278845Y-99524500D01*
X125278842Y-99524500D01*
X125121158Y-99524500D01*
X125121155Y-99524500D01*
X124966510Y-99555261D01*
X124966498Y-99555264D01*
X124820827Y-99615602D01*
X124820814Y-99615609D01*
X124689711Y-99703210D01*
X124689707Y-99703213D01*
X124578213Y-99814707D01*
X124578210Y-99814711D01*
X124490609Y-99945814D01*
X124490602Y-99945827D01*
X124430264Y-100091498D01*
X124430261Y-100091510D01*
X124399500Y-100246153D01*
X124399500Y-100403846D01*
X124430261Y-100558489D01*
X124430264Y-100558501D01*
X124490602Y-100704172D01*
X124490609Y-100704185D01*
X124578210Y-100835288D01*
X124578213Y-100835292D01*
X124689707Y-100946786D01*
X124689711Y-100946789D01*
X124820814Y-101034390D01*
X124820826Y-101034397D01*
X124858352Y-101049940D01*
X124912756Y-101093780D01*
X124934821Y-101160074D01*
X124917542Y-101227774D01*
X124898581Y-101252182D01*
X121378062Y-104772700D01*
X121316739Y-104806185D01*
X121247047Y-104801201D01*
X121202700Y-104772700D01*
X121170000Y-104740000D01*
X120350330Y-104740000D01*
X120370075Y-104720255D01*
X120419444Y-104634745D01*
X120445000Y-104539370D01*
X120445000Y-104440630D01*
X120419444Y-104345255D01*
X120370075Y-104259745D01*
X120350330Y-104240000D01*
X121170000Y-104240000D01*
X121170000Y-104128428D01*
X121142914Y-103957415D01*
X121089408Y-103792742D01*
X121010804Y-103638475D01*
X120909032Y-103498397D01*
X120786602Y-103375967D01*
X120646524Y-103274195D01*
X120492257Y-103195591D01*
X120327589Y-103142087D01*
X120327581Y-103142085D01*
X120320000Y-103140884D01*
X120320000Y-104209670D01*
X120300255Y-104189925D01*
X120214745Y-104140556D01*
X120119370Y-104115000D01*
X120020630Y-104115000D01*
X119925255Y-104140556D01*
X119839745Y-104189925D01*
X119820000Y-104209670D01*
X119820000Y-103140884D01*
X119819999Y-103140884D01*
X119812418Y-103142085D01*
X119812410Y-103142087D01*
X119647742Y-103195591D01*
X119493475Y-103274195D01*
X119353397Y-103375967D01*
X119230965Y-103498399D01*
X119230961Y-103498404D01*
X119170627Y-103581448D01*
X119115297Y-103624114D01*
X119045684Y-103630093D01*
X118983889Y-103597488D01*
X118969991Y-103581449D01*
X118909655Y-103498404D01*
X118909414Y-103498072D01*
X118786928Y-103375586D01*
X118646788Y-103273768D01*
X118492445Y-103195127D01*
X118327701Y-103141598D01*
X118327699Y-103141597D01*
X118327698Y-103141597D01*
X118196271Y-103120781D01*
X118156611Y-103114500D01*
X117983389Y-103114500D01*
X117943728Y-103120781D01*
X117812302Y-103141597D01*
X117647552Y-103195128D01*
X117493211Y-103273768D01*
X117353073Y-103375585D01*
X117245530Y-103483128D01*
X117184207Y-103516612D01*
X117114515Y-103511628D01*
X117058582Y-103469756D01*
X117052310Y-103460543D01*
X117012712Y-103396344D01*
X116888656Y-103272288D01*
X116763559Y-103195128D01*
X116739336Y-103180187D01*
X116739331Y-103180185D01*
X116737862Y-103179698D01*
X116572797Y-103125001D01*
X116572795Y-103125000D01*
X116470016Y-103114500D01*
X116470009Y-103114500D01*
X115893500Y-103114500D01*
X115826461Y-103094815D01*
X115780706Y-103042011D01*
X115769500Y-102990500D01*
X115769500Y-102711097D01*
X115789185Y-102644058D01*
X115805819Y-102623416D01*
X119218946Y-99210289D01*
X122644662Y-95784572D01*
X122661257Y-95775511D01*
X122674866Y-95762380D01*
X122704362Y-95751973D01*
X122705983Y-95751089D01*
X122708149Y-95750638D01*
X122760684Y-95740188D01*
X122830276Y-95746415D01*
X122885453Y-95789278D01*
X122908698Y-95855168D01*
X122906494Y-95885995D01*
X122899500Y-95921158D01*
X122899500Y-96078846D01*
X122930261Y-96233489D01*
X122930264Y-96233501D01*
X122990602Y-96379172D01*
X122990609Y-96379185D01*
X123078210Y-96510288D01*
X123078213Y-96510292D01*
X123189707Y-96621786D01*
X123189711Y-96621789D01*
X123320814Y-96709390D01*
X123320827Y-96709397D01*
X123456329Y-96765523D01*
X123466503Y-96769737D01*
X123615744Y-96799423D01*
X123621153Y-96800499D01*
X123621156Y-96800500D01*
X123621158Y-96800500D01*
X123778844Y-96800500D01*
X123778845Y-96800499D01*
X123933497Y-96769737D01*
X124079179Y-96709394D01*
X124210289Y-96621789D01*
X124321789Y-96510289D01*
X124409394Y-96379179D01*
X124469737Y-96233497D01*
X124500500Y-96078842D01*
X124500500Y-95921158D01*
X124500500Y-95921155D01*
X124500499Y-95921153D01*
X124493506Y-95885995D01*
X124469737Y-95766503D01*
X124463166Y-95750638D01*
X124409397Y-95620827D01*
X124409390Y-95620814D01*
X124321789Y-95489711D01*
X124321786Y-95489707D01*
X124210292Y-95378213D01*
X124210288Y-95378210D01*
X124079185Y-95290609D01*
X124079172Y-95290602D01*
X123933501Y-95230264D01*
X123933489Y-95230261D01*
X123778845Y-95199500D01*
X123778842Y-95199500D01*
X123621158Y-95199500D01*
X123569313Y-95209812D01*
X123499721Y-95203583D01*
X123444544Y-95160720D01*
X123421301Y-95094830D01*
X123423506Y-95064001D01*
X123430500Y-95028842D01*
X123430500Y-94871155D01*
X123430499Y-94871153D01*
X123418117Y-94808904D01*
X123399737Y-94716503D01*
X123370574Y-94646096D01*
X123339397Y-94570827D01*
X123339390Y-94570814D01*
X123251789Y-94439711D01*
X123251786Y-94439707D01*
X123140292Y-94328213D01*
X123140288Y-94328210D01*
X123009185Y-94240609D01*
X123009172Y-94240602D01*
X122863501Y-94180264D01*
X122863489Y-94180261D01*
X122708845Y-94149500D01*
X122708842Y-94149500D01*
X122551158Y-94149500D01*
X122551155Y-94149500D01*
X122396510Y-94180261D01*
X122396498Y-94180264D01*
X122250827Y-94240602D01*
X122250814Y-94240609D01*
X122119711Y-94328210D01*
X122119707Y-94328213D01*
X122008213Y-94439707D01*
X122008210Y-94439711D01*
X121920609Y-94570814D01*
X121920602Y-94570827D01*
X121860264Y-94716498D01*
X121860261Y-94716508D01*
X121829361Y-94871850D01*
X121796976Y-94933761D01*
X121795425Y-94935339D01*
X114688481Y-102042282D01*
X114688479Y-102042285D01*
X114676315Y-102063355D01*
X114643765Y-102119735D01*
X114643764Y-102119736D01*
X114643762Y-102119738D01*
X114609425Y-102179209D01*
X114609423Y-102179212D01*
X114601142Y-102210119D01*
X114568499Y-102331943D01*
X114568499Y-102490057D01*
X114568499Y-102490059D01*
X114568500Y-102500053D01*
X114568500Y-105332330D01*
X114568499Y-105332348D01*
X114568499Y-105498054D01*
X114568498Y-105498054D01*
X113660500Y-105498054D01*
X113660500Y-90721153D01*
X124349500Y-90721153D01*
X124349500Y-90878846D01*
X124380261Y-91033489D01*
X124380264Y-91033501D01*
X124440602Y-91179172D01*
X124440609Y-91179185D01*
X124528210Y-91310288D01*
X124528213Y-91310292D01*
X124639707Y-91421786D01*
X124639711Y-91421789D01*
X124770814Y-91509390D01*
X124770827Y-91509397D01*
X124916498Y-91569735D01*
X124916503Y-91569737D01*
X125071153Y-91600499D01*
X125071156Y-91600500D01*
X125071158Y-91600500D01*
X125228844Y-91600500D01*
X125228845Y-91600499D01*
X125383497Y-91569737D01*
X125529179Y-91509394D01*
X125660289Y-91421789D01*
X125771789Y-91310289D01*
X125859394Y-91179179D01*
X125919737Y-91033497D01*
X125950500Y-90878842D01*
X125950500Y-90721158D01*
X125944046Y-90688711D01*
X157119500Y-90688711D01*
X157119500Y-90931288D01*
X157151161Y-91171785D01*
X157213947Y-91406104D01*
X157294469Y-91600500D01*
X157306776Y-91630212D01*
X157428064Y-91840289D01*
X157428066Y-91840292D01*
X157428067Y-91840293D01*
X157575733Y-92032736D01*
X157575739Y-92032743D01*
X157747256Y-92204260D01*
X157747262Y-92204265D01*
X157939711Y-92351936D01*
X158149788Y-92473224D01*
X158373900Y-92566054D01*
X158608211Y-92628838D01*
X158788586Y-92652584D01*
X158848711Y-92660500D01*
X158848712Y-92660500D01*
X159091289Y-92660500D01*
X159139388Y-92654167D01*
X159331789Y-92628838D01*
X159566100Y-92566054D01*
X159790212Y-92473224D01*
X160000289Y-92351936D01*
X160192738Y-92204265D01*
X160364265Y-92032738D01*
X160511936Y-91840289D01*
X160633224Y-91630212D01*
X160726054Y-91406100D01*
X160788838Y-91171789D01*
X160820500Y-90931288D01*
X160820500Y-90688712D01*
X160788838Y-90448211D01*
X160726054Y-90213900D01*
X160633224Y-89989788D01*
X160511936Y-89779711D01*
X160364265Y-89587262D01*
X160364260Y-89587256D01*
X160192743Y-89415739D01*
X160192736Y-89415733D01*
X160000293Y-89268067D01*
X160000292Y-89268066D01*
X160000289Y-89268064D01*
X159790212Y-89146776D01*
X159790205Y-89146773D01*
X159566104Y-89053947D01*
X159331785Y-88991161D01*
X159091289Y-88959500D01*
X159091288Y-88959500D01*
X158848712Y-88959500D01*
X158848711Y-88959500D01*
X158608214Y-88991161D01*
X158373895Y-89053947D01*
X158149794Y-89146773D01*
X158149785Y-89146777D01*
X157939706Y-89268067D01*
X157747263Y-89415733D01*
X157747256Y-89415739D01*
X157575739Y-89587256D01*
X157575733Y-89587263D01*
X157428067Y-89779706D01*
X157306777Y-89989785D01*
X157306773Y-89989794D01*
X157213947Y-90213895D01*
X157151161Y-90448214D01*
X157119500Y-90688711D01*
X125944046Y-90688711D01*
X125919737Y-90566503D01*
X125919735Y-90566498D01*
X125859397Y-90420827D01*
X125859390Y-90420814D01*
X125771789Y-90289711D01*
X125771786Y-90289707D01*
X125660292Y-90178213D01*
X125660288Y-90178210D01*
X125529185Y-90090609D01*
X125529172Y-90090602D01*
X125383501Y-90030264D01*
X125383489Y-90030261D01*
X125228845Y-89999500D01*
X125228842Y-89999500D01*
X125071158Y-89999500D01*
X125071155Y-89999500D01*
X124916510Y-90030261D01*
X124916498Y-90030264D01*
X124770827Y-90090602D01*
X124770814Y-90090609D01*
X124639711Y-90178210D01*
X124639707Y-90178213D01*
X124528213Y-90289707D01*
X124528210Y-90289711D01*
X124440609Y-90420814D01*
X124440602Y-90420827D01*
X124380264Y-90566498D01*
X124380261Y-90566510D01*
X124349500Y-90721153D01*
X113660500Y-90721153D01*
X113660500Y-87524500D01*
X113680185Y-87457461D01*
X113732989Y-87411706D01*
X113784500Y-87400500D01*
X162995500Y-87400500D01*
X163062539Y-87420185D01*
G37*
%TD.AperFunction*%
%TD*%
M02*
